<svg width="167" height="167" viewBox="0 0 167 167" fill="none" xmlns="http://www.w3.org/2000/svg">
<g filter="url(#filter0_d_660_1286)">
<path d="M162.441 80.1471C162.441 123.899 126.973 159.367 83.2203 159.367C39.4682 159.367 4 123.899 4 80.1471C4 36.3949 39.4682 0.926758 83.2203 0.926758C126.973 0.926758 162.441 36.3949 162.441 80.1471Z" fill="#9FEEA2"/>
</g>
<path d="M42.4617 66.6216H32.0597V65.1123L36.3052 60.8017C37.0943 60.0054 37.7566 59.296 38.2923 58.6735C38.8352 58.051 39.2478 57.4393 39.5301 56.8385C39.8124 56.2304 39.9535 55.5645 39.9535 54.8406C39.9535 53.943 39.6857 53.2589 39.15 52.7884C38.6216 52.3107 37.9231 52.0718 37.0544 52.0718C36.2944 52.0718 35.6212 52.2021 35.0348 52.4627C34.4485 52.7233 33.8477 53.0925 33.2324 53.5702L32.266 52.3541C32.6859 51.9994 33.1419 51.6845 33.6342 51.4095C34.1336 51.1344 34.6657 50.9172 35.2303 50.758C35.8021 50.5987 36.4102 50.5191 37.0544 50.5191C38.0317 50.5191 38.875 50.6892 39.5844 51.0294C40.2938 51.3696 40.8403 51.8546 41.2239 52.4844C41.6148 53.1142 41.8103 53.8634 41.8103 54.732C41.8103 55.5717 41.6438 56.3535 41.3108 57.0774C40.9778 57.794 40.5109 58.507 39.9101 59.2164C39.3093 59.9185 38.6071 60.6641 37.8036 61.4531L34.3508 64.8952V64.9712H42.4617V66.6216ZM49.8018 56.9145C50.8804 56.9145 51.8178 57.0991 52.614 57.4682C53.4103 57.8302 54.0256 58.3586 54.4599 59.0535C54.9015 59.7484 55.1222 60.5917 55.1222 61.5834C55.1222 62.6693 54.887 63.6067 54.4165 64.3957C53.9459 65.1775 53.2691 65.7819 52.386 66.209C51.5029 66.6288 50.446 66.8387 49.2155 66.8387C48.3902 66.8387 47.6229 66.7664 46.9136 66.6216C46.2042 66.4768 45.607 66.2596 45.122 65.9701V64.2545C45.6504 64.573 46.291 64.8264 47.0438 65.0146C47.7967 65.2028 48.5278 65.2969 49.2372 65.2969C50.0407 65.2969 50.7428 65.1702 51.3436 64.9169C51.9517 64.6563 52.4222 64.2654 52.7552 63.7442C53.0954 63.2158 53.2655 62.5534 53.2655 61.7572C53.2655 60.7003 52.9398 59.886 52.2883 59.3141C51.644 58.735 50.6234 58.4455 49.2263 58.4455C48.7775 58.4455 48.2853 58.4817 47.7496 58.5541C47.214 58.6264 46.7724 58.7061 46.4249 58.7929L45.5129 58.1957L46.1209 50.7471H54.0147V52.3975H47.6628L47.261 57.1859C47.5361 57.128 47.8908 57.0701 48.3251 57.0122C48.7594 56.9471 49.2517 56.9145 49.8018 56.9145ZM67.9999 58.6626C67.9999 59.9511 67.9022 61.1021 67.7067 62.1155C67.5113 63.1289 67.2036 63.9867 66.7838 64.6888C66.3639 65.391 65.821 65.9267 65.1551 66.2958C64.4891 66.6578 63.6892 66.8387 62.7554 66.8387C61.5755 66.8387 60.5983 66.5166 59.8238 65.8724C59.0565 65.2281 58.481 64.298 58.0973 63.0819C57.7209 61.8585 57.5327 60.3854 57.5327 58.6626C57.5327 56.9688 57.7028 55.5138 58.0431 54.2977C58.3905 53.0744 58.9479 52.1369 59.7152 51.4855C60.4825 50.8267 61.4959 50.4974 62.7554 50.4974C63.9498 50.4974 64.9343 50.8231 65.7088 51.4746C66.4834 52.1188 67.0589 53.0526 67.4353 54.276C67.8117 55.4921 67.9999 56.9543 67.9999 58.6626ZM59.346 58.6626C59.346 60.1393 59.4582 61.3699 59.6826 62.3544C59.907 63.3388 60.269 64.0772 60.7684 64.5694C61.2751 65.0544 61.9375 65.2969 62.7554 65.2969C63.5734 65.2969 64.2321 65.0544 64.7316 64.5694C65.2383 64.0844 65.6039 63.3497 65.8283 62.3652C66.0599 61.3808 66.1757 60.1466 66.1757 58.6626C66.1757 57.2077 66.0635 55.9916 65.8391 55.0143C65.6147 54.0299 65.2528 53.2915 64.7533 52.7993C64.2539 52.2998 63.5879 52.0501 62.7554 52.0501C61.923 52.0501 61.257 52.2998 60.7576 52.7993C60.2581 53.2915 59.8962 54.0299 59.6718 55.0143C59.4546 55.9916 59.346 57.2077 59.346 58.6626ZM80.7255 58.6626C80.7255 59.9511 80.6278 61.1021 80.4324 62.1155C80.2369 63.1289 79.9293 63.9867 79.5094 64.6888C79.0896 65.391 78.5467 65.9267 77.8807 66.2958C77.2148 66.6578 76.4149 66.8387 75.4811 66.8387C74.3012 66.8387 73.3239 66.5166 72.5494 65.8724C71.7821 65.2281 71.2066 64.298 70.823 63.0819C70.4466 61.8585 70.2584 60.3854 70.2584 58.6626C70.2584 56.9688 70.4285 55.5138 70.7687 54.2977C71.1161 53.0744 71.6735 52.1369 72.4408 51.4855C73.2081 50.8267 74.2215 50.4974 75.4811 50.4974C76.6755 50.4974 77.6599 50.8231 78.4345 51.4746C79.209 52.1188 79.7845 53.0526 80.1609 54.276C80.5373 55.4921 80.7255 56.9543 80.7255 58.6626ZM72.0717 58.6626C72.0717 60.1393 72.1839 61.3699 72.4083 62.3544C72.6327 63.3388 72.9946 64.0772 73.4941 64.5694C74.0008 65.0544 74.6631 65.2969 75.4811 65.2969C76.2991 65.2969 76.9578 65.0544 77.4572 64.5694C77.964 64.0844 78.3295 63.3497 78.5539 62.3652C78.7855 61.3808 78.9014 60.1466 78.9014 58.6626C78.9014 57.2077 78.7892 55.9916 78.5648 55.0143C78.3404 54.0299 77.9784 53.2915 77.479 52.7993C76.9795 52.2998 76.3135 52.0501 75.4811 52.0501C74.6486 52.0501 73.9827 52.2998 73.4832 52.7993C72.9837 53.2915 72.6218 54.0299 72.3974 55.0143C72.1802 55.9916 72.0717 57.2077 72.0717 58.6626ZM101.844 66.6216H99.9986V59.1404H91.6596V66.6216H89.8137V50.7471H91.6596V57.5117H99.9986V50.7471H101.844V66.6216ZM110.52 54.504C111.533 54.504 112.402 54.7284 113.126 55.1772C113.85 55.626 114.404 56.2558 114.787 57.0665C115.171 57.87 115.363 58.811 115.363 59.8896V61.008H107.143C107.165 62.405 107.512 63.4691 108.186 64.2002C108.859 64.9313 109.807 65.2969 111.03 65.2969C111.783 65.2969 112.449 65.2281 113.028 65.0906C113.607 64.9531 114.208 64.7504 114.831 64.4825V66.0678C114.23 66.3357 113.633 66.5311 113.039 66.6542C112.453 66.7772 111.758 66.8387 110.954 66.8387C109.811 66.8387 108.812 66.6071 107.958 66.1438C107.111 65.6733 106.452 64.9856 105.981 64.0808C105.511 63.176 105.276 62.0684 105.276 60.7582C105.276 59.477 105.489 58.3695 105.916 57.4357C106.351 56.4946 106.959 55.7708 107.74 55.2641C108.529 54.7574 109.456 54.504 110.52 54.504ZM110.498 55.9807C109.536 55.9807 108.768 56.2956 108.196 56.9253C107.625 57.5551 107.284 58.4346 107.176 59.5638H113.473C113.466 58.8545 113.354 58.2319 113.137 57.6963C112.927 57.1534 112.605 56.7335 112.17 56.4367C111.736 56.1327 111.179 55.9807 110.498 55.9807ZM123.832 54.504C124.071 54.504 124.321 54.5185 124.581 54.5474C124.842 54.5691 125.073 54.6017 125.276 54.6452L125.048 56.3173C124.853 56.2666 124.635 56.2268 124.397 56.1979C124.158 56.1689 123.933 56.1544 123.723 56.1544C123.246 56.1544 122.793 56.2521 122.366 56.4476C121.946 56.6358 121.577 56.9109 121.259 57.2728C120.94 57.6275 120.69 58.0582 120.509 58.5649C120.328 59.0644 120.238 59.6218 120.238 60.237V66.6216H118.425V54.7212H119.923L120.119 56.9145H120.195C120.441 56.4729 120.737 56.0712 121.085 55.7092C121.432 55.3401 121.834 55.0469 122.29 54.8297C122.753 54.6126 123.267 54.504 123.832 54.504ZM137.785 60.6497C137.785 61.6269 137.658 62.4991 137.405 63.2664C137.151 64.0337 136.786 64.6816 136.308 65.21C135.83 65.7385 135.251 66.1438 134.571 66.4261C133.897 66.7012 133.134 66.8387 132.28 66.8387C131.483 66.8387 130.752 66.7012 130.086 66.4261C129.427 66.1438 128.856 65.7385 128.371 65.21C127.893 64.6816 127.52 64.0337 127.252 63.2664C126.992 62.4991 126.861 61.6269 126.861 60.6497C126.861 59.3467 127.082 58.2392 127.524 57.3271C127.965 56.4078 128.595 55.7092 129.413 55.2315C130.238 54.7465 131.219 54.504 132.356 54.504C133.441 54.504 134.39 54.7465 135.2 55.2315C136.018 55.7165 136.652 56.4186 137.101 57.3379C137.557 58.25 137.785 59.3539 137.785 60.6497ZM128.729 60.6497C128.729 61.6052 128.856 62.434 129.109 63.1361C129.362 63.8383 129.753 64.3812 130.282 64.7649C130.81 65.1485 131.491 65.3403 132.323 65.3403C133.148 65.3403 133.825 65.1485 134.353 64.7649C134.889 64.3812 135.284 63.8383 135.537 63.1361C135.79 62.434 135.917 61.6052 135.917 60.6497C135.917 59.7014 135.79 58.8834 135.537 58.1957C135.284 57.5008 134.893 56.9652 134.364 56.5887C133.836 56.2123 133.152 56.0241 132.312 56.0241C131.074 56.0241 130.166 56.4331 129.587 57.2511C129.015 58.0691 128.729 59.2019 128.729 60.6497ZM79.8677 87.3054V85.8395H90.0526V87.3054H79.8677ZM79.8677 91.7463V90.2805H90.0526V91.7463H79.8677ZM52.9832 126.622H51.1373V110.747H59.9758V112.376H52.9832V118.196H59.5523V119.814H52.9832V126.622ZM67.761 114.504C67.9999 114.504 68.2496 114.518 68.5102 114.547C68.7708 114.569 69.0024 114.602 69.2051 114.645L68.9771 116.317C68.7817 116.267 68.5645 116.227 68.3256 116.198C68.0867 116.169 67.8623 116.154 67.6524 116.154C67.1747 116.154 66.7223 116.252 66.2952 116.448C65.8753 116.636 65.5062 116.911 65.1876 117.273C64.8691 117.627 64.6194 118.058 64.4384 118.565C64.2575 119.064 64.167 119.622 64.167 120.237V126.622H62.3537V114.721H63.8521L64.0476 116.914H64.1236C64.3697 116.473 64.6665 116.071 65.0139 115.709C65.3614 115.34 65.7631 115.047 66.2192 114.83C66.6824 114.613 67.1964 114.504 67.761 114.504ZM81.2793 114.721V126.622H79.8026L79.542 124.949H79.4443C79.1982 125.362 78.8797 125.71 78.4888 125.992C78.0979 126.274 77.6563 126.484 77.1641 126.622C76.6791 126.766 76.1615 126.839 75.6114 126.839C74.6703 126.839 73.8813 126.687 73.2443 126.383C72.6073 126.079 72.1259 125.608 71.8002 124.971C71.4817 124.334 71.3224 123.516 71.3224 122.517V114.721H73.1466V122.387C73.1466 123.379 73.371 124.121 73.8198 124.613C74.2686 125.098 74.9527 125.34 75.872 125.34C76.7551 125.34 77.4572 125.174 77.9784 124.841C78.5069 124.508 78.8869 124.019 79.1185 123.375C79.3502 122.724 79.466 121.927 79.466 120.986V114.721H81.2793ZM86.882 109.726V118.5C86.882 118.789 86.8712 119.144 86.8495 119.564C86.8277 119.976 86.8096 120.342 86.7952 120.661H86.8712C87.0232 120.472 87.244 120.194 87.5335 119.824C87.8303 119.455 88.08 119.158 88.2827 118.934L92.2351 114.721H94.3524L89.564 119.803L94.6998 126.622H92.5282L88.3262 120.986L86.882 122.311V126.622H85.0905V109.726H86.882ZM107.035 120.65C107.035 121.627 106.908 122.499 106.655 123.266C106.401 124.034 106.036 124.682 105.558 125.21C105.08 125.738 104.501 126.144 103.821 126.426C103.147 126.701 102.384 126.839 101.53 126.839C100.733 126.839 100.002 126.701 99.3362 126.426C98.6775 126.144 98.1056 125.738 97.6206 125.21C97.1429 124.682 96.7701 124.034 96.5023 123.266C96.2417 122.499 96.1114 121.627 96.1114 120.65C96.1114 119.347 96.3322 118.239 96.7737 117.327C97.2153 116.408 97.845 115.709 98.663 115.231C99.4882 114.746 100.469 114.504 101.606 114.504C102.691 114.504 103.64 114.746 104.45 115.231C105.268 115.716 105.902 116.419 106.351 117.338C106.807 118.25 107.035 119.354 107.035 120.65ZM97.979 120.65C97.979 121.605 98.1056 122.434 98.359 123.136C98.6123 123.838 99.0032 124.381 99.5317 124.765C100.06 125.149 100.741 125.34 101.573 125.34C102.398 125.34 103.075 125.149 103.603 124.765C104.139 124.381 104.534 123.838 104.787 123.136C105.04 122.434 105.167 121.605 105.167 120.65C105.167 119.701 105.04 118.883 104.787 118.196C104.534 117.501 104.143 116.965 103.614 116.589C103.086 116.212 102.402 116.024 101.562 116.024C100.324 116.024 99.4158 116.433 98.8367 117.251C98.2649 118.069 97.979 119.202 97.979 120.65ZM117.849 123.364C117.849 124.124 117.657 124.765 117.274 125.286C116.897 125.8 116.354 126.187 115.645 126.448C114.943 126.708 114.103 126.839 113.126 126.839C112.293 126.839 111.573 126.774 110.965 126.643C110.357 126.513 109.825 126.328 109.369 126.09V124.428C109.854 124.667 110.433 124.884 111.106 125.08C111.78 125.275 112.467 125.373 113.169 125.373C114.197 125.373 114.943 125.206 115.406 124.873C115.869 124.54 116.101 124.088 116.101 123.516C116.101 123.19 116.007 122.905 115.819 122.658C115.638 122.405 115.33 122.163 114.896 121.931C114.461 121.692 113.861 121.431 113.093 121.149C112.333 120.86 111.675 120.574 111.117 120.291C110.567 120.002 110.14 119.651 109.836 119.238C109.539 118.826 109.391 118.29 109.391 117.631C109.391 116.625 109.796 115.854 110.607 115.318C111.425 114.775 112.496 114.504 113.821 114.504C114.537 114.504 115.207 114.576 115.83 114.721C116.459 114.859 117.046 115.047 117.589 115.286L116.981 116.73C116.488 116.52 115.964 116.343 115.406 116.198C114.849 116.053 114.281 115.981 113.701 115.981C112.869 115.981 112.228 116.118 111.78 116.393C111.338 116.668 111.117 117.045 111.117 117.523C111.117 117.892 111.219 118.196 111.421 118.435C111.631 118.673 111.964 118.898 112.42 119.108C112.876 119.318 113.477 119.564 114.223 119.846C114.968 120.121 115.612 120.407 116.155 120.704C116.698 120.993 117.114 121.348 117.404 121.768C117.701 122.181 117.849 122.713 117.849 123.364ZM124.592 125.362C124.889 125.362 125.193 125.337 125.504 125.286C125.815 125.235 126.069 125.174 126.264 125.101V126.502C126.054 126.596 125.761 126.676 125.385 126.741C125.016 126.806 124.654 126.839 124.299 126.839C123.669 126.839 123.097 126.73 122.583 126.513C122.069 126.289 121.657 125.912 121.345 125.384C121.041 124.855 120.889 124.124 120.889 123.19V116.133H119.196V115.253L120.9 114.547L121.617 111.963H122.703V114.721H126.188V116.133H122.703V123.136C122.703 123.882 122.873 124.439 123.213 124.808C123.561 125.177 124.02 125.362 124.592 125.362Z" fill="black"/>
<defs>
<filter id="filter0_d_660_1286" x="0.293785" y="0.926758" width="165.853" height="165.853" filterUnits="userSpaceOnUse" color-interpolation-filters="sRGB">
<feFlood flood-opacity="0" result="BackgroundImageFix"/>
<feColorMatrix in="SourceAlpha" type="matrix" values="0 0 0 0 0 0 0 0 0 0 0 0 0 0 0 0 0 0 127 0" result="hardAlpha"/>
<feOffset dy="3.70621"/>
<feGaussianBlur stdDeviation="1.85311"/>
<feComposite in2="hardAlpha" operator="out"/>
<feColorMatrix type="matrix" values="0 0 0 0 0 0 0 0 0 0 0 0 0 0 0 0 0 0 0.25 0"/>
<feBlend mode="normal" in2="BackgroundImageFix" result="effect1_dropShadow_660_1286"/>
<feBlend mode="normal" in="SourceGraphic" in2="effect1_dropShadow_660_1286" result="shape"/>
</filter>
</defs>
</svg>
