<svg width="175" height="200" viewBox="0 0 175 200" fill="none" xmlns="http://www.w3.org/2000/svg">
<g clip-path="url(#clip0_185_281)">
<path d="M12.5 50H162.5V175C162.5 188.789 151.289 200 137.5 200H37.5C23.7109 200 12.5 188.789 12.5 175V50ZM50 75C46.5625 75 43.75 77.8125 43.75 81.25V168.75C43.75 172.188 46.5625 175 50 175C53.4375 175 56.25 172.188 56.25 168.75V81.25C56.25 77.8125 53.4375 75 50 75ZM87.5 75C84.0625 75 81.25 77.8125 81.25 81.25V168.75C81.25 172.188 84.0625 175 87.5 175C90.9375 175 93.75 172.188 93.75 168.75V81.25C93.75 77.8125 90.9375 75 87.5 75ZM125 75C121.562 75 118.75 77.8125 118.75 81.25V168.75C118.75 172.188 121.562 175 125 175C128.438 175 131.25 172.188 131.25 168.75V81.25C131.25 77.8125 128.438 75 125 75Z" fill="black"/>
<path d="M52.8125 6.91406C54.9219 2.65625 59.2578 0 63.9844 0H111.016C115.742 0 120.078 2.65625 122.188 6.91406L125 12.5H162.5C169.414 12.5 175 18.0859 175 25C175 31.9141 169.414 37.5 162.5 37.5H12.5C5.58594 37.5 0 31.9141 0 25C0 18.0859 5.58594 12.5 12.5 12.5H50L52.8125 6.91406Z" fill="black"/>
</g>
<defs>
<clipPath id="clip0_185_281">
<rect width="175" height="200" fill="white"/>
</clipPath>
</defs>
</svg>
