<svg width="54" height="54" viewBox="0 0 54 54" fill="none" xmlns="http://www.w3.org/2000/svg">
<mask id="path-1-inside-1_450_2950" fill="white">
<path d="M22.6597 21.1556L24.3202 21.4414L22.6574 21.1556H22.6597ZM29.1442 48.2479L30.4874 49.2671L29.1419 48.2479H29.1442ZM39.5077 6.46763L38.6369 7.91213L39.5077 6.46538V6.46763ZM35.1742 10.3151L40.0162 13.2311L41.7577 10.3399L36.9157 7.42388L35.1742 10.3151ZM19.5817 46.3826L18.0854 45.4826L16.3439 48.3739L17.8402 49.2739L19.5817 46.3826ZM29.9474 39.4751L29.3894 41.9389L32.6812 42.6859L33.2392 40.2221L29.9474 39.4751ZM16.8142 34.2371L18.5804 32.5024L16.2134 30.0949L14.4494 31.8319L16.8142 34.2371ZM29.9654 13.7351L36.7874 10.3826L35.3002 7.35413L28.4782 10.7066L29.9654 13.7351ZM39.2039 11.9194L39.8339 19.7606L43.1954 19.4906L42.5677 11.6516L39.2039 11.9194ZM37.5209 9.68513L38.4794 7.95263L35.5274 6.31688L34.5667 8.05163L37.5209 9.68513ZM38.6369 7.90763L40.3919 8.96738L42.1334 6.07613L40.3784 5.01863L38.6369 7.91213V7.90763ZM40.4324 9.11813L39.4087 10.9676L42.3629 12.6034L43.3867 10.7539L40.4324 9.11813ZM39.8317 19.7606L39.8632 20.1566L43.2314 19.9429L43.1954 19.4906L39.8317 19.7606ZM38.4952 31.2919C38.6482 31.1569 38.7404 31.0781 38.8259 30.9994L36.5534 28.5019L36.2654 28.7584L38.4952 31.2919ZM39.8632 20.1544C40.0657 23.3471 38.8282 26.4296 36.5534 28.5019L38.8259 30.9994C41.8814 28.2139 43.4969 24.1256 43.2314 19.9429L39.8632 20.1566V20.1544ZM24.3202 21.4414L24.3877 21.0521L21.0734 20.4266C21.0509 20.5436 21.0284 20.6651 20.9947 20.8699L24.3202 21.4414ZM28.4782 10.7066C28.2982 10.7944 28.1879 10.8484 28.0844 10.9024L29.6257 13.9039L29.9654 13.7351L28.4782 10.7066ZM24.3899 21.0521C24.9794 17.9224 26.9279 15.2899 29.6257 13.9039L28.0844 10.9024C24.4259 12.7811 21.8474 16.3114 21.0734 20.4266L24.3899 21.0521ZM18.5804 32.5001L18.8819 32.2009L16.4879 29.8204L16.2134 30.0949L18.5804 32.5001ZM20.9924 20.8676C20.9706 20.9983 20.9481 21.1288 20.9249 21.2591L24.2437 21.8666C24.2662 21.7541 24.2842 21.6416 24.3179 21.4391L20.9947 20.8676H20.9924ZM18.8797 32.2009C21.6699 29.3757 23.5399 25.7723 24.2437 21.8644L20.9249 21.2591C20.3432 24.4962 18.7979 27.4792 16.4879 29.8204L18.8797 32.2009ZM33.2347 40.2199L33.3247 39.8351L30.0397 39.0521L29.9452 39.4751L33.2369 40.2199H33.2347ZM36.2632 28.7561L35.9459 29.0374L38.2049 31.5439L38.4929 31.2896L36.2654 28.7584L36.2632 28.7561ZM33.3247 39.8351C34.074 36.6409 35.7759 33.7495 38.2049 31.5439L35.9459 29.0374C33.0088 31.7005 30.95 35.1951 30.0419 39.0544L33.3247 39.8351ZM18.0832 45.4826C16.6634 44.6254 15.6757 44.0291 14.9444 43.5139C14.2199 43.0054 13.8824 42.6656 13.6867 42.3754L10.8899 44.2654C11.4209 45.0529 12.1454 45.6716 13.0027 46.2746C13.8532 46.8731 14.9647 47.5414 16.3417 48.3716L18.0832 45.4804V45.4826ZM14.4472 31.8274C13.2929 32.9636 12.3614 33.8749 11.6707 34.6601C10.9732 35.4476 10.4107 36.2216 10.0732 37.1081L13.2254 38.3096C13.3514 37.9766 13.6079 37.5626 14.1997 36.8944C14.7937 36.2194 15.6239 35.4049 16.8119 34.2349L14.4472 31.8274ZM13.6867 42.3754C13.2916 41.7834 13.0436 41.1056 12.9633 40.3984C12.8831 39.6912 12.973 38.9751 13.2254 38.3096L10.0709 37.1081C9.62602 38.2795 9.46821 39.5403 9.6107 40.7852C9.75319 42.03 10.1918 43.2249 10.8899 44.2654L13.6867 42.3754ZM17.8379 49.2716C19.2149 50.1041 20.3242 50.7724 21.2489 51.2426C22.1759 51.7151 23.0647 52.0661 24.0052 52.1539L24.3202 48.7946C24.0052 48.7654 23.5664 48.6371 22.7789 48.2344C21.9892 47.8316 21.0014 47.2376 19.5794 46.3804L17.8379 49.2716ZM29.3872 41.9366C29.0114 43.5949 28.7459 44.7559 28.4849 45.6356C28.2217 46.5109 28.0057 46.9519 27.7964 47.2264L30.4852 49.2649C31.0567 48.5111 31.4144 47.6201 31.7182 46.6009C32.0197 45.5884 32.3122 44.2946 32.6789 42.6836L29.3872 41.9366ZM24.0052 52.1539C25.2421 52.2655 26.487 52.0587 27.6213 51.553C28.7556 51.0473 29.7415 50.2596 30.4852 49.2649L27.7942 47.2264C27.3979 47.7629 26.8707 48.1888 26.2629 48.4633C25.655 48.7379 24.9869 48.852 24.3224 48.7946L24.0074 52.1561L24.0052 52.1539ZM40.3919 8.96738L40.7137 9.16088C40.7992 9.21488 40.8509 9.25088 40.8824 9.27338C40.9477 9.31838 40.8554 9.26663 40.7654 9.12263L43.6094 7.30463C43.4088 7.00028 43.1513 6.73748 42.8512 6.53063C42.6352 6.37313 42.3697 6.21563 42.1312 6.07388L40.3919 8.96738ZM43.3844 10.7494C43.5194 10.5064 43.6679 10.2386 43.7782 9.99563C43.8974 9.73463 44.0279 9.37913 44.0482 8.94713L40.6754 8.79413C40.6844 8.62313 40.7362 8.53313 40.7047 8.60513L40.6124 8.78513L40.4324 9.11813L43.3844 10.7494ZM40.7654 9.12263C40.703 9.02481 40.6701 8.91006 40.6754 8.79413L44.0482 8.94713C44.0749 8.36748 43.9216 7.79376 43.6094 7.30463L40.7654 9.12263ZM38.4772 7.94813L38.6752 7.59713C38.7292 7.50038 38.7652 7.44413 38.7877 7.40813C38.8372 7.33388 38.7877 7.43288 38.6347 7.53413L36.7762 4.71713C36.3937 4.96913 36.1462 5.28638 35.9797 5.53613C35.8244 5.76788 35.6692 6.05363 35.5252 6.31463L38.4772 7.94813ZM40.3762 5.01638C40.1219 4.86338 39.8429 4.69238 39.5909 4.56863C39.2499 4.391 38.8764 4.2846 38.4929 4.25588L38.2904 7.62638C38.1104 7.61513 38.0159 7.55438 38.0947 7.59488C38.1329 7.61288 38.1914 7.64438 38.2859 7.70063C38.3827 7.75463 38.4907 7.82213 38.6347 7.90763L40.3762 5.01638ZM38.6347 7.53413C38.5327 7.60059 38.4119 7.63442 38.2904 7.62638L38.4929 4.25588C37.8859 4.21999 37.2835 4.38182 36.7762 4.71713L38.6347 7.53413Z"/>
</mask>
<path d="M22.6597 21.1556L24.3202 21.4414L22.6574 21.1556H22.6597ZM29.1442 48.2479L30.4874 49.2671L29.1419 48.2479H29.1442ZM39.5077 6.46763L38.6369 7.91213L39.5077 6.46538V6.46763ZM35.1742 10.3151L40.0162 13.2311L41.7577 10.3399L36.9157 7.42388L35.1742 10.3151ZM19.5817 46.3826L18.0854 45.4826L16.3439 48.3739L17.8402 49.2739L19.5817 46.3826ZM29.9474 39.4751L29.3894 41.9389L32.6812 42.6859L33.2392 40.2221L29.9474 39.4751ZM16.8142 34.2371L18.5804 32.5024L16.2134 30.0949L14.4494 31.8319L16.8142 34.2371ZM29.9654 13.7351L36.7874 10.3826L35.3002 7.35413L28.4782 10.7066L29.9654 13.7351ZM39.2039 11.9194L39.8339 19.7606L43.1954 19.4906L42.5677 11.6516L39.2039 11.9194ZM37.5209 9.68513L38.4794 7.95263L35.5274 6.31688L34.5667 8.05163L37.5209 9.68513ZM38.6369 7.90763L40.3919 8.96738L42.1334 6.07613L40.3784 5.01863L38.6369 7.91213V7.90763ZM40.4324 9.11813L39.4087 10.9676L42.3629 12.6034L43.3867 10.7539L40.4324 9.11813ZM39.8317 19.7606L39.8632 20.1566L43.2314 19.9429L43.1954 19.4906L39.8317 19.7606ZM38.4952 31.2919C38.6482 31.1569 38.7404 31.0781 38.8259 30.9994L36.5534 28.5019L36.2654 28.7584L38.4952 31.2919ZM39.8632 20.1544C40.0657 23.3471 38.8282 26.4296 36.5534 28.5019L38.8259 30.9994C41.8814 28.2139 43.4969 24.1256 43.2314 19.9429L39.8632 20.1566V20.1544ZM24.3202 21.4414L24.3877 21.0521L21.0734 20.4266C21.0509 20.5436 21.0284 20.6651 20.9947 20.8699L24.3202 21.4414ZM28.4782 10.7066C28.2982 10.7944 28.1879 10.8484 28.0844 10.9024L29.6257 13.9039L29.9654 13.7351L28.4782 10.7066ZM24.3899 21.0521C24.9794 17.9224 26.9279 15.2899 29.6257 13.9039L28.0844 10.9024C24.4259 12.7811 21.8474 16.3114 21.0734 20.4266L24.3899 21.0521ZM18.5804 32.5001L18.8819 32.2009L16.4879 29.8204L16.2134 30.0949L18.5804 32.5001ZM20.9924 20.8676C20.9706 20.9983 20.9481 21.1288 20.9249 21.2591L24.2437 21.8666C24.2662 21.7541 24.2842 21.6416 24.3179 21.4391L20.9947 20.8676H20.9924ZM18.8797 32.2009C21.6699 29.3757 23.5399 25.7723 24.2437 21.8644L20.9249 21.2591C20.3432 24.4962 18.7979 27.4792 16.4879 29.8204L18.8797 32.2009ZM33.2347 40.2199L33.3247 39.8351L30.0397 39.0521L29.9452 39.4751L33.2369 40.2199H33.2347ZM36.2632 28.7561L35.9459 29.0374L38.2049 31.5439L38.4929 31.2896L36.2654 28.7584L36.2632 28.7561ZM33.3247 39.8351C34.074 36.6409 35.7759 33.7495 38.2049 31.5439L35.9459 29.0374C33.0088 31.7005 30.95 35.1951 30.0419 39.0544L33.3247 39.8351ZM18.0832 45.4826C16.6634 44.6254 15.6757 44.0291 14.9444 43.5139C14.2199 43.0054 13.8824 42.6656 13.6867 42.3754L10.8899 44.2654C11.4209 45.0529 12.1454 45.6716 13.0027 46.2746C13.8532 46.8731 14.9647 47.5414 16.3417 48.3716L18.0832 45.4804V45.4826ZM14.4472 31.8274C13.2929 32.9636 12.3614 33.8749 11.6707 34.6601C10.9732 35.4476 10.4107 36.2216 10.0732 37.1081L13.2254 38.3096C13.3514 37.9766 13.6079 37.5626 14.1997 36.8944C14.7937 36.2194 15.6239 35.4049 16.8119 34.2349L14.4472 31.8274ZM13.6867 42.3754C13.2916 41.7834 13.0436 41.1056 12.9633 40.3984C12.8831 39.6912 12.973 38.9751 13.2254 38.3096L10.0709 37.1081C9.62602 38.2795 9.46821 39.5403 9.6107 40.7852C9.75319 42.03 10.1918 43.2249 10.8899 44.2654L13.6867 42.3754ZM17.8379 49.2716C19.2149 50.1041 20.3242 50.7724 21.2489 51.2426C22.1759 51.7151 23.0647 52.0661 24.0052 52.1539L24.3202 48.7946C24.0052 48.7654 23.5664 48.6371 22.7789 48.2344C21.9892 47.8316 21.0014 47.2376 19.5794 46.3804L17.8379 49.2716ZM29.3872 41.9366C29.0114 43.5949 28.7459 44.7559 28.4849 45.6356C28.2217 46.5109 28.0057 46.9519 27.7964 47.2264L30.4852 49.2649C31.0567 48.5111 31.4144 47.6201 31.7182 46.6009C32.0197 45.5884 32.3122 44.2946 32.6789 42.6836L29.3872 41.9366ZM24.0052 52.1539C25.2421 52.2655 26.487 52.0587 27.6213 51.553C28.7556 51.0473 29.7415 50.2596 30.4852 49.2649L27.7942 47.2264C27.3979 47.7629 26.8707 48.1888 26.2629 48.4633C25.655 48.7379 24.9869 48.852 24.3224 48.7946L24.0074 52.1561L24.0052 52.1539ZM40.3919 8.96738L40.7137 9.16088C40.7992 9.21488 40.8509 9.25088 40.8824 9.27338C40.9477 9.31838 40.8554 9.26663 40.7654 9.12263L43.6094 7.30463C43.4088 7.00028 43.1513 6.73748 42.8512 6.53063C42.6352 6.37313 42.3697 6.21563 42.1312 6.07388L40.3919 8.96738ZM43.3844 10.7494C43.5194 10.5064 43.6679 10.2386 43.7782 9.99563C43.8974 9.73463 44.0279 9.37913 44.0482 8.94713L40.6754 8.79413C40.6844 8.62313 40.7362 8.53313 40.7047 8.60513L40.6124 8.78513L40.4324 9.11813L43.3844 10.7494ZM40.7654 9.12263C40.703 9.02481 40.6701 8.91006 40.6754 8.79413L44.0482 8.94713C44.0749 8.36748 43.9216 7.79376 43.6094 7.30463L40.7654 9.12263ZM38.4772 7.94813L38.6752 7.59713C38.7292 7.50038 38.7652 7.44413 38.7877 7.40813C38.8372 7.33388 38.7877 7.43288 38.6347 7.53413L36.7762 4.71713C36.3937 4.96913 36.1462 5.28638 35.9797 5.53613C35.8244 5.76788 35.6692 6.05363 35.5252 6.31463L38.4772 7.94813ZM40.3762 5.01638C40.1219 4.86338 39.8429 4.69238 39.5909 4.56863C39.2499 4.391 38.8764 4.2846 38.4929 4.25588L38.2904 7.62638C38.1104 7.61513 38.0159 7.55438 38.0947 7.59488C38.1329 7.61288 38.1914 7.64438 38.2859 7.70063C38.3827 7.75463 38.4907 7.82213 38.6347 7.90763L40.3762 5.01638ZM38.6347 7.53413C38.5327 7.60059 38.4119 7.63442 38.2904 7.62638L38.4929 4.25588C37.8859 4.21999 37.2835 4.38182 36.7762 4.71713L38.6347 7.53413Z" fill="url(#paint0_linear_450_2950)"/>
<path d="M43.2314 19.9429L43.2631 20.4419L43.2001 19.4439L43.2314 19.9429ZM29.9654 13.7351L29.5168 13.9558L30.4142 13.5147L29.9654 13.7351ZM29.6257 13.9039L29.1809 14.1323L30.0706 13.6758L29.6257 13.9039ZM41.5524 20.124L43.2354 19.989L43.1555 18.9922L41.4725 19.1272L41.5524 20.124ZM41.5775 20.5477L43.2627 20.4419L43.2001 19.4439L41.5149 19.5496L41.5775 20.5477ZM37.0059 30.3553L38.1197 31.622L38.8707 30.9617L37.7569 29.695L37.0059 30.3553ZM37.3202 30.0875L38.4564 31.334L39.1954 30.6603L38.0592 29.4138L37.3202 30.0875ZM22.639 21.2307L24.2973 21.5435L24.4826 20.5608L22.8243 20.248L22.639 21.2307ZM28.772 12.4416L29.5168 13.9558L30.4141 13.5145L29.6694 12.0002L28.772 12.4416ZM28.4113 12.6313L29.1808 14.132L30.0706 13.6758L29.3011 12.175L28.4113 12.6313ZM17.7535 30.9481L16.57 29.7443L15.8569 30.4454L17.0404 31.6492L17.7535 30.9481ZM17.3324 31.3674L18.5294 32.5577L19.2345 31.8486L18.0375 30.6583L17.3324 31.3674ZM22.4976 22.0547L24.1558 22.3585L24.336 21.3748L22.6778 21.0711L22.4976 22.0547ZM31.4822 40.3386L33.1292 40.7099L33.3491 39.7344L31.7021 39.3631L31.4822 40.3386ZM31.8004 38.9595L30.1579 38.568L29.926 39.5408L31.5685 39.9323L31.8004 38.9595ZM36.7063 30.6276L37.8358 31.8809L38.5786 31.2114L37.4491 29.9581L36.7063 30.6276ZM17.6408 47.1872L18.5116 45.7405L17.6548 45.2248L16.784 46.6716L17.6408 47.1872ZM12.0093 42.9085L10.6121 43.8535L11.1723 44.6818L12.5695 43.7368L12.0093 42.9085ZM15.2761 33.3836L16.4573 34.5873L17.1711 33.8869L15.9898 32.6832L15.2761 33.3836ZM11.8292 37.2464L10.2542 36.6434L9.89666 37.5773L11.4717 38.1803L11.8292 37.2464ZM18.2827 47.5713L17.412 49.0158L18.2684 49.532L19.1391 48.0875L18.2827 47.5713ZM23.6671 50.4287L23.5096 52.1095L24.5052 52.2028L24.6627 50.522L23.6671 50.4287ZM31.1449 41.8248L29.5002 41.4513L29.2787 42.4265L30.9235 42.8L31.1449 41.8248ZM41.6933 7.78297L42.5641 6.33622L41.7073 5.82055L40.8365 7.2673L41.6933 7.78297ZM42.4564 8.63961L43.8807 7.73061L43.3427 6.88766L41.9184 7.79666L42.4564 8.63961ZM41.6686 10.3746L43.1446 11.1914L43.6288 10.3164L42.1528 9.49965L41.6686 10.3746ZM42.3878 8.37565L40.7003 8.29915L40.655 9.29812L42.3425 9.37462L42.3878 8.37565ZM37.2455 6.6984L35.7695 5.88165L35.2853 6.75662L36.7613 7.57337L37.2455 6.6984ZM37.2903 6.40548L38.2196 7.81398L39.0543 7.26328L38.125 5.85478L37.2903 6.40548ZM38.893 5.97562L38.9943 4.29037L37.9961 4.2304L37.8948 5.91565L38.893 5.97562ZM28.0294 10.927L29.5166 13.9555L30.4142 13.5147L28.927 10.4862L28.0294 10.927ZM39.8948 20.6556L43.2631 20.4419L43.1998 19.4439L39.8315 19.6576L39.8948 20.6556ZM39.1958 30.6629L36.9233 28.1654L36.1836 28.8384L38.4561 31.3359L39.1958 30.6629ZM27.6396 11.1308L29.1809 14.1323L30.0705 13.6755L28.5292 10.674L27.6396 11.1308ZM35.5745 29.3721L37.8335 31.8786L38.5763 31.2091L36.3173 28.7026L35.5745 29.3721ZM13.4067 41.9611L10.61 43.8511L11.1699 44.6797L13.9666 42.7897L13.4067 41.9611ZM41.0347 9.54391L43.8787 7.72591L43.3401 6.88335L40.4961 8.70135L41.0347 9.54391ZM44.0708 8.44765L40.6981 8.29465L40.6528 9.29362L44.0255 9.44662L44.0708 8.44765ZM39.052 7.25879L37.1935 4.44178L36.3588 4.99248L38.2173 7.80948L39.052 7.25879ZM37.9938 4.2259L37.7913 7.5964L38.7895 7.65637L38.992 4.28587L37.9938 4.2259ZM43.1954 19.4906L44.1923 19.4113L44.1922 19.4108L43.1954 19.4906ZM43.2314 19.9429L44.2294 19.8795L44.2289 19.8715L44.2283 19.8635L43.2314 19.9429ZM38.4952 31.2919L37.7445 31.9526L38.406 32.7042L39.1568 32.0417L38.4952 31.2919ZM22.6597 21.1556L22.8293 20.1701L22.7451 20.1556H22.6597V21.1556ZM24.3202 21.4414L24.1508 22.4269L25.1349 22.5961L25.3055 21.6122L24.3202 21.4414ZM22.6574 21.1556V20.1556L22.4881 22.1412L22.6574 21.1556ZM24.3899 21.0521L24.2046 22.0348L25.1875 22.2202L25.3727 21.2372L24.3899 21.0521ZM29.9654 13.7351L29.5244 12.8376L29.5206 12.8395L29.9654 13.7351ZM29.6257 13.9039L29.1808 13.0082L29.1687 13.0144L29.6257 13.9039ZM33.2392 40.2221L34.2145 40.443L34.4353 39.4681L33.4605 39.2469L33.2392 40.2221ZM30.0419 39.0544L29.0685 38.8254L28.84 39.7964L29.8106 40.0272L30.0419 39.0544ZM18.0832 45.4826L17.5663 46.3387L19.0832 47.2546V45.4826H18.0832ZM16.8142 34.2371L16.1011 34.9382L16.8018 35.6509L17.5149 34.9506L16.8142 34.2371ZM17.8402 49.2739L17.3247 50.1308L18.1811 50.6459L18.6968 49.7898L17.8402 49.2739ZM24.0074 52.1561L23.2999 52.8628L24.8044 54.3693L25.0031 52.2494L24.0074 52.1561ZM29.3894 41.9389L28.4141 41.718L28.1933 42.6929L29.1681 42.9141L29.3894 41.9389ZM29.1442 48.2479L29.7487 47.4513L29.4806 47.2479H29.1442V48.2479ZM30.4874 49.2671L29.8836 50.0642L31.0919 48.4705L30.4874 49.2671ZM29.1419 48.2479V47.2479H26.1657L28.5381 49.045L29.1419 48.2479ZM43.3867 10.7539L44.2616 11.2382L44.7458 10.3634L43.8711 9.87903L43.3867 10.7539ZM39.5077 6.46763L40.3641 6.98389L40.5077 6.74572V6.46763H39.5077ZM38.6369 7.91213H37.6369V11.5081L39.4934 8.42839L38.6369 7.91213ZM39.5077 6.46538H40.5077V2.86466L38.6509 5.94971L39.5077 6.46538ZM35.1742 10.3151L34.3176 9.79917L33.8016 10.6558L34.6583 11.1718L35.1742 10.3151ZM40.0162 13.2311L39.5003 14.0878L40.3569 14.6036L40.8728 13.7471L40.0162 13.2311ZM41.7577 10.3399L42.6143 10.8558L43.1303 9.99917L42.2736 9.48323L41.7577 10.3399ZM36.9157 7.42388L37.4316 6.56723L36.575 6.05137L36.0591 6.90792L36.9157 7.42388ZM19.5817 46.3826L20.4383 46.8986L20.9546 46.0415L20.0971 45.5257L19.5817 46.3826ZM18.0854 45.4826L18.6009 44.6257L17.7445 44.1106L17.2288 44.9667L18.0854 45.4826ZM16.3439 48.3739L15.4873 47.8579L14.971 48.715L15.8285 49.2308L16.3439 48.3739ZM29.9474 39.4751L30.1687 38.4999L29.1931 38.2785L28.9721 39.2542L29.9474 39.4751ZM32.6812 42.6859L32.4599 43.6611L33.4355 43.8825L33.6565 42.9068L32.6812 42.6859ZM18.5804 32.5024L19.2811 33.2158L19.995 32.5147L19.2935 31.8013L18.5804 32.5024ZM14.4494 31.8319L13.7478 31.1193L13.0358 31.8204L13.7363 32.533L14.4494 31.8319ZM36.7874 10.3826L37.2285 11.2801L38.1257 10.8392L37.685 9.94183L36.7874 10.3826ZM35.3002 7.35413L36.1978 6.91333L35.7569 6.01548L34.8591 6.45665L35.3002 7.35413ZM28.4782 10.7066L28.9164 11.6055L28.9192 11.6041L28.4782 10.7066ZM39.2039 11.9194L39.1246 10.9225L38.127 11.0019L38.2071 11.9995L39.2039 11.9194ZM39.8339 19.7606L38.8371 19.8407L38.9172 20.8375L39.914 20.7574L39.8339 19.7606ZM42.5677 11.6516L43.5645 11.5718L43.4847 10.5755L42.4883 10.6548L42.5677 11.6516ZM37.5209 9.68513L37.037 10.5603L37.912 11.044L38.3959 10.1692L37.5209 9.68513ZM38.4794 7.95263L39.3544 8.43673L39.8382 7.5623L38.9641 7.07794L38.4794 7.95263ZM35.5274 6.31688L36.0121 5.44219L35.1372 4.9574L34.6526 5.8324L35.5274 6.31688ZM34.5667 8.05163L33.6919 7.56715L33.2071 8.44254L34.0828 8.92676L34.5667 8.05163ZM38.6369 7.90763L39.1538 7.0516L37.6369 6.13561V7.90763H38.6369ZM40.3919 8.96738L39.875 9.82342L39.8766 9.82435L40.3919 8.96738ZM42.1334 6.07613L42.99 6.5921L43.5059 5.73563L42.6495 5.21961L42.1334 6.07613ZM40.3784 5.01863L40.8945 4.16211L40.0376 3.64574L39.5216 4.50296L40.3784 5.01863ZM39.4087 10.9676L38.5338 10.4833L38.0495 11.3581L38.9243 11.8425L39.4087 10.9676ZM42.3629 12.6034L41.8785 13.4782L42.7535 13.9627L43.2378 13.0877L42.3629 12.6034ZM39.8317 19.7606L39.7517 18.7638L38.7556 18.8438L38.8348 19.8399L39.8317 19.7606ZM39.8632 20.1566L38.8663 20.2359L40.8632 20.1566H39.8632ZM38.8259 30.9994L38.1522 30.2604L38.1485 30.2638L38.8259 30.9994ZM36.5534 28.5019L37.2186 29.2487L37.2269 29.2411L36.5534 28.5019ZM39.8632 20.1544L40.8612 20.0911L38.8632 20.1544H39.8632ZM24.3877 21.0521L25.373 21.223L25.5413 20.2522L24.5731 20.0695L24.3877 21.0521ZM20.9947 20.8699L20.008 20.7072L19.8465 21.6872L20.8253 21.8554L20.9947 20.8699ZM28.0844 10.9024L28.5413 11.792L28.547 11.789L28.0844 10.9024ZM18.5804 32.5001L17.8677 33.2015L18.5721 33.9174L19.2849 33.2099L18.5804 32.5001ZM18.8819 32.2009L19.5864 32.9106L20.3008 32.2015L19.587 31.4918L18.8819 32.2009ZM20.9924 20.8676V19.8676H20.1456L20.0061 20.7029L20.9924 20.8676ZM24.2437 21.8666L24.0636 22.8503L25.0313 23.0274L25.2243 22.0627L24.2437 21.8666ZM24.3179 21.4391L25.3043 21.6035L25.4679 20.6222L24.4874 20.4536L24.3179 21.4391ZM20.9947 20.8676L21.1642 19.8821L21.08 19.8676H20.9947V20.8676ZM18.8797 32.2009L18.1742 32.9097L18.8858 33.6178L19.5912 32.9036L18.8797 32.2009ZM24.2437 21.8644L25.2278 22.0416L25.4047 21.0596L24.4231 20.8806L24.2437 21.8644ZM33.2347 40.2199L32.261 39.9921L31.9738 41.2199H33.2347V40.2199ZM30.0397 39.0521L30.2715 38.0794L29.2849 37.8442L29.0637 38.8341L30.0397 39.0521ZM29.9452 39.4751L28.9692 39.2571L28.7518 40.2304L29.7245 40.4505L29.9452 39.4751ZM33.2369 40.2199V41.2199L33.4576 39.2445L33.2369 40.2199ZM36.2632 28.7561L36.9703 28.049L36.3044 27.3832L35.5998 28.0078L36.2632 28.7561ZM35.9459 29.0374L35.2825 28.289L35.2742 28.2966L35.9459 29.0374ZM38.2049 31.5439L37.543 30.7941L37.5327 30.8035L38.2049 31.5439ZM38.4929 31.2896L39.1547 32.0393L39.9032 31.3785L39.2436 30.629L38.4929 31.2896ZM14.9444 43.5139L15.5204 42.6964L15.5189 42.6954L14.9444 43.5139ZM13.6867 42.3754L12.8549 42.9305L12.8576 42.9345L13.6867 42.3754ZM10.8899 44.2654L10.0595 44.8225L10.0608 44.8245L10.8899 44.2654ZM13.0027 46.2746L13.5782 45.4568L13.578 45.4567L13.0027 46.2746ZM16.3417 48.3716L15.8253 49.228L16.6821 49.7446L17.1983 48.8876L16.3417 48.3716ZM18.0832 45.4804H19.0832V41.8821L17.2266 44.9644L18.0832 45.4804ZM14.4472 31.8274L15.1606 31.1266L14.4591 30.4124L13.7457 31.1147L14.4472 31.8274ZM11.6707 34.6601L12.4193 35.3232L12.4215 35.3206L11.6707 34.6601ZM10.0732 37.1081L9.13862 36.7523L8.78296 37.6865L9.71702 38.0426L10.0732 37.1081ZM13.2254 38.3096L14.1604 38.6644L14.1607 38.6635L13.2254 38.3096ZM14.1997 36.8944L14.9483 37.5573L14.9504 37.555L14.1997 36.8944ZM16.8119 34.2349L17.5136 34.9474L18.2252 34.2466L17.5253 33.5341L16.8119 34.2349ZM10.0709 37.1081L10.4269 36.1736L9.4915 35.8174L9.13609 36.7531L10.0709 37.1081ZM17.8379 49.2716L16.9813 48.7557L16.4662 49.6109L17.3206 50.1274L17.8379 49.2716ZM21.2489 51.2426L21.7031 50.3517L21.7022 50.3513L21.2489 51.2426ZM24.3202 48.7946L25.3158 48.888L25.4093 47.8915L24.4126 47.7989L24.3202 48.7946ZM22.7789 48.2344L23.2343 47.3441L23.2332 47.3435L22.7789 48.2344ZM19.5794 46.3804L20.0957 45.524L19.239 45.0075L18.7228 45.8644L19.5794 46.3804ZM29.3872 41.9366L29.6085 40.9614L28.633 40.7401L28.4119 41.7156L29.3872 41.9366ZM28.4849 45.6356L29.4426 45.9237L29.4436 45.9201L28.4849 45.6356ZM27.7964 47.2264L27.0011 46.6201L26.3933 47.4175L27.1923 48.0233L27.7964 47.2264ZM31.7182 46.6009L32.6765 46.8865L32.6766 46.8863L31.7182 46.6009ZM32.6789 42.6836L33.654 42.9056L33.8761 41.9299L32.9002 41.7084L32.6789 42.6836ZM27.7942 47.2264L28.398 46.4293L27.5912 45.8181L26.9898 46.6323L27.7942 47.2264ZM24.3224 48.7946L24.4084 47.7983L23.4194 47.713L23.3268 48.7013L24.3224 48.7946ZM40.7137 9.16088L41.2477 8.31539L41.2384 8.30955L41.2291 8.30392L40.7137 9.16088ZM40.8824 9.27338L40.3012 10.0871L40.3079 10.0919L40.3147 10.0966L40.8824 9.27338ZM40.7654 9.12263L41.6135 8.59261L41.6084 8.58463L40.7654 9.12263ZM43.6094 7.30463L44.4524 6.76663L44.4484 6.7604L44.4443 6.75424L43.6094 7.30463ZM42.8512 6.53063L42.262 7.33864L42.2728 7.34649L42.2837 7.35404L42.8512 6.53063ZM42.1312 6.07388L42.6421 5.21425L41.7867 4.70587L41.2741 5.5587L42.1312 6.07388ZM43.3844 10.7494L42.9008 11.6246L43.774 12.1072L44.2586 11.235L43.3844 10.7494ZM43.7782 9.99563L42.8686 9.58006L42.8675 9.58246L43.7782 9.99563ZM44.0482 8.94713L45.0471 8.99396L45.0471 8.99313L44.0482 8.94713ZM40.6754 8.79413L39.6768 8.74157L39.6765 8.74814L40.6754 8.79413ZM40.7047 8.60513L41.5946 9.06123L41.6086 9.03399L41.6208 9.00595L40.7047 8.60513ZM40.6124 8.78513L41.4921 9.26065L41.4974 9.25099L41.5024 9.24123L40.6124 8.78513ZM38.4772 7.94813L37.993 8.82311L38.8608 9.30333L39.3482 8.43945L38.4772 7.94813ZM38.6752 7.59713L39.5462 8.08845L39.5484 8.0845L38.6752 7.59713ZM38.7877 7.40813L37.9556 6.85343L37.9475 6.86567L37.9397 6.87813L38.7877 7.40813ZM38.6347 7.53413L39.1806 8.37197L39.1865 8.36806L38.6347 7.53413ZM36.7762 4.71713L37.3263 5.55219L37.3276 5.55139L36.7762 4.71713ZM35.9797 5.53613L36.8105 6.09269L36.8117 6.09083L35.9797 5.53613ZM35.5252 6.31463L34.6496 5.83155L34.1671 6.70604L35.041 7.18961L35.5252 6.31463ZM40.3762 5.01638L41.2328 5.53235L41.749 4.67538L40.8918 4.15956L40.3762 5.01638ZM39.5909 4.56863L39.129 5.45552L39.1395 5.46101L39.1501 5.46624L39.5909 4.56863ZM38.4929 4.25588L38.5676 3.25867L38.5598 3.25809L38.552 3.25763L38.4929 4.25588ZM38.2904 7.62638L38.3565 6.62856L38.3528 6.62833L38.2904 7.62638ZM38.0947 7.59488L37.6373 8.48417L37.653 8.49221L37.6689 8.4997L38.0947 7.59488ZM38.2859 7.70063L37.7744 8.55992L37.7864 8.56705L37.7986 8.57383L38.2859 7.70063ZM38.6347 7.90763L38.1241 8.76749L38.9786 9.27481L39.4913 8.4236L38.6347 7.90763ZM22.4901 22.1411L24.1506 22.4269L24.4898 20.4559L22.8293 20.1701L22.4901 22.1411ZM24.4896 20.4558L22.8268 20.1701L22.4881 22.1412L24.1508 22.4269L24.4896 20.4558ZM22.6574 22.1556H22.6597V20.1556H22.6574V22.1556ZM28.5397 49.0445L29.883 50.0638L31.0919 48.4705L29.7487 47.4513L28.5397 49.0445ZM31.0913 48.47L29.7458 47.4508L28.5381 49.045L29.8836 50.0642L31.0913 48.47ZM29.1419 49.2479H29.1442V47.2479H29.1419V49.2479ZM38.6512 5.95137L37.7805 7.39587L39.4934 8.42839L40.3641 6.98389L38.6512 5.95137ZM39.4937 8.4278L40.3645 6.98105L38.6509 5.94971L37.7801 7.39646L39.4937 8.4278ZM38.5077 6.46538V6.46763H40.5077V6.46538H38.5077ZM34.6583 11.1718L39.5003 14.0878L40.5321 12.3745L35.6901 9.45848L34.6583 11.1718ZM40.8728 13.7471L42.6143 10.8558L40.9011 9.82392L39.1596 12.7152L40.8728 13.7471ZM42.2736 9.48323L37.4316 6.56723L36.3998 8.28053L41.2418 11.1965L42.2736 9.48323ZM36.0591 6.90792L34.3176 9.79917L36.0308 10.8311L37.7723 7.93985L36.0591 6.90792ZM20.0971 45.5257L18.6009 44.6257L17.57 46.3396L19.0662 47.2396L20.0971 45.5257ZM17.2288 44.9667L15.4873 47.8579L17.2005 48.8898L18.942 45.9986L17.2288 44.9667ZM15.8285 49.2308L17.3247 50.1308L18.3556 48.417L16.8594 47.517L15.8285 49.2308ZM18.6968 49.7898L20.4383 46.8986L18.7251 45.8667L16.9836 48.7579L18.6968 49.7898ZM28.9721 39.2542L28.4141 41.718L30.3647 42.1598L30.9227 39.696L28.9721 39.2542ZM29.1681 42.9141L32.4599 43.6611L32.9025 41.7107L29.6107 40.9637L29.1681 42.9141ZM33.6565 42.9068L34.2145 40.443L32.2639 40.0012L31.7059 42.465L33.6565 42.9068ZM33.4605 39.2469L30.1687 38.4999L29.7261 40.4503L33.0179 41.1973L33.4605 39.2469ZM17.5149 34.9506L19.2811 33.2158L17.8797 31.7889L16.1135 33.5237L17.5149 34.9506ZM19.2935 31.8013L16.9265 29.3938L15.5004 30.796L17.8674 33.2035L19.2935 31.8013ZM15.5118 29.3823L13.7478 31.1193L15.1511 32.5444L16.9151 30.8074L15.5118 29.3823ZM13.7363 32.533L16.1011 34.9382L17.5273 33.5361L15.1625 31.1308L13.7363 32.533ZM30.4065 14.6326L37.2285 11.2801L36.3464 9.48515L29.5244 12.8376L30.4065 14.6326ZM37.685 9.94183L36.1978 6.91333L34.4026 7.79493L35.8898 10.8234L37.685 9.94183ZM34.8591 6.45665L28.0371 9.80915L28.9192 11.6041L35.7412 8.25162L34.8591 6.45665ZM38.2071 11.9995L38.8371 19.8407L40.8307 19.6805L40.2007 11.8393L38.2071 11.9995ZM39.914 20.7574L43.2755 20.4874L43.1154 18.4938L39.7539 18.7638L39.914 20.7574ZM44.1922 19.4108L43.5645 11.5718L41.5709 11.7315L42.1986 19.5705L44.1922 19.4108ZM42.4883 10.6548L39.1246 10.9225L39.2833 12.9162L42.647 12.6485L42.4883 10.6548ZM38.3959 10.1692L39.3544 8.43673L37.6044 7.46853L36.6459 9.20104L38.3959 10.1692ZM38.9641 7.07794L36.0121 5.44219L35.0427 7.19157L37.9947 8.82732L38.9641 7.07794ZM34.6526 5.8324L33.6919 7.56715L35.4415 8.53612L36.4022 6.80137L34.6526 5.8324ZM34.0828 8.92676L37.037 10.5603L38.0048 8.81L35.0506 7.1765L34.0828 8.92676ZM38.12 8.76367L39.875 9.82342L40.9088 8.11135L39.1538 7.0516L38.12 8.76367ZM41.2485 9.48335L42.99 6.5921L41.2768 5.56017L39.5353 8.45142L41.2485 9.48335ZM42.6495 5.21961L40.8945 4.16211L39.8623 5.87515L41.6173 6.93265L42.6495 5.21961ZM39.5216 4.50296L37.7801 7.39646L39.4937 8.4278L41.2352 5.5343L39.5216 4.50296ZM39.6369 7.91213V7.90763H37.6369V7.91213H39.6369ZM39.5575 8.63385L38.5338 10.4833L40.2836 11.4519L41.3073 9.60242L39.5575 8.63385ZM38.9243 11.8425L41.8785 13.4782L42.8473 11.7285L39.8931 10.0928L38.9243 11.8425ZM43.2378 13.0877L44.2616 11.2382L42.5118 10.2696L41.488 12.1191L43.2378 13.0877ZM43.8711 9.87903L40.9168 8.24328L39.948 9.99298L42.9023 11.6287L43.8711 9.87903ZM38.8348 19.8399L38.8663 20.2359L40.86 20.0773L40.8285 19.6813L38.8348 19.8399ZM44.2283 19.8635L44.1923 19.4113L42.1986 19.57L42.2346 20.0222L44.2283 19.8635ZM43.1154 18.4938L39.7517 18.7638L39.9117 20.7574L43.2754 20.4874L43.1154 18.4938ZM39.1568 32.0417C39.2935 31.9211 39.4078 31.823 39.5034 31.7349L38.1485 30.2638C38.0731 30.3332 38.0029 30.3927 37.8336 30.542L39.1568 32.0417ZM35.8883 27.7551L35.6003 28.0116L36.9305 29.5051L37.2185 29.2486L35.8883 27.7551ZM35.5148 29.4191L37.7445 31.9526L39.2459 30.6312L37.0161 28.0977L35.5148 29.4191ZM38.8652 20.2177C39.049 23.1159 37.9242 25.9004 35.88 27.7626L37.2269 29.2411C39.7321 26.9589 41.0824 23.5783 40.8612 20.0911L38.8652 20.2177ZM39.4996 31.7384C42.7855 28.7428 44.5136 24.3566 44.2294 19.8795L42.2334 20.0062C42.4803 23.8946 40.9773 27.6849 38.1522 30.2604L39.4996 31.7384ZM40.8632 20.1566V20.1544H38.8632V20.1566H40.8632ZM25.3055 21.6122L25.373 21.223L23.4024 20.8813L23.3349 21.2705L25.3055 21.6122ZM24.5731 20.0695L21.2589 19.444L20.888 21.4093L24.2022 22.0348L24.5731 20.0695ZM20.0914 20.2378C20.0674 20.3625 20.0433 20.4928 20.008 20.7072L21.9814 21.0325C22.0135 20.8375 22.0344 20.7247 22.0554 20.6155L20.0914 20.2378ZM20.8253 21.8554L24.1508 22.4269L24.4896 20.4558L21.1641 19.8843L20.8253 21.8554ZM28.04 9.80776C27.8627 9.8942 27.7397 9.95433 27.6219 10.0158L28.547 11.789C28.6362 11.7424 28.7337 11.6946 28.9164 11.6055L28.04 9.80776ZM30.0705 14.7995L30.4103 14.6307L29.5206 12.8395L29.1808 13.0083L30.0705 14.7995ZM25.3727 21.2372C25.9071 18.3996 27.6695 16.0331 30.0827 14.7934L29.1687 13.0144C26.1863 14.5466 24.0517 17.4452 23.4072 20.867L25.3727 21.2372ZM27.6276 10.0128C23.6844 12.0378 20.9197 15.8342 20.0907 20.2418L22.0562 20.6115C22.7752 16.7886 25.1674 13.5245 28.5412 11.7919L27.6276 10.0128ZM20.8881 21.4093L24.2046 22.0348L24.5753 20.0695L21.2588 19.444L20.8881 21.4093ZM19.2849 33.2099L19.5864 32.9106L18.1775 31.4911L17.876 31.7904L19.2849 33.2099ZM19.587 31.4918L17.193 29.1113L15.7828 30.5295L18.1768 32.91L19.587 31.4918ZM15.7808 29.1133L15.5063 29.3878L16.9205 30.802L17.195 30.5275L15.7808 29.1133ZM15.5007 30.7963L17.8677 33.2015L19.2932 31.7987L16.9262 29.3935L15.5007 30.7963ZM20.0061 20.7029C19.9849 20.8301 19.963 20.9571 19.9404 21.084L21.9095 21.4342C21.9333 21.3004 21.9564 21.1664 21.9788 21.0323L20.0061 20.7029ZM20.7449 22.2428L24.0636 22.8503L24.4237 20.883L21.105 20.2755L20.7449 22.2428ZM25.2243 22.0627C25.2508 21.9298 25.2724 21.7948 25.3043 21.6035L23.3315 21.2747C23.2959 21.4885 23.2815 21.5784 23.2631 21.6705L25.2243 22.0627ZM24.4874 20.4536L21.1642 19.8821L20.8252 21.8532L24.1484 22.4247L24.4874 20.4536ZM20.9947 19.8676H20.9924V21.8676H20.9947V19.8676ZM19.5912 32.9036C22.5233 29.9348 24.4883 26.1482 25.2278 22.0416L23.2595 21.6871C22.5915 25.3964 20.8166 28.8166 18.1682 31.4982L19.5912 32.9036ZM24.4231 20.8806L21.1043 20.2754L20.7455 22.2429L24.0643 22.8482L24.4231 20.8806ZM19.9407 21.0823C19.3946 24.1209 17.9442 26.9207 15.7761 29.118L17.1998 30.5227C19.6516 28.0378 21.2918 24.8715 21.9092 21.436L19.9407 21.0823ZM15.7825 30.5292L18.1742 32.9097L19.5851 31.4921L17.1934 29.1116L15.7825 30.5292ZM34.2084 40.4477L34.2984 40.0629L32.351 39.6074L32.261 39.9921L34.2084 40.4477ZM33.5565 38.8624L30.2715 38.0794L29.8078 40.0249L33.0928 40.8079L33.5565 38.8624ZM29.0637 38.8341L28.9692 39.2571L30.9211 39.6932L31.0156 39.2702L29.0637 38.8341ZM29.7245 40.4505L33.0163 41.1952L33.4576 39.2445L30.1658 38.4998L29.7245 40.4505ZM33.2369 39.2199H33.2347V41.2199H33.2369V39.2199ZM35.5998 28.0078L35.2826 28.2891L36.6093 29.7857L36.9266 29.5044L35.5998 28.0078ZM38.8667 32.2935L39.1547 32.0393L37.8311 30.54L37.5431 30.7942L38.8667 32.2935ZM39.2436 30.629L37.0161 28.0978L35.5147 29.419L37.7422 31.9503L39.2436 30.629ZM36.9725 28.0513L36.9703 28.049L35.5561 29.4632L35.5583 29.4655L36.9725 28.0513ZM34.2983 40.0635C35.0013 37.0665 36.5981 34.3536 38.8772 32.2842L37.5327 30.8035C34.9537 33.1453 33.1467 36.2152 32.3511 39.6067L34.2983 40.0635ZM35.2742 28.2966C32.1869 31.0959 30.0229 34.7691 29.0685 38.8254L31.0154 39.2834C31.877 35.6212 33.8308 32.305 36.6176 29.7782L35.2742 28.2966ZM29.8106 40.0272L33.0933 40.808L33.5561 38.8623L30.2733 38.0815L29.8106 40.0272ZM18.6001 44.6266C17.1668 43.7612 16.2158 43.1864 15.5204 42.6964L14.3684 44.3313C15.1356 44.8719 16.16 45.4896 17.5663 46.3387L18.6001 44.6266ZM15.5189 42.6954C14.8351 42.2154 14.6119 41.9588 14.5158 41.8162L12.8576 42.9345C13.153 43.3725 13.6047 43.7953 14.3699 44.3324L15.5189 42.6954ZM10.0608 44.8245C10.6916 45.76 11.5308 46.4619 12.4273 47.0926L13.578 45.4567C12.7601 44.8814 12.1502 44.3458 11.7191 43.7063L10.0608 44.8245ZM12.4272 47.0924C13.3134 47.7161 14.461 48.4054 15.8253 49.228L16.858 47.5153C15.4684 46.6774 14.3929 46.0302 13.5782 45.4568L12.4272 47.0924ZM17.1983 48.8876L18.9398 45.9963L17.2266 44.9644L15.4851 47.8557L17.1983 48.8876ZM17.0832 45.4804V45.4826H19.0832V45.4804H17.0832ZM13.7457 31.1147C12.6035 32.239 11.6402 33.1807 10.9198 33.9997L12.4215 35.3206C13.0826 34.5691 13.9823 33.6882 15.1487 32.54L13.7457 31.1147ZM10.9221 33.9971C10.1914 34.8221 9.53853 35.7019 9.13862 36.7523L11.0077 37.4639C11.2828 36.7414 11.755 36.0732 12.4193 35.3232L10.9221 33.9971ZM9.71702 38.0426L12.8693 39.2441L13.5816 37.3752L10.4293 36.1737L9.71702 38.0426ZM14.1607 38.6635C14.2234 38.4978 14.3871 38.1911 14.9483 37.5573L13.451 36.2314C12.8287 36.9342 12.4794 37.4554 12.2901 37.9557L14.1607 38.6635ZM14.9504 37.555C15.5148 36.9137 16.3129 36.1299 17.5136 34.9474L16.1102 33.5224C14.935 34.6799 14.0726 35.5251 13.449 36.2338L14.9504 37.555ZM17.5253 33.5341L15.1606 31.1266L13.7338 32.5281L16.0985 34.9356L17.5253 33.5341ZM14.5184 41.8202C14.2117 41.3607 14.0192 40.8346 13.957 40.2857L11.9697 40.5111C12.0679 41.3766 12.3714 42.2061 12.8549 42.9305L14.5184 41.8202ZM13.957 40.2857C13.8947 39.7368 13.9644 39.1809 14.1604 38.6644L12.2905 37.9549C11.9815 38.7693 11.8715 39.6457 11.9697 40.5111L13.957 40.2857ZM13.5814 37.3751L10.4269 36.1736L9.71499 38.0426L12.8695 39.2441L13.5814 37.3751ZM9.13609 36.7531C8.63446 38.0737 8.45653 39.4953 8.61719 40.8989L10.6042 40.6715C10.4799 39.5853 10.6176 38.4852 11.0058 37.4632L9.13609 36.7531ZM8.61719 40.8989C8.7778 42.302 9.27219 43.649 10.0595 44.8225L11.7203 43.7082C11.1115 42.8008 10.7286 41.758 10.6042 40.6715L8.61719 40.8989ZM17.3206 50.1274C18.687 50.9535 19.8311 51.6435 20.7957 52.134L21.7022 50.3513C20.8173 49.9013 19.7429 49.2548 18.3553 48.4159L17.3206 50.1274ZM20.7948 52.1336C21.7644 52.6278 22.7859 53.0445 23.9123 53.1496L24.0981 51.1582C23.3434 51.0878 22.5875 50.8025 21.7031 50.3517L20.7948 52.1336ZM25.0008 52.2472L25.3158 48.888L23.3245 48.7013L23.0095 52.0605L25.0008 52.2472ZM24.4126 47.7989C24.2849 47.7871 23.9799 47.7254 23.2343 47.3441L22.3236 49.1247C23.153 49.5489 23.7254 49.7437 24.2277 49.7904L24.4126 47.7989ZM23.2332 47.3435C22.4826 46.9607 21.5304 46.3889 20.0957 45.524L19.0631 47.2368C20.4725 48.0864 21.4958 48.7025 22.3246 49.1252L23.2332 47.3435ZM18.7228 45.8644L16.9813 48.7557L18.6945 49.7876L20.436 46.8964L18.7228 45.8644ZM28.4119 41.7156C28.0334 43.3861 27.7758 44.5101 27.5262 45.3512L29.4436 45.9201C29.7161 45.0017 29.9895 43.8036 30.3625 42.1576L28.4119 41.7156ZM27.5273 45.3476C27.275 46.1865 27.1005 46.4898 27.0011 46.6201L28.5917 47.8326C28.9108 47.414 29.1684 46.8352 29.4426 45.9237L27.5273 45.3476ZM27.1923 48.0233L29.881 50.0618L31.0893 48.468L28.4006 46.4295L27.1923 48.0233ZM31.282 49.8691C31.9604 48.9744 32.3597 47.9495 32.6765 46.8865L30.7598 46.3153C30.4691 47.2908 30.153 48.0479 29.6883 48.6607L31.282 49.8691ZM32.6766 46.8863C32.9897 45.8348 33.2904 44.5027 33.654 42.9056L31.7039 42.4617C31.334 44.0866 31.0497 45.342 30.7598 46.3155L32.6766 46.8863ZM32.9002 41.7084L29.6085 40.9614L29.1659 42.9118L32.4576 43.6588L32.9002 41.7084ZM23.9153 53.1498C25.3222 53.2768 26.7382 53.0415 28.0285 52.4663L27.2141 50.6396C26.2357 51.0758 25.162 51.2542 24.0951 51.1579L23.9153 53.1498ZM28.0285 52.4663C29.3187 51.8911 30.4402 50.9951 31.2861 49.8637L29.6843 48.6661C29.0428 49.524 28.1924 50.2034 27.2141 50.6396L28.0285 52.4663ZM31.089 48.4678L28.398 46.4293L27.1903 48.0235L29.8813 50.062L31.089 48.4678ZM26.9898 46.6323C26.6952 47.0312 26.3031 47.3479 25.8512 47.552L26.6745 49.3747C27.4382 49.0297 28.1007 48.4946 28.5986 47.8205L26.9898 46.6323ZM25.8512 47.552C25.3992 47.7562 24.9025 47.841 24.4084 47.7983L24.2365 49.7909C25.0714 49.863 25.9108 49.7197 26.6745 49.3747L25.8512 47.552ZM23.3268 48.7013L23.0118 52.0628L25.0031 52.2494L25.3181 48.8879L23.3268 48.7013ZM24.715 51.4495L24.7127 51.4472L23.2976 52.8605L23.2999 52.8628L24.715 51.4495ZM39.8766 9.82435L40.1983 10.0178L41.2291 8.30392L40.9073 8.11042L39.8766 9.82435ZM40.1797 10.0064C40.2481 10.0496 40.2841 10.0749 40.3012 10.0871L41.4637 8.45965C41.4177 8.42684 41.3502 8.38017 41.2477 8.31539L40.1797 10.0064ZM40.3147 10.0966C40.3142 10.0963 40.3116 10.0944 40.307 10.0911C40.306 10.0903 40.3049 10.0895 40.304 10.0888C40.303 10.0881 40.3023 10.0876 40.3025 10.0877C40.3026 10.0878 40.3028 10.088 40.3031 10.0882C40.3034 10.0884 40.304 10.0889 40.3048 10.0894C40.3055 10.09 40.3069 10.091 40.3086 10.0923C40.3101 10.0934 40.3135 10.0959 40.3179 10.0991C40.3199 10.1005 40.3325 10.1097 40.349 10.1207C40.3544 10.1243 40.3791 10.1409 40.4122 10.1596C40.4325 10.1708 40.4911 10.1997 40.5299 10.2164C40.6221 10.2485 41.0536 10.2779 41.3733 10.1724C41.7926 9.7486 41.853 8.9727 41.7742 8.79572C41.7393 8.73879 41.6808 8.65893 41.6601 8.6342C41.6282 8.59739 41.6002 8.57091 41.5963 8.56711C41.58 8.55153 41.5666 8.53977 41.565 8.53835C41.5464 8.52203 41.5682 8.54117 41.5776 8.55028C41.5961 8.5682 41.6064 8.58137 41.6134 8.59263L39.9174 9.65263C40.0145 9.80789 40.1159 9.91894 40.1867 9.98748C40.2223 10.0219 40.2605 10.0545 40.2437 10.0398C40.2421 10.0384 40.2287 10.0267 40.2125 10.0111C40.2086 10.0073 40.1806 9.98087 40.1487 9.94406C40.128 9.91934 40.0695 9.83948 40.0346 9.78255C39.9558 9.60557 40.0162 8.82967 40.4355 8.4059C40.7552 8.30033 41.1867 8.32981 41.2789 8.36191C41.3177 8.37856 41.3763 8.4075 41.3966 8.41865C41.4297 8.43735 41.4544 8.45396 41.4598 8.45753C41.4762 8.46851 41.4888 8.47767 41.4907 8.47906C41.5001 8.48586 41.5102 8.49347 41.5046 8.48931C41.503 8.48805 41.4985 8.48472 41.4926 8.48037C41.481 8.47181 41.4669 8.46174 41.4502 8.45017L40.3147 10.0966ZM44.4443 6.75424C44.1729 6.34253 43.8247 5.98703 43.4186 5.70722L42.2837 7.35404C42.478 7.48793 42.6447 7.65804 42.7745 7.85503L44.4443 6.75424ZM43.4404 5.72262C43.1789 5.532 42.8698 5.34957 42.6421 5.21425L41.6203 6.93351C41.8696 7.08169 42.0914 7.21426 42.262 7.33864L43.4404 5.72262ZM41.2741 5.5587L39.5348 8.4522L41.249 9.48256L42.9883 6.58906L41.2741 5.5587ZM44.2586 11.235C44.3891 11.0001 44.5587 10.6957 44.6888 10.4088L42.8675 9.58246C42.7772 9.78161 42.6498 10.0127 42.5103 10.2637L44.2586 11.235ZM44.6877 10.4112C44.835 10.0889 45.0186 9.60225 45.0471 8.99396L43.0493 8.90031C43.0373 9.15601 42.9599 9.38039 42.8686 9.58006L44.6877 10.4112ZM41.674 8.84669C41.6738 8.85055 41.673 8.86183 41.6656 8.88733C41.6636 8.89409 41.6607 8.90362 41.6564 8.91593C41.6544 8.92174 41.6512 8.93084 41.6467 8.94234C41.6447 8.9477 41.6409 8.95737 41.6358 8.96951C41.6333 8.97542 41.6289 8.9856 41.6231 8.99818C41.6201 9.00467 41.6054 9.03705 41.5829 9.07646C41.5767 9.08719 41.5412 9.15053 41.4823 9.2211C41.4621 9.24531 41.374 9.35195 41.2242 9.44067C41.1387 9.48584 40.9124 9.56042 40.7716 9.57854C40.5846 9.57166 40.2255 9.45231 40.0671 9.34209C39.9588 9.23484 39.8169 9.0206 39.7757 8.92396C39.7537 8.85658 39.7275 8.7393 39.7208 8.6904C39.7103 8.59503 39.7162 8.51989 39.7187 8.49165C39.7244 8.42726 39.7353 8.37788 39.7384 8.36416C39.7465 8.32718 39.7551 8.29888 39.7573 8.29152C39.761 8.27953 39.7641 8.26996 39.766 8.26427C39.7727 8.24414 39.7784 8.2294 39.78 8.22525C39.7848 8.21279 39.788 8.20545 39.7885 8.20431L41.6208 9.00595C41.6292 8.98681 41.6377 8.96654 41.6457 8.94588C41.6489 8.93764 41.6556 8.91999 41.6629 8.8981C41.665 8.89197 41.6682 8.88203 41.6719 8.86974C41.6742 8.86209 41.6829 8.83356 41.6911 8.79642C41.6941 8.78262 41.7051 8.73318 41.7108 8.66875C41.7133 8.64049 41.7192 8.56533 41.7086 8.46995C41.702 8.42104 41.6758 8.30375 41.6538 8.23637C41.6125 8.13973 41.4706 7.92549 41.3624 7.81823C41.204 7.70801 40.8449 7.58866 40.6578 7.58178C40.517 7.5999 40.2908 7.67448 40.2053 7.71965C40.0554 7.80838 39.9673 7.91502 39.9471 7.93925C39.8882 8.00985 39.8526 8.07323 39.8465 8.08402C39.8239 8.12356 39.809 8.15613 39.8059 8.16288C39.8 8.17572 39.7955 8.18623 39.7929 8.19254C39.7874 8.20547 39.7832 8.21621 39.7806 8.2229C39.7751 8.23707 39.7705 8.2499 39.7669 8.26048C39.7593 8.28231 39.7519 8.30548 39.7449 8.32969C39.7172 8.42494 39.686 8.56672 39.6768 8.74157L41.674 8.84669ZM39.8147 8.14904L39.7225 8.32904L41.5024 9.24123L41.5946 9.06123L39.8147 8.14904ZM39.7327 8.30961L39.5527 8.64261L41.3121 9.59365L41.4921 9.26065L39.7327 8.30961ZM39.9488 9.99339L42.9008 11.6246L43.8681 9.87413L40.9161 8.24288L39.9488 9.99339ZM41.6084 8.58463C41.6497 8.64939 41.6791 8.73694 41.6744 8.84013L39.6765 8.74814C39.6611 9.08319 39.7563 9.40022 39.9225 9.66064L41.6084 8.58463ZM45.0471 8.99313C45.0833 8.20738 44.8756 7.42967 44.4524 6.76663L42.7665 7.84264C42.9677 8.15785 43.0664 8.52758 43.0492 8.90114L45.0471 8.99313ZM39.3482 8.43945L39.5462 8.08845L37.8042 7.10581L37.6062 7.45681L39.3482 8.43945ZM39.5484 8.0845C39.5889 8.0119 39.6128 7.97475 39.6357 7.93813L37.9397 6.87813C37.9176 6.91351 37.8695 6.98887 37.802 7.10977L39.5484 8.0845ZM39.6197 7.96283C39.6192 7.9636 39.6151 7.96972 39.6076 7.97994C39.6046 7.98414 39.597 7.99432 39.5864 8.00764C39.5832 8.0116 39.569 8.02948 39.5492 8.05142C39.5475 8.05334 39.5099 8.09627 39.4558 8.14246C39.4397 8.15626 39.4083 8.18224 39.3659 8.21088C39.3399 8.22844 39.2338 8.30061 39.0778 8.34464C38.95 8.38071 38.3888 8.49119 38.0069 7.98316C37.9201 7.84579 37.8273 7.5867 37.8104 7.47461C37.8063 7.39839 37.8125 7.26963 37.8198 7.21748C37.8366 7.11738 37.8651 7.04293 37.8756 7.01611C37.8895 6.98082 37.9027 6.95328 37.9106 6.93731C37.9265 6.9054 37.9407 6.88122 37.9471 6.87041C37.9611 6.84697 37.973 6.82929 37.9775 6.8226C37.9883 6.80665 37.9971 6.79462 38.0009 6.78953C38.0098 6.77742 38.0171 6.76827 38.0214 6.76291C38.0307 6.75121 38.0383 6.74248 38.0438 6.73635C38.0649 6.71293 38.0771 6.70396 38.0828 6.7002L39.1865 8.36806C39.3452 8.26305 39.4587 8.15396 39.5304 8.07429C39.5486 8.0541 39.5656 8.03404 39.5814 8.01444C39.5889 8.00512 39.5985 7.99287 39.609 7.97859C39.6136 7.97242 39.623 7.95954 39.6342 7.94299C39.6389 7.93599 39.651 7.91807 39.6651 7.89445C39.6716 7.88356 39.6858 7.8593 39.7017 7.82733C39.7096 7.81133 39.7228 7.78377 39.7367 7.74846C39.7473 7.72162 39.7758 7.64715 39.7925 7.54703C39.7998 7.49488 39.806 7.36611 39.8019 7.28989C39.785 7.17779 39.6922 6.9187 39.6055 6.78133C39.2235 6.27329 38.6623 6.38377 38.5345 6.41985C38.3785 6.46388 38.2724 6.53605 38.2463 6.55363C38.2039 6.58228 38.1726 6.60827 38.1564 6.62209C38.1023 6.66835 38.0645 6.71143 38.0626 6.71356C38.0425 6.73591 38.0277 6.75447 38.0237 6.75938C38.0116 6.77462 38.0017 6.78781 37.9956 6.79621C37.9819 6.81483 37.9685 6.83411 37.9556 6.85343L39.6197 7.96283ZM36.226 3.88207C35.6863 4.23766 35.3507 4.67689 35.1476 4.98143L36.8117 6.09083C36.9417 5.89587 37.1011 5.70061 37.3263 5.55219L36.226 3.88207ZM35.1489 4.97957C34.9639 5.25568 34.7847 5.58671 34.6496 5.83155L36.4008 6.79771C36.5537 6.52056 36.685 6.28009 36.8105 6.09269L35.1489 4.97957ZM35.041 7.18961L37.993 8.82311L38.9613 7.07316L36.0093 5.43966L35.041 7.18961ZM40.8918 4.15956C40.6548 4.01696 40.3316 3.81826 40.0317 3.67102L39.1501 5.46624C39.3543 5.5665 39.589 5.7098 39.8606 5.8732L40.8918 4.15956ZM40.0529 3.68174C39.5916 3.44146 39.0863 3.29752 38.5676 3.25867L38.4183 5.25309C38.6664 5.27167 38.9082 5.34055 39.129 5.45552L40.0529 3.68174ZM38.3528 6.62833C38.3622 6.62892 38.3756 6.63094 38.3984 6.6382C38.4046 6.64017 38.4114 6.64248 38.4187 6.64516C38.4224 6.64653 38.4256 6.64774 38.4278 6.64859C38.4283 6.64876 38.4286 6.64888 38.4285 6.64886C38.4285 6.64885 38.4285 6.64884 38.4284 6.64881C38.4283 6.64879 38.4282 6.64875 38.4281 6.6487C38.4279 6.64861 38.4273 6.64841 38.4267 6.64817C38.4263 6.648 38.4221 6.64641 38.4171 6.6445C38.4146 6.64357 38.4088 6.64145 38.4016 6.63886C38.3987 6.63784 38.377 6.63002 38.3489 6.62178C38.3418 6.61969 38.2948 6.60552 38.2336 6.59515C38.1935 6.5892 38.0719 6.58114 37.9906 6.58403C37.7835 6.62208 37.2253 7.04071 37.0691 7.51194C37.0986 7.83155 37.2952 8.21736 37.3727 8.30109C37.4111 8.33624 37.4745 8.3869 37.4982 8.40378C37.5379 8.43127 37.571 8.4497 37.5785 8.45387C37.6009 8.46638 37.619 8.47532 37.622 8.47684C37.6285 8.48003 37.6336 8.48248 37.6359 8.48359C37.6406 8.48584 37.6444 8.48762 37.645 8.48787C37.6456 8.48816 37.6461 8.48841 37.6464 8.48853C37.6466 8.48864 37.6469 8.48878 37.647 8.48879C37.6472 8.48891 37.6466 8.48861 37.6457 8.4882C37.6448 8.48778 37.6438 8.48733 37.6429 8.48686C37.6386 8.48484 37.6367 8.48385 37.6373 8.48417L38.552 6.70559C38.533 6.69579 38.5168 6.68783 38.5033 6.68143C38.4966 6.6782 38.4914 6.6758 38.4892 6.67478C38.4853 6.67297 38.4918 6.67599 38.498 6.67893C38.5002 6.67999 38.5052 6.68239 38.5116 6.68555C38.5146 6.68703 38.5326 6.69594 38.5549 6.70843C38.5624 6.71259 38.5955 6.73101 38.6353 6.75849C38.6589 6.77537 38.7223 6.82603 38.7607 6.86118C38.8382 6.9449 39.0348 7.33072 39.0643 7.65032C38.9081 8.12155 38.3499 8.54018 38.1428 8.57823C38.0615 8.58112 37.94 8.57306 37.8998 8.56711C37.8386 8.55674 37.7916 8.54258 37.7845 8.54049C37.7565 8.53226 37.7349 8.52446 37.7321 8.52347C37.7248 8.52091 37.7192 8.51882 37.7169 8.51793C37.712 8.51611 37.7082 8.51463 37.7081 8.5146C37.7075 8.51438 37.7068 8.51409 37.7076 8.51442C37.7081 8.51459 37.709 8.51494 37.71 8.51536C37.7149 8.51722 37.7218 8.51986 37.7304 8.52301C37.7474 8.52925 37.7683 8.53652 37.7926 8.54425C37.888 8.57458 38.0387 8.6126 38.2281 8.62443L38.3528 6.62833ZM37.6689 8.4997C37.6636 8.49723 37.6685 8.49929 37.6876 8.5098C37.7062 8.52002 37.7342 8.53594 37.7744 8.55992L38.7974 6.84134C38.6936 6.77957 38.6026 6.7287 38.5205 6.69006L37.6689 8.4997ZM37.7986 8.57383C37.881 8.61983 37.9514 8.66489 38.1241 8.76749L39.1452 7.04778C39.03 6.97937 38.8844 6.88943 38.7733 6.82743L37.7986 8.57383ZM39.4913 8.4236L41.2328 5.53235L39.5196 4.50042L37.7781 7.39167L39.4913 8.4236ZM38.0887 6.69632C38.1573 6.65165 38.2495 6.62148 38.3565 6.62857L38.2244 8.6242C38.5743 8.64736 38.9081 8.54953 39.1806 8.37195L38.0887 6.69632ZM38.552 3.25763C37.729 3.20897 36.9125 3.42835 36.2248 3.88288L37.3276 5.55139C37.6545 5.3353 38.0427 5.23101 38.4339 5.25414L38.552 3.25763Z" fill="url(#paint1_linear_450_2950)" mask="url(#path-1-inside-1_450_2950)"/>
<path d="M22.5 22.3751L25.767 20.7416C26.8069 20.2211 27.9742 20.0095 29.1306 20.132C30.287 20.2544 31.3841 20.7057 32.292 21.4323C33.085 22.0668 34.0243 22.4927 35.0241 22.6711C36.0239 22.8496 37.0525 22.7749 38.016 22.4538L41.625 21.2501" fill="url(#paint2_linear_450_2950)"/>
<path d="M22.5 22.3751L25.767 20.7416C26.8069 20.2211 27.9742 20.0095 29.1306 20.132C30.287 20.2544 31.3841 20.7057 32.292 21.4323C33.085 22.0668 34.0243 22.4927 35.0241 22.6711C36.0239 22.8496 37.0525 22.7749 38.016 22.4538L41.625 21.2501" stroke="url(#paint3_linear_450_2950)" stroke-linecap="round"/>
<defs>
<linearGradient id="paint0_linear_450_2950" x1="22.7731" y1="28.3555" x2="30.0059" y2="28.3555" gradientUnits="userSpaceOnUse">
<stop stop-color="#0069B3"/>
<stop offset="1" stop-color="#FFD51E"/>
</linearGradient>
<linearGradient id="paint1_linear_450_2950" x1="22.7731" y1="28.3555" x2="30.0059" y2="28.3555" gradientUnits="userSpaceOnUse">
<stop stop-color="#0069B3"/>
<stop offset="1" stop-color="#FFD51E"/>
</linearGradient>
<linearGradient id="paint2_linear_450_2950" x1="29.8266" y1="21.4397" x2="33.8371" y2="21.4397" gradientUnits="userSpaceOnUse">
<stop stop-color="#0069B3"/>
<stop offset="1" stop-color="#FFD51E"/>
</linearGradient>
<linearGradient id="paint3_linear_450_2950" x1="29.8266" y1="21.4397" x2="33.8371" y2="21.4397" gradientUnits="userSpaceOnUse">
<stop stop-color="#0069B3"/>
<stop offset="1" stop-color="#FFD51E"/>
</linearGradient>
</defs>
</svg>
