<svg width="54" height="54" viewBox="0 0 54 54" fill="none" xmlns="http://www.w3.org/2000/svg">
<path d="M13.994 3.31063C13.9839 3.30975 13.9736 3.30989 13.9634 3.31105C13.9217 3.31612 13.8824 3.33742 13.816 3.37528C13.6831 3.45112 13.4769 3.64919 13.2845 3.95368C12.8998 4.56286 12.5892 5.55132 12.4918 6.30985C12.2805 7.95759 12.8525 8.80861 13.8938 9.62536C14.4212 10.0388 15.0789 10.3982 15.7832 10.7344C15.4425 9.29282 15.4469 7.85043 15.3896 6.63596C15.3454 5.69918 15.2597 4.89477 15.0619 4.35541C14.8665 3.82258 14.6523 3.551 14.1141 3.3408C14.0643 3.32434 14.0262 3.31316 13.994 3.31063ZM25.7234 4.5212C22.8287 4.53407 19.9441 4.64639 17.1286 4.81441C17.2225 5.37909 17.2583 5.95937 17.2859 6.54652C17.291 6.65304 17.2956 6.76009 17.3004 6.86683C19.5883 9.00658 20.8874 9.16721 22.0281 9.02736C22.6099 8.95595 23.1809 8.764 23.8348 8.60791C23.9426 8.58243 24.0509 8.55929 24.1597 8.53851C25.0542 7.66755 26.2552 6.99212 27.6763 6.42565C28.5233 6.0873 29.4319 5.93053 30.3434 5.96549C31.2056 5.99745 32.025 6.19436 32.7538 6.496C33.4392 6.77971 34.0529 7.14664 34.5697 7.57494C34.806 7.50955 35.0462 7.47707 35.2889 7.47296C36.0455 7.4603 36.8251 7.71448 37.5734 8.04091C38.7706 8.56319 39.9591 9.37319 40.9263 10.246C41.1503 10.4482 41.363 10.6489 41.5626 10.8511L43.252 10.5231L43.5294 10.3201C44.9226 9.30041 45.9322 8.12075 46.6945 7.00742C40.7184 5.2135 33.891 4.56476 27.032 4.52215C26.5958 4.51941 26.1596 4.5192 25.7235 4.5211L25.7234 4.5212ZM10.7458 5.28627C9.47698 5.39507 8.20863 5.50947 6.94081 5.62947C7.06041 6.81051 7.60189 7.91529 8.84515 9.06564L9.17949 9.37509L11.5344 9.88218C10.8218 8.8797 10.4122 7.59899 10.6087 6.06822C10.6413 5.81446 10.6867 5.55205 10.7458 5.28627ZM30.0516 7.85665C29.5068 7.86256 28.9439 7.96412 28.3793 8.18919C26.9191 8.77117 25.8399 9.4603 25.2229 10.1756C24.6059 10.8907 24.3882 11.575 24.5616 12.5358C24.5714 12.5896 24.5823 12.6425 24.5934 12.695L28.1359 13.4581L35.4829 12.0315C34.9784 11.4169 34.533 10.7639 34.1911 10.0498C33.9286 9.50144 33.1034 8.69555 32.0277 8.25037C31.4898 8.02772 30.9003 7.88386 30.284 7.85992C30.2066 7.85691 30.1291 7.85575 30.0516 7.85665ZM36.0734 9.52833C36.4331 10.0955 36.8359 10.6862 37.299 11.239C37.4114 11.3653 37.5257 11.4898 37.642 11.6124L39.2396 11.3023C38.4918 10.6927 37.6114 10.1289 36.8142 9.78103C36.5746 9.67671 36.3268 9.59219 36.0734 9.52833ZM17.6695 9.59098C17.7687 10.1932 17.9014 10.7638 18.0702 11.29L22.6248 12.2712C22.5986 11.7854 22.6493 11.2985 22.7748 10.8286C22.604 10.8622 22.4321 10.8899 22.2593 10.9116C21.0148 11.0642 19.4832 10.8128 17.6695 9.59098ZM9.69576 11.4284L8.81162 19.5034L18.746 19.7465C20.9962 17.7158 23.8724 16.4911 27.0231 16.4911C30.383 16.4911 33.4312 17.8839 35.7403 20.1619L43.9651 20.3631L43.4334 12.4219L28.1161 15.3959L9.69576 11.4284ZM27.0231 18.3895C20.8823 18.3895 15.8205 23.9519 15.8205 30.954C15.8205 37.9561 20.8823 43.5183 27.0231 43.5183C33.1638 43.5183 38.2257 37.956 38.2257 30.9539C38.2257 23.9518 33.1638 18.3895 27.0231 18.3895ZM7.99297 21.3822L7.33052 28.0105C6.74474 33.8702 8.19916 39.86 10.5244 45.8944L10.6995 46.3489L10.4326 46.7561C9.63132 47.9782 8.34608 49.0618 6.89282 50.0699C8.45028 50.2032 10.0316 50.3108 11.6302 50.397L14.0479 47.3378L15.5373 48.5149L13.9629 50.5072C15.4573 50.5683 16.9645 50.6123 18.4804 50.6419L18.5977 47.9235L20.4945 48.0054L20.3792 50.672C22.0707 50.6922 23.7709 50.6942 25.4729 50.6854V47.9823H27.3714V50.6718C29.1509 50.6535 30.9295 50.6236 32.7021 50.5855L32.291 48.0419L34.1651 47.7389L34.6182 50.5423C36.3519 50.5 38.0657 50.4503 39.7749 50.4003L38.3089 47.9514L39.9379 46.9763L41.9496 50.3372C43.6896 50.2851 45.4126 50.2332 47.1072 50.1854C45.7646 48.9443 44.4294 47.6299 43.6865 46.0236L43.5694 45.7702L43.6081 45.4936C43.6081 45.4936 44.9156 36.0394 44.9299 31.4747C44.9376 29.013 44.6951 25.5981 44.3873 22.2725L37.3784 22.1012C39.1017 24.5559 40.1241 27.633 40.1241 30.9539C40.1241 38.8786 34.3048 45.4168 27.0231 45.4168C19.7413 45.4168 13.9221 38.8786 13.9221 30.9539C13.9221 27.4044 15.0902 24.1337 17.0336 21.6034L7.99297 21.3822ZM33.045 25.7495C33.6972 25.7344 34.3355 25.9861 34.8465 26.3581C35.5733 26.8869 36.1471 27.6674 36.516 28.5835C37.2541 30.4158 37.05 32.9597 34.9063 34.6348C33.0425 36.0912 30.8647 36.358 28.8793 35.7365C28.6536 35.6652 28.4311 35.5844 28.2123 35.4944C26.8661 35.9089 25.3012 36.4505 23.6803 36.5182C21.9335 36.5912 20.0389 35.9552 18.7929 34.0504C18.2312 33.1919 17.7367 32.094 17.5752 30.9761C17.4944 30.4172 17.493 29.8414 17.6963 29.2765C17.8998 28.7116 18.3715 28.1765 19.0006 27.9276L19.0159 27.9217L19.0313 27.9162C19.38 27.7918 19.7465 27.7246 20.1166 27.7174C20.7976 27.704 21.4481 27.8922 21.9971 28.201C22.8335 28.6714 23.5082 29.3612 24.1806 30.0772C24.2536 30.155 24.3266 30.2334 24.3996 30.3116C27.5289 30.4526 28.6212 29.7308 29.3977 28.8835C29.7938 28.4513 30.1033 27.9348 30.499 27.3915C30.8948 26.8481 31.4163 26.2548 32.2197 25.9223C32.4816 25.8138 32.7614 25.7552 33.0449 25.7495H33.045ZM33.1518 27.6401C33.0812 27.6368 33.0108 27.6493 32.9456 27.6765C32.5977 27.8205 32.3539 28.0692 32.0335 28.5092C31.713 28.9491 31.3557 29.557 30.7973 30.1661C29.9501 31.0906 28.6222 31.8944 26.4494 32.1432C27.2039 32.7795 27.9717 33.297 28.7249 33.644L30.1118 34.0914C31.3604 34.3286 32.5294 34.0827 33.7373 33.139C35.2304 31.9722 35.2496 30.5199 34.7552 29.2928C34.5081 28.6792 34.1019 28.1642 33.7295 27.8931C33.485 27.7152 33.3001 27.646 33.1518 27.6401ZM20.2277 29.5912C20.0635 29.5935 19.8891 29.6294 19.687 29.6997C19.5512 29.7548 19.5322 29.7815 19.4824 29.9197C19.4307 30.0636 19.4026 30.3481 19.454 30.7047C19.5571 31.4177 19.9628 32.3711 20.3814 33.0109C21.2909 34.4012 22.2789 34.6769 23.6011 34.6217C24.2708 34.5936 25.0042 34.4396 25.7583 34.2377C24.5628 33.3628 23.6291 32.2632 22.7968 31.3768C22.1547 30.6932 21.5671 30.1372 21.0663 29.8555C20.816 29.7147 20.6059 29.6275 20.3886 29.6001C20.3352 29.5934 20.2815 29.5904 20.2277 29.5912Z" fill="#DB7310"/>
</svg>
