<svg width="40" height="40" viewBox="0 0 40 40" fill="none" xmlns="http://www.w3.org/2000/svg">
<path opacity="0.5" d="M3.33325 20.0002C3.33325 12.1435 3.33325 8.21516 5.77325 5.7735C8.21659 3.3335 12.1433 3.3335 19.9999 3.3335C27.8566 3.3335 31.7849 3.3335 34.2249 5.7735C36.6666 8.21683 36.6666 12.1435 36.6666 20.0002C36.6666 27.8568 36.6666 31.7852 34.2249 34.2252C31.7866 36.6668 27.8566 36.6668 19.9999 36.6668C12.1433 36.6668 8.21492 36.6668 5.77325 34.2252C3.33325 31.7868 3.33325 27.8568 3.33325 20.0002Z" stroke="black" stroke-width="2"/>
<path d="M24.1666 15.8335L15.8333 24.1668M15.8333 15.8335L24.1666 24.1668" stroke="black" stroke-width="2" stroke-linecap="round"/>
</svg>
