<svg width="246" height="205" viewBox="0 0 246 205" fill="none" xmlns="http://www.w3.org/2000/svg">
<path d="M2.84446 194V161.273H24.897V166.978H9.76385V174.776H23.7624V180.481H9.76385V188.295H24.9609V194H2.84446ZM37.2696 194.463C35.7036 194.463 34.308 194.192 33.0828 193.648C31.8577 193.094 30.8882 192.279 30.1744 191.203C29.4713 190.117 29.1198 188.764 29.1198 187.145C29.1198 185.781 29.3701 184.636 29.8708 183.709C30.3715 182.782 31.0534 182.036 31.9163 181.472C32.7792 180.907 33.7593 180.481 34.8566 180.193C35.9646 179.906 37.1258 179.703 38.3403 179.586C39.7678 179.437 40.9184 179.298 41.792 179.17C42.6656 179.032 43.2995 178.83 43.6936 178.563C44.0878 178.297 44.2849 177.903 44.2849 177.381V177.285C44.2849 176.273 43.9653 175.49 43.3261 174.936C42.6975 174.382 41.8026 174.105 40.6414 174.105C39.4163 174.105 38.4415 174.376 37.7171 174.92C36.9926 175.452 36.5132 176.124 36.2789 176.933L29.9827 176.422C30.3023 174.93 30.9308 173.641 31.8683 172.555C32.8058 171.457 34.015 170.616 35.4958 170.03C36.9873 169.433 38.7132 169.135 40.6734 169.135C42.037 169.135 43.3421 169.295 44.5885 169.614C45.8456 169.934 46.9589 170.429 47.9284 171.1C48.9085 171.772 49.6808 172.635 50.2455 173.689C50.8101 174.733 51.0924 175.985 51.0924 177.445V194H44.6365V190.596H44.4447C44.0505 191.363 43.5232 192.04 42.8627 192.626C42.2021 193.201 41.4085 193.654 40.4816 193.984C39.5548 194.304 38.4841 194.463 37.2696 194.463ZM39.2192 189.765C40.2206 189.765 41.1048 189.568 41.8719 189.174C42.6389 188.769 43.2409 188.226 43.6776 187.544C44.1144 186.862 44.3328 186.09 44.3328 185.227V182.622C44.1198 182.761 43.8268 182.888 43.4539 183.006C43.0917 183.112 42.6816 183.213 42.2235 183.309C41.7654 183.395 41.3073 183.474 40.8492 183.549C40.3911 183.613 39.9756 183.672 39.6027 183.725C38.8037 183.842 38.1059 184.028 37.5093 184.284C36.9127 184.54 36.4493 184.886 36.1191 185.323C35.7888 185.749 35.6237 186.282 35.6237 186.921C35.6237 187.848 35.9593 188.556 36.6304 189.046C37.3122 189.526 38.1752 189.765 39.2192 189.765ZM56.3738 194V169.455H62.9736V173.737H63.2293C63.6768 172.214 64.4278 171.063 65.4825 170.286C66.5372 169.497 67.7517 169.103 69.126 169.103C69.4669 169.103 69.8344 169.124 70.2286 169.167C70.6228 169.21 70.969 169.268 71.2673 169.343V175.383C70.9477 175.287 70.5056 175.202 69.941 175.127C69.3763 175.053 68.8596 175.016 68.3909 175.016C67.3895 175.016 66.4946 175.234 65.7062 175.671C64.9285 176.097 64.3106 176.694 63.8525 177.461C63.4051 178.228 63.1814 179.112 63.1814 180.113V194H56.3738ZM89.0732 169.455V174.568H74.2915V169.455H89.0732ZM77.6474 163.574H84.4549V186.457C84.4549 187.086 84.5508 187.576 84.7425 187.928C84.9343 188.268 85.2006 188.508 85.5415 188.647C85.8931 188.785 86.2979 188.854 86.756 188.854C87.0756 188.854 87.3952 188.828 87.7148 188.775C88.0344 188.711 88.2795 188.663 88.4499 188.631L89.5206 193.696C89.1797 193.803 88.7003 193.925 88.0824 194.064C87.4645 194.213 86.7134 194.304 85.8292 194.336C84.1886 194.4 82.7504 194.181 81.5146 193.68C80.2894 193.18 79.3359 192.402 78.6541 191.347C77.9723 190.293 77.6367 188.961 77.6474 187.352V163.574ZM100.843 179.81V194H94.035V161.273H100.651V173.785H100.938C101.492 172.336 102.387 171.202 103.623 170.381C104.859 169.55 106.409 169.135 108.273 169.135C109.978 169.135 111.464 169.508 112.732 170.254C114.01 170.989 115.001 172.049 115.704 173.434C116.418 174.808 116.769 176.454 116.759 178.371V194H109.951V179.586C109.962 178.073 109.578 176.896 108.801 176.054C108.034 175.213 106.958 174.792 105.573 174.792C104.646 174.792 103.825 174.989 103.112 175.383C102.409 175.777 101.855 176.353 101.45 177.109C101.056 177.855 100.853 178.755 100.843 179.81ZM132.659 194V161.273H139.578V174.776H153.625V161.273H160.528V194H153.625V180.481H139.578V194H132.659ZM177.291 194.479C174.767 194.479 172.593 193.968 170.771 192.945C168.96 191.912 167.565 190.452 166.585 188.567C165.605 186.67 165.115 184.428 165.115 181.839C165.115 179.314 165.605 177.098 166.585 175.191C167.565 173.284 168.944 171.798 170.724 170.733C172.513 169.668 174.612 169.135 177.02 169.135C178.639 169.135 180.146 169.396 181.542 169.918C182.948 170.429 184.173 171.202 185.218 172.235C186.272 173.268 187.093 174.568 187.678 176.134C188.264 177.69 188.557 179.511 188.557 181.599V183.469H167.831V179.25H182.149C182.149 178.27 181.936 177.402 181.51 176.646C181.084 175.889 180.493 175.298 179.736 174.872C178.991 174.435 178.122 174.217 177.132 174.217C176.098 174.217 175.182 174.456 174.383 174.936C173.595 175.404 172.977 176.038 172.529 176.837C172.082 177.626 171.853 178.505 171.842 179.474V183.485C171.842 184.7 172.066 185.749 172.513 186.633C172.971 187.517 173.616 188.199 174.447 188.679C175.278 189.158 176.263 189.398 177.403 189.398C178.16 189.398 178.852 189.291 179.481 189.078C180.109 188.865 180.647 188.545 181.095 188.119C181.542 187.693 181.883 187.171 182.117 186.553L188.414 186.969C188.094 188.482 187.439 189.803 186.448 190.932C185.468 192.05 184.2 192.924 182.645 193.553C181.1 194.17 179.316 194.479 177.291 194.479ZM193 194V169.455H199.6V173.737H199.855C200.303 172.214 201.054 171.063 202.108 170.286C203.163 169.497 204.378 169.103 205.752 169.103C206.093 169.103 206.46 169.124 206.855 169.167C207.249 169.21 207.595 169.268 207.893 169.343V175.383C207.574 175.287 207.132 175.202 206.567 175.127C206.002 175.053 205.486 175.016 205.017 175.016C204.015 175.016 203.121 175.234 202.332 175.671C201.555 176.097 200.937 176.694 200.479 177.461C200.031 178.228 199.807 179.112 199.807 180.113V194H193ZM221.361 194.479C218.878 194.479 216.732 193.952 214.921 192.897C213.12 191.832 211.73 190.351 210.75 188.455C209.77 186.548 209.28 184.337 209.28 181.823C209.28 179.288 209.77 177.072 210.75 175.175C211.73 173.268 213.12 171.788 214.921 170.733C216.732 169.668 218.878 169.135 221.361 169.135C223.843 169.135 225.984 169.668 227.785 170.733C229.596 171.788 230.991 173.268 231.971 175.175C232.951 177.072 233.441 179.288 233.441 181.823C233.441 184.337 232.951 186.548 231.971 188.455C230.991 190.351 229.596 191.832 227.785 192.897C225.984 193.952 223.843 194.479 221.361 194.479ZM221.392 189.206C222.522 189.206 223.465 188.886 224.221 188.247C224.977 187.597 225.547 186.713 225.931 185.594C226.325 184.476 226.522 183.203 226.522 181.775C226.522 180.348 226.325 179.075 225.931 177.956C225.547 176.837 224.977 175.953 224.221 175.303C223.465 174.653 222.522 174.328 221.392 174.328C220.253 174.328 219.294 174.653 218.516 175.303C217.749 175.953 217.168 176.837 216.774 177.956C216.391 179.075 216.199 180.348 216.199 181.775C216.199 183.203 216.391 184.476 216.774 185.594C217.168 186.713 217.749 187.597 218.516 188.247C219.294 188.886 220.253 189.206 221.392 189.206Z" fill="url(#paint0_linear_339_124)"/>
<path d="M116.5 142.281C154.435 142.281 185.187 111.529 185.187 73.5937C185.187 35.6587 154.435 4.90625 116.5 4.90625C78.5649 4.90625 47.8125 35.6587 47.8125 73.5937C47.8125 111.529 78.5649 142.281 116.5 142.281Z" fill="#1A9FFF"/>
<path d="M92.9746 56.0579C91.6901 41.7434 80.652 28.4043 75.2875 23.5275L72.334 20.9861C84.695 10.5784 100.341 4.88204 116.5 4.90633C131.707 4.90633 145.761 9.85183 157.136 18.2042C158.743 23.0879 155.679 33.288 152.465 38.1648C151.297 39.9301 148.66 42.1281 145.761 44.2093C139.236 48.9007 130.993 51.2154 126.803 59.8563C125.756 62.0318 125.553 64.5184 126.233 66.835C126.645 68.3461 126.92 69.9877 126.92 71.5882C126.934 76.7741 121.686 80.5175 116.5 80.4626C103.01 80.3183 94.1766 69.4451 92.9746 56.0579ZM126.37 116.702C133.157 103.912 155.776 103.912 155.776 103.912C179.349 103.665 182.536 89.3507 184.666 82.118C182.788 97.0996 176.028 111.046 165.432 121.802C154.836 132.559 140.993 139.526 126.041 141.629C123.822 136.958 121.198 126.449 126.37 116.702Z" fill="#2EA324"/>
<path d="M69.8906 96.8984C69.8906 96.8984 76.0234 95.6719 79.7031 95.6719H79.7034C83.3829 95.6719 85.836 95.6719 87.0625 99.3516C88.2891 103.031 82.1562 105.484 82.1562 105.484L87.0625 106.711C87.0625 106.711 102.617 104.667 103.843 105.484C105.07 106.302 107.914 107.447 107.914 110.391C107.914 113.334 105.461 114.888 104.234 115.297C104.234 115.297 108.806 115.696 110.367 117.75C111.562 119.322 111.807 120.693 111.594 122.656C111.263 125.705 105.461 128.789 105.461 128.789C105.461 128.789 110.367 131.242 107.914 133.695C105.461 136.148 106.174 136.582 105.461 138.602C104.648 140.905 105.544 142.673 104.234 144.734C102.95 146.756 99.3281 148.414 99.3281 148.414C96.875 149.232 90.9875 150.867 87.0625 150.867C83.1375 150.867 78.0677 150.049 76.0234 149.641L66.2109 148.414L56.3984 144.734L50.2656 138.602L46.5859 132.469L45.3594 122.656V117.75L47.8125 109.164C47.8125 109.164 50.6406 105.997 52.7188 104.258C57.3218 100.406 60.5884 98.9984 66.2109 96.8984C67.6299 96.3685 69.8906 96.8984 69.8906 96.8984Z" fill="white" stroke="white" stroke-width="2.45312"/>
<path d="M165.316 96.9257C165.316 96.9257 159.121 95.6719 155.405 95.6719H155.404C151.688 95.6719 149.21 95.6719 147.971 99.4333C146.732 103.195 152.927 105.702 152.927 105.702L147.971 106.956C147.971 106.956 132.261 104.867 131.022 105.702C129.783 106.538 126.91 107.709 126.91 110.718C126.91 113.727 129.388 115.315 130.627 115.733C130.627 115.733 126.009 116.141 124.432 118.241C123.225 119.848 122.978 121.249 123.193 123.256C123.527 126.373 129.388 129.525 129.388 129.525C129.388 129.525 124.432 132.033 126.91 134.54C129.388 137.048 128.668 137.491 129.388 139.556C130.209 141.91 129.303 143.717 130.627 145.825C131.924 147.891 135.582 149.586 135.582 149.586C138.06 150.422 144.007 149.586 147.971 149.586C151.936 149.586 157.056 151.258 159.121 150.84L168.016 148.414L176.602 144.734L182.66 139.556L185.138 133.695L190.094 123.256V118.241L187.616 109.464C187.616 109.464 184.759 106.226 182.66 104.449C178.011 100.511 174.712 100.272 169.032 98.125C167.599 97.5832 165.316 96.9257 165.316 96.9257Z" fill="white" stroke="white" stroke-width="2.45312"/>
<path d="M189.959 118.491C189.24 111.281 185.376 105.104 179.428 101.066C183.227 92.4067 185.189 83.0528 185.187 73.5962C185.187 35.6586 154.435 4.90625 116.5 4.90625C78.5648 4.90625 47.8125 35.6586 47.8125 73.5962C47.8125 83.3695 49.8903 92.6521 53.5724 101.066C47.6236 105.104 43.7599 111.279 43.0411 118.491C42.0599 128.355 46.5736 139.72 53.5405 144.918C61.496 150.855 79.708 154.132 97.5447 150.7C106.472 148.983 107.855 144.163 105.848 141.423C109.322 141.97 112.872 142.281 116.5 142.281C120.128 142.281 123.678 141.97 127.151 141.423C125.145 144.163 126.528 148.983 135.455 150.7C153.292 154.13 171.504 150.855 179.459 144.918C186.426 139.72 190.942 128.355 189.959 118.491ZM95.2559 147.482C77.3579 149.977 62.7741 147.394 55.8317 142.215C45.8451 134.76 39.8128 110.41 59.4329 101.191C68.3697 96.9917 82.8333 93.3684 84.9724 98.2967C88.0364 105.359 74.711 106.257 74.711 106.257C74.711 106.257 85.3919 107.798 101.033 105.958C105.299 105.462 108.36 110.663 103.307 113.663C98.889 116.285 84.0157 117.225 84.0157 117.225C84.0157 117.225 92.0202 117.48 103.383 116.541C112.531 115.778 113.348 126.11 101.283 127.521C96.637 128.065 84.0917 128.902 84.0917 128.902C84.0917 128.902 92.7415 130.523 101.676 129.265C109.656 128.141 109.3 136.229 97.9396 137.726C92.5305 138.44 83.9053 138.589 83.9053 138.589C83.9053 138.589 91.6523 139.924 95.8716 139.372C106.678 137.951 105.557 146.044 95.2559 147.482ZM109.563 135.719C110.978 133.288 110.33 130.487 108.135 129.285C117.302 126.49 114.771 115.331 107.598 114.953C113.08 111.335 108.417 102.425 101.806 103.532C96.166 104.476 86.3829 104.461 86.3829 104.461C86.3977 104.437 89.5303 103.201 88.738 99.0817C87.9162 94.8255 82.2543 88.8375 59.0208 98.1814C55.6723 90.4175 53.9452 82.0514 53.9453 73.5962C53.9453 39.1004 82.0066 11.0391 116.5 11.0391C150.993 11.0391 179.055 39.1004 179.055 73.5962C179.055 82.3269 177.227 90.6258 173.982 98.179C150.748 88.835 145.086 94.8231 144.264 99.0793C143.472 103.201 146.605 104.437 146.619 104.459C146.619 104.459 136.836 104.474 131.197 103.529C124.585 102.423 119.92 111.335 125.405 114.951C118.232 115.329 115.7 126.488 124.868 129.282C122.672 130.484 122.024 133.286 123.44 135.717C121.156 135.977 118.848 136.148 116.5 136.148C114.152 136.148 111.844 135.977 109.563 135.719ZM177.168 142.215C170.223 147.394 155.644 149.977 137.744 147.482C127.443 146.044 126.322 137.951 137.133 139.372C141.353 139.924 149.1 138.589 149.1 138.589C149.1 138.589 140.474 138.44 135.065 137.726C123.702 136.229 123.349 128.141 131.329 129.265C140.263 130.523 148.913 128.902 148.913 128.902C148.913 128.902 136.368 128.063 131.722 127.521C119.657 126.113 120.472 115.78 129.622 116.541C140.985 117.48 148.989 117.225 148.989 117.225C148.989 117.225 134.116 116.285 129.698 113.663C124.642 110.663 127.703 105.462 131.972 105.958C147.613 107.798 158.291 106.257 158.291 106.257C158.291 106.257 144.966 105.359 148.03 98.2967C150.169 93.3659 164.635 96.9917 173.569 101.191C193.19 110.41 187.157 134.76 177.168 142.215Z" fill="black"/>
<path d="M92.6965 51.919C93.9329 52.8365 95.6648 50.4471 95.0662 49.3947C89.0512 38.9665 81.9616 34.4699 75.8558 35.5444C69.7524 36.6189 64.6303 43.2717 62.5427 55.1277C62.344 56.3199 64.7873 57.9758 65.6385 56.6903C68.8374 51.8528 73.2457 49.38 78.1421 48.5141C83.0484 47.6481 88.038 48.4675 92.6965 51.919ZM113.303 48.2859C116.502 43.4484 120.905 40.9756 125.811 40.1072C130.717 39.2413 135.702 40.0631 140.363 43.5146C141.6 44.4321 143.336 42.0427 142.738 40.9903C136.718 30.5646 129.633 26.0631 123.527 27.14C117.424 28.2145 112.302 34.8673 110.214 46.7233C110.003 47.918 112.452 49.5714 113.303 48.2859ZM137.966 72.8834C138.985 70.2708 136.627 68.0508 134.77 69.9053C119.271 85.3453 99.6438 88.7331 79.9157 79.5755C77.5411 78.4692 76.0815 81.3614 77.9311 83.4662C84.8416 91.3481 97.0361 97.2896 110.889 94.8487C124.737 92.4078 134.164 82.6567 137.966 72.8834Z" fill="black"/>
<defs>
<linearGradient id="paint0_linear_339_124" x1="123" y1="151" x2="123" y2="205" gradientUnits="userSpaceOnUse">
<stop offset="0.216667" stop-color="#31D642"/>
<stop offset="0.878125" stop-color="#2B578B"/>
</linearGradient>
</defs>
</svg>
