<svg width="232" height="34" viewBox="0 0 232 34" fill="none" xmlns="http://www.w3.org/2000/svg">
<path d="M0.84446 33V0.272726H22.897V5.97763H7.76385V13.7759H21.7624V19.4808H7.76385V27.2951H22.9609V33H0.84446ZM35.2696 33.4634C33.7036 33.4634 32.308 33.1918 31.0828 32.6484C29.8577 32.0945 28.8882 31.2795 28.1744 30.2035C27.4713 29.1168 27.1198 27.7638 27.1198 26.1445C27.1198 24.7809 27.3701 23.6357 27.8708 22.7088C28.3715 21.782 29.0534 21.0362 29.9163 20.4716C30.7792 19.907 31.7593 19.4808 32.8566 19.1932C33.9646 18.9055 35.1258 18.7031 36.3403 18.5859C37.7678 18.4368 38.9184 18.2983 39.792 18.1705C40.6656 18.032 41.2995 17.8295 41.6936 17.5632C42.0878 17.2969 42.2849 16.9027 42.2849 16.3807V16.2848C42.2849 15.2727 41.9653 14.4897 41.3261 13.9357C40.6975 13.3817 39.8026 13.1048 38.6414 13.1048C37.4163 13.1048 36.4415 13.3764 35.7171 13.9197C34.9926 14.4524 34.5132 15.1236 34.2789 15.9332L27.9827 15.4219C28.3023 13.9304 28.9308 12.6413 29.8683 11.5547C30.8058 10.4574 32.015 9.61577 33.4958 9.02983C34.9873 8.43324 36.7132 8.13494 38.6734 8.13494C40.037 8.13494 41.3421 8.29474 42.5885 8.61435C43.8456 8.93395 44.9589 9.42933 45.9284 10.1005C46.9085 10.7717 47.6808 11.6346 48.2455 12.6893C48.8101 13.7333 49.0924 14.9851 49.0924 16.4446V33H42.6365V29.5962H42.4447C42.0505 30.3633 41.5232 31.0398 40.8627 31.6257C40.2021 32.201 39.4085 32.6538 38.4816 32.984C37.5548 33.3036 36.4841 33.4634 35.2696 33.4634ZM37.2192 28.7653C38.2206 28.7653 39.1048 28.5682 39.8719 28.174C40.6389 27.7692 41.2409 27.2259 41.6776 26.544C42.1144 25.8622 42.3328 25.0898 42.3328 24.2269V21.6222C42.1198 21.7607 41.8268 21.8885 41.4539 22.0057C41.0917 22.1122 40.6816 22.2134 40.2235 22.3093C39.7654 22.3945 39.3073 22.4744 38.8492 22.549C38.3911 22.6129 37.9756 22.6715 37.6027 22.7248C36.8037 22.842 36.1059 23.0284 35.5093 23.2841C34.9127 23.5398 34.4493 23.886 34.1191 24.3228C33.7888 24.7489 33.6237 25.2816 33.6237 25.9208C33.6237 26.8477 33.9593 27.5561 34.6304 28.0462C35.3122 28.5256 36.1752 28.7653 37.2192 28.7653ZM54.3738 33V8.45454H60.9736V12.7372H61.2293C61.6768 11.2138 62.4278 10.0632 63.4825 9.28551C64.5372 8.49716 65.7517 8.10298 67.126 8.10298C67.4669 8.10298 67.8344 8.12429 68.2286 8.1669C68.6228 8.20952 68.969 8.26811 69.2673 8.34268V14.3832C68.9477 14.2873 68.5056 14.2021 67.941 14.1275C67.3763 14.0529 66.8596 14.0156 66.3909 14.0156C65.3895 14.0156 64.4946 14.234 63.7062 14.6708C62.9285 15.0969 62.3106 15.6935 61.8525 16.4606C61.4051 17.2276 61.1814 18.1119 61.1814 19.1133V33H54.3738ZM87.0732 8.45454V13.5682H72.2915V8.45454H87.0732ZM75.6474 2.57386H82.4549V25.4574C82.4549 26.0859 82.5508 26.576 82.7425 26.9276C82.9343 27.2685 83.2006 27.5082 83.5415 27.6467C83.8931 27.7852 84.2979 27.8544 84.756 27.8544C85.0756 27.8544 85.3952 27.8278 85.7148 27.7745C86.0344 27.7106 86.2795 27.6626 86.4499 27.6307L87.5206 32.6964C87.1797 32.8029 86.7003 32.9254 86.0824 33.0639C85.4645 33.2131 84.7134 33.3036 83.8292 33.3356C82.1886 33.3995 80.7504 33.1811 79.5146 32.6804C78.2894 32.1797 77.3359 31.402 76.6541 30.3473C75.9723 29.2926 75.6367 27.9609 75.6474 26.3523V2.57386ZM98.8425 18.8097V33H92.035V0.272726H98.6507V12.7852H98.9384C99.4924 11.3363 100.387 10.2017 101.623 9.38139C102.859 8.55043 104.409 8.13494 106.273 8.13494C107.978 8.13494 109.464 8.50781 110.732 9.25355C112.01 9.98864 113.001 11.0486 113.704 12.4336C114.418 13.8079 114.769 15.4538 114.759 17.3714V33H107.951V18.5859C107.962 17.0732 107.578 15.896 106.801 15.0543C106.034 14.2127 104.958 13.7919 103.573 13.7919C102.646 13.7919 101.825 13.989 101.112 14.3832C100.409 14.7773 99.8546 15.3526 99.4498 16.109C99.0556 16.8548 98.8532 17.755 98.8425 18.8097ZM130.659 33V0.272726H137.578V13.7759H151.625V0.272726H158.528V33H151.625V19.4808H137.578V33H130.659ZM175.291 33.4794C172.767 33.4794 170.593 32.968 168.771 31.9453C166.96 30.9119 165.565 29.4524 164.585 27.5668C163.605 25.6705 163.115 23.4279 163.115 20.8391C163.115 18.3143 163.605 16.0984 164.585 14.1914C165.565 12.2844 166.944 10.7983 168.724 9.73295C170.513 8.66761 172.612 8.13494 175.02 8.13494C176.639 8.13494 178.146 8.39595 179.542 8.91797C180.948 9.42933 182.173 10.2017 183.218 11.2351C184.272 12.2685 185.093 13.5682 185.678 15.1342C186.264 16.6896 186.557 18.5114 186.557 20.5994V22.4691H165.831V18.2504H180.149C180.149 17.2702 179.936 16.402 179.51 15.6456C179.084 14.8892 178.493 14.2979 177.736 13.8718C176.991 13.435 176.122 13.2166 175.132 13.2166C174.098 13.2166 173.182 13.4563 172.383 13.9357C171.595 14.4045 170.977 15.0384 170.529 15.8374C170.082 16.6257 169.853 17.5046 169.842 18.4741V22.4851C169.842 23.6996 170.066 24.7489 170.513 25.6332C170.971 26.5174 171.616 27.1992 172.447 27.6786C173.278 28.158 174.263 28.3977 175.403 28.3977C176.16 28.3977 176.852 28.2912 177.481 28.0781C178.109 27.8651 178.647 27.5455 179.095 27.1193C179.542 26.6932 179.883 26.1712 180.117 25.5533L186.414 25.9688C186.094 27.4815 185.439 28.8026 184.448 29.9318C183.468 31.0504 182.2 31.924 180.645 32.5526C179.1 33.1705 177.316 33.4794 175.291 33.4794ZM191 33V8.45454H197.6V12.7372H197.855C198.303 11.2138 199.054 10.0632 200.108 9.28551C201.163 8.49716 202.378 8.10298 203.752 8.10298C204.093 8.10298 204.46 8.12429 204.855 8.1669C205.249 8.20952 205.595 8.26811 205.893 8.34268V14.3832C205.574 14.2873 205.132 14.2021 204.567 14.1275C204.002 14.0529 203.486 14.0156 203.017 14.0156C202.015 14.0156 201.121 14.234 200.332 14.6708C199.555 15.0969 198.937 15.6935 198.479 16.4606C198.031 17.2276 197.807 18.1119 197.807 19.1133V33H191ZM219.361 33.4794C216.878 33.4794 214.732 32.9521 212.921 31.8974C211.12 30.832 209.73 29.3512 208.75 27.4549C207.77 25.5479 207.28 23.3374 207.28 20.8232C207.28 18.2876 207.77 16.0717 208.75 14.1754C209.73 12.2685 211.12 10.7876 212.921 9.73295C214.732 8.66761 216.878 8.13494 219.361 8.13494C221.843 8.13494 223.984 8.66761 225.785 9.73295C227.596 10.7876 228.991 12.2685 229.971 14.1754C230.951 16.0717 231.441 18.2876 231.441 20.8232C231.441 23.3374 230.951 25.5479 229.971 27.4549C228.991 29.3512 227.596 30.832 225.785 31.8974C223.984 32.9521 221.843 33.4794 219.361 33.4794ZM219.392 28.206C220.522 28.206 221.465 27.8864 222.221 27.2472C222.977 26.5973 223.547 25.7131 223.931 24.5945C224.325 23.4759 224.522 22.2028 224.522 20.7752C224.522 19.3477 224.325 18.0746 223.931 16.956C223.547 15.8374 222.977 14.9531 222.221 14.3033C221.465 13.6534 220.522 13.3285 219.392 13.3285C218.253 13.3285 217.294 13.6534 216.516 14.3033C215.749 14.9531 215.168 15.8374 214.774 16.956C214.391 18.0746 214.199 19.3477 214.199 20.7752C214.199 22.2028 214.391 23.4759 214.774 24.5945C215.168 25.7131 215.749 26.5973 216.516 27.2472C217.294 27.8864 218.253 28.206 219.392 28.206Z" fill="url(#paint0_linear_70_200)"/>
<defs>
<linearGradient id="paint0_linear_70_200" x1="121" y1="-10" x2="121" y2="44" gradientUnits="userSpaceOnUse">
<stop offset="0.154167" stop-color="#2B578B"/>
<stop offset="1" stop-color="#31D642"/>
</linearGradient>
</defs>
</svg>
