<svg width="54" height="54" viewBox="0 0 54 54" fill="none" xmlns="http://www.w3.org/2000/svg">
<path d="M30.8572 25.0718C30.8572 17.6159 24.813 11.5718 17.3572 11.5718C9.90133 11.5718 3.85718 17.6159 3.85718 25.0718V38.5718C3.85718 46.0276 9.90133 52.0718 17.3572 52.0718C24.813 52.0718 30.8572 46.0276 30.8572 38.5718V25.0718Z" stroke="black" stroke-width="2.07143" stroke-linecap="round" stroke-linejoin="round"/>
<path d="M3.85718 27.0001H30.8572M17.3572 27.0001V10.6073C17.3572 8.30558 18.2715 6.09815 19.8991 4.47061C21.5266 2.84306 23.734 1.92871 26.0357 1.92871C28.3374 1.92871 30.5449 2.84306 32.1724 4.47061C33.8 6.09815 34.7143 8.30558 34.7143 10.6073V11.5716C34.7143 13.6175 35.5271 15.5797 36.9738 17.0264C38.4205 18.4731 40.3826 19.2859 42.4286 19.2859C44.4746 19.2859 46.4367 18.4731 47.8834 17.0264C49.3301 15.5797 50.1429 13.6175 50.1429 11.5716V5.78585" stroke="black" stroke-width="2.07143" stroke-linecap="round" stroke-linejoin="round"/>
</svg>
