<svg width="54" height="54" viewBox="0 0 54 54" fill="none" xmlns="http://www.w3.org/2000/svg">
<g clip-path="url(#clip0_450_2984)">
<path d="M30.8572 26.0718C30.8572 18.6159 24.813 12.5718 17.3572 12.5718C9.90133 12.5718 3.85718 18.6159 3.85718 26.0718V39.5718C3.85718 47.0276 9.90133 53.0718 17.3572 53.0718C24.813 53.0718 30.8572 47.0276 30.8572 39.5718V26.0718Z" fill="#5F3F5C" stroke="black" stroke-width="2.07143" stroke-linecap="round" stroke-linejoin="round"/>
<path d="M3.85718 28.0001H30.8572M17.3572 28.0001V11.6073C17.3572 9.30558 18.2715 7.09815 19.8991 5.47061C21.5266 3.84306 23.734 2.92871 26.0357 2.92871C28.3374 2.92871 30.5449 3.84306 32.1724 5.47061C33.8 7.09815 34.7143 9.30558 34.7143 11.6073V12.5716C34.7143 14.6175 35.5271 16.5797 36.9738 18.0264C38.4205 19.4731 40.3826 20.2859 42.4286 20.2859C44.4746 20.2859 46.4367 19.4731 47.8834 18.0264C49.3301 16.5797 50.1429 14.6175 50.1429 12.5716V6.78585" stroke="black" stroke-width="2.07143" stroke-linecap="round" stroke-linejoin="round"/>
</g>
<defs>
<clipPath id="clip0_450_2984">
<rect width="54" height="54" fill="white"/>
</clipPath>
</defs>
</svg>
