<svg width="52" height="52" viewBox="0 0 52 52" fill="none" xmlns="http://www.w3.org/2000/svg">
<path d="M46.5132 19.6804C47.3038 17.5451 47.5321 15.509 46.9642 13.6817C46.7026 13.7053 46.4312 13.7174 46.1533 13.7174C37.8317 13.7174 23.1238 3.25488 22.0107 1.625C17.4241 8.30619 7.81062 13.4428 3.46537 19.2034C1.70712 21.5345 0.827992 23.2692 2.5773 25.9358L20.8984 49.4764C21.7247 50.5952 23.344 50.6862 24.4969 49.6543C24.4969 49.6543 39.5217 30.3745 50.3759 24.4091C49.5601 22.8158 48.2024 21.2257 46.5132 19.6804ZM20.5791 44.4876L20.5027 44.5404L20.4336 44.6006C20.1536 44.8517 19.9048 45.1357 19.6926 45.4464L3.81799 25.0502C2.6748 23.2814 2.99899 22.3503 4.68168 20.1208C6.59024 17.5914 9.64037 15.1361 12.8701 12.5369C16.2273 9.8345 19.6853 7.0525 22.2252 3.887C26.4177 7.33687 38.1445 14.9541 45.7324 15.2327C46.6424 24.1678 28.1158 39.2308 20.5791 44.4876Z" fill="black"/>
<path d="M16.2444 11.5034L36.7234 27.5503L37.4531 26.897L16.7774 11.0256L16.2444 11.5034ZM22.9182 20.0452L14.5365 13.0317C14.5365 13.0317 11.6196 14.8939 8.08687 18.9784L15.5229 26.6663L22.9182 20.0452ZM4.55493 22.7988L20.3727 42.1858L23.2936 39.572L6.42937 20.2906C6.42937 20.2906 4.95956 21.086 4.55493 22.7988ZM22.2788 23.9103L31.4674 32.2546L34.3867 29.6408L24.8195 21.6361L22.2788 23.9103ZM17.1974 28.4594L25.6287 37.4814L28.5472 34.8684L19.7381 26.1853L17.1974 28.4594ZM22.6339 8.73925L21.3948 12.2184L22.1716 12.7839L26.1162 9.25194L25.3444 8.76606L22.6266 11.1995L23.8282 7.80812L23.0222 7.2995L19.2628 10.6649L19.9364 11.1548L22.6339 8.73925ZM26.0098 15.5829L26.7622 14.9077L24.4669 13.2762L25.5077 12.3451L27.5462 13.741L28.2702 13.0918L26.2089 11.7154L27.0685 10.9468L29.3508 12.4231L30.0918 11.7609L26.9361 9.76869L22.9402 13.3461L26.0098 15.5829ZM28.4546 17.3639L31.5738 15.4749L32.5951 14.8281L31.9175 15.704L29.9106 18.4267L30.8799 19.1328L36.8827 16.0461L35.7436 15.327L32.4521 17.2104L31.612 17.719L32.1759 16.9772L34.1267 14.3065L33.0314 13.6159L29.9886 15.5017L29.1802 16.0127L29.7367 15.3051L31.5795 12.6994L30.5525 12.051L27.5779 16.7253L28.4546 17.3639ZM39.737 17.6353C38.9984 17.1714 38.3086 16.9496 37.6635 16.9626C37.0232 16.9764 36.4984 17.1689 36.0848 17.5394C35.6306 17.9457 35.4779 18.3674 35.6274 18.8045C35.7151 19.0669 35.9946 19.4464 36.4716 19.9485L36.9647 20.4669C37.2589 20.7724 37.4482 21.0226 37.5311 21.2144C37.6123 21.4086 37.5725 21.5784 37.4124 21.7214C37.1386 21.9659 36.7819 22.0122 36.344 21.8628C36.0717 21.7595 35.8152 21.6186 35.5819 21.4443C35.1187 21.1144 34.8937 20.7968 34.8994 20.4904C34.9026 20.3231 34.9944 20.1313 35.174 19.9152L34.1088 19.1726C33.6286 19.6024 33.4466 20.0818 33.5669 20.6139C33.6879 21.151 34.0999 21.6807 34.8149 22.2024C35.5274 22.7248 36.2367 23.0043 36.9339 23.0352C37.6383 23.0653 38.2184 22.88 38.6653 22.4778C39.1041 22.0862 39.2601 21.6653 39.1349 21.2176C39.0553 20.9308 38.8319 20.5969 38.4711 20.2166L37.6627 19.3635C37.3547 19.0418 37.1711 18.8183 37.1086 18.6908C37.0111 18.4966 37.046 18.3251 37.2142 18.1756C37.397 18.0115 37.631 17.9449 37.917 17.9733C38.2071 18.0017 38.5093 18.1179 38.8254 18.3211C39.1122 18.5063 39.3145 18.6981 39.4274 18.8963C39.6021 19.1953 39.5534 19.4837 39.2852 19.7576L40.4853 20.5481C40.9842 20.0671 41.1402 19.5577 40.9541 19.0223C40.7721 18.4917 40.3651 18.0286 39.737 17.6353Z" fill="black"/>
</svg>
