<svg width="50" height="50" viewBox="0 0 50 50" fill="none" xmlns="http://www.w3.org/2000/svg">
<path opacity="0.3" d="M24.9999 22.9167L41.6666 12.5H8.33325L24.9999 22.9167ZM8.33325 16.6667V37.5H41.6666V16.6667L24.9999 27.0833L8.33325 16.6667Z" fill="#2EA324"/>
<path d="M41.6668 8.3335H8.33342C6.04175 8.3335 4.16675 10.2085 4.16675 12.5002V37.5002C4.16675 39.7918 6.04175 41.6668 8.33342 41.6668H41.6668C43.9584 41.6668 45.8334 39.7918 45.8334 37.5002V12.5002C45.8334 10.2085 43.9584 8.3335 41.6668 8.3335ZM41.6668 37.5002H8.33342V16.6668L25.0001 27.0835L41.6668 16.6668V37.5002ZM25.0001 22.9168L8.33342 12.5002H41.6668L25.0001 22.9168Z" fill="#204E95"/>
<path d="M46.196 36.5869L42.4196 40.3725L41.7075 39.6605L45.6031 35.774L45.9575 35.4205L45.6036 35.0665L44.6436 34.1065L44.2912 33.7542L43.9377 34.1053L42.8712 35.1642L39.8276 32.1205L43.3131 28.6441L43.3136 28.6436C43.5136 28.4436 43.8395 28.4573 44.0073 28.6342L44.0071 28.6343L44.0164 28.6436L46.3564 30.9836L46.3563 30.9837L46.3659 30.9928C46.5427 31.1606 46.5565 31.4865 46.3564 31.6865L46.3439 31.699C46.183 31.8599 45.9951 32.0478 45.8481 32.2414C45.7034 32.432 45.5451 32.6945 45.5308 33.0095C45.5046 33.3525 45.6733 33.6371 45.8141 33.8243C45.9596 34.0178 46.1491 34.2013 46.3001 34.3476L46.3056 34.3529C46.3376 34.3862 46.3688 34.4186 46.3993 34.4501C46.6079 34.6665 46.7803 34.8454 46.9107 35.0214C47.0608 35.224 47.0935 35.3445 47.0904 35.4197C47.0869 35.5068 47.0327 35.6542 46.8578 35.881C46.6888 36.1001 46.4595 36.3286 46.2 36.583L46.1999 36.583L46.196 36.5869ZM32.5427 45.5001H29.5V42.457L38.5602 33.3874L41.6031 36.4302L32.5427 45.5001Z" fill="#E7D089" stroke="black"/>
</svg>
