<svg width="44" height="44" viewBox="0 0 44 44" fill="none" xmlns="http://www.w3.org/2000/svg">
<path d="M15.3945 20.5975C15.7521 20.526 16.0667 20.3154 16.269 20.012C16.4714 19.7086 16.5449 19.3372 16.4734 18.9796C16.4019 18.622 16.1913 18.3074 15.8879 18.105C15.5845 17.9027 15.2131 17.8292 14.8555 17.9007C13.2 18.2307 11.9497 19.3893 11.2842 20.9422C10.6242 22.4785 10.527 24.3998 11.0422 26.4568C11.0824 26.6356 11.158 26.8045 11.2644 26.9537C11.3708 27.1029 11.506 27.2292 11.662 27.3254C11.818 27.4216 11.9916 27.4856 12.1727 27.5137C12.3538 27.5418 12.5387 27.5334 12.7165 27.4891C12.8943 27.4447 13.0614 27.3653 13.2081 27.2554C13.3547 27.1455 13.4779 27.0075 13.5704 26.8493C13.663 26.6911 13.723 26.516 13.7469 26.3344C13.7708 26.1527 13.7581 25.9681 13.7097 25.7913C13.3063 24.1817 13.4383 22.8947 13.8105 22.0257C14.1772 21.1713 14.7602 20.7258 15.3945 20.5975ZM10.0302 6.26817C9.95193 7.56978 10.1425 8.87356 10.5901 10.0983C11.0377 11.323 11.7326 12.4425 12.6317 13.387C10.8852 13.8878 9.32152 14.8846 8.13045 16.2566C6.93938 17.6286 6.17209 19.3168 5.92167 21.1163C5.31822 25.4342 6.20413 29.8288 8.43333 33.5757L9.075 34.6573C9.09932 34.6971 9.12563 34.7357 9.15383 34.7728L11.7498 38.2672C12.2997 39.0078 13.0043 39.6196 13.8148 40.0601C14.6252 40.5006 15.5219 40.7592 16.4424 40.8178C17.3629 40.8765 18.2852 40.7338 19.1449 40.3996C20.0047 40.0655 20.7813 39.548 21.4207 38.8832C21.4954 38.8054 21.5851 38.7436 21.6843 38.7013C21.7836 38.6591 21.8903 38.6373 21.9982 38.6373C22.106 38.6373 22.2128 38.6591 22.312 38.7013C22.4112 38.7436 22.5009 38.8054 22.5757 38.8832C23.215 39.548 23.9916 40.0655 24.8514 40.3996C25.7111 40.7338 26.6334 40.8765 27.5539 40.8178C28.4745 40.7592 29.3712 40.5006 30.1816 40.0601C30.992 39.6196 31.6967 39.0078 32.2465 38.2672L34.8425 34.771C34.8701 34.7338 34.8958 34.6953 34.9195 34.6555L35.563 33.5738C37.7937 29.8282 38.6815 25.4342 38.0802 21.1163C37.9027 19.844 37.4659 18.6217 36.7969 17.525C36.1279 16.4283 35.2409 15.4806 34.1909 14.7406C33.1408 14.0006 31.95 13.484 30.6922 13.2228C29.4344 12.9615 28.1364 12.9613 26.8785 13.222L23.3933 13.9443H23.3878C23.4428 12.5143 23.6665 10.9743 24.1047 9.658C24.6363 8.06667 25.3733 7.10967 26.1947 6.76867C26.5314 6.62815 26.7985 6.35962 26.9372 6.02217C27.0759 5.68471 27.0749 5.30596 26.9344 4.96925C26.7939 4.63254 26.5254 4.36543 26.1879 4.2267C25.8505 4.08797 25.4717 4.08898 25.135 4.2295C23.2063 5.03433 22.11 6.94283 21.4958 8.78717L21.4115 9.0475C20.96 8.17511 20.3769 7.37744 19.6827 6.6825C18.7319 5.73062 17.5897 4.99159 16.3318 4.51434C15.0739 4.03709 13.7289 3.83252 12.386 3.91417C11.7731 3.94944 11.1945 4.20843 10.76 4.642C10.3254 5.07556 10.065 5.65356 10.0283 6.26633L10.0302 6.26817ZM12.7673 6.64767C13.6873 6.62111 14.603 6.78308 15.4581 7.12358C16.3131 7.46409 17.0895 7.97595 17.7393 8.62767C18.391 9.27754 18.9029 10.0539 19.2434 10.9089C19.5839 11.764 19.7459 12.6797 19.7193 13.5997C19.3868 13.6087 19.0541 13.5934 18.7238 13.5538L17.5927 13.3192C16.5175 12.9984 15.5395 12.4142 14.7473 11.6197C14.0956 10.9698 13.5838 10.1934 13.2433 9.33839C12.9027 8.48333 12.7408 7.56765 12.7673 6.64767ZM16.5605 15.9133L16.9308 15.9903C17.3708 16.115 17.8182 16.2085 18.2692 16.269L20.0475 16.6357C21.3355 16.9025 22.6645 16.9025 23.9525 16.6357L27.4395 15.9133C28.3289 15.729 29.2468 15.7292 30.1361 15.9139C31.0255 16.0987 31.8675 16.464 32.6099 16.9873C33.3524 17.5107 33.9795 18.1808 34.4524 18.9563C34.9254 19.7318 35.2341 20.5962 35.3595 21.4958C35.8743 25.195 35.1132 28.9591 33.2017 32.1677L32.5948 33.1888L30.041 36.6282C29.7293 37.048 29.3299 37.3948 28.8705 37.6445C28.4111 37.8942 27.9028 38.0407 27.381 38.0739C26.8592 38.107 26.3364 38.026 25.8491 37.8365C25.3618 37.647 24.9216 37.3535 24.5593 36.9765C24.2281 36.6318 23.8307 36.3576 23.3909 36.1702C22.9511 35.9829 22.478 35.8864 22 35.8864C21.522 35.8864 21.0489 35.9829 20.6091 36.1702C20.1693 36.3576 19.7719 36.6318 19.4407 36.9765C19.0784 37.3535 18.6382 37.647 18.1509 37.8365C17.6636 38.026 17.1408 38.107 16.619 38.0739C16.0972 38.0407 15.5889 37.8942 15.1295 37.6445C14.6701 37.3948 14.2707 37.048 13.959 36.6282L11.4052 33.1888L10.7983 32.1677C8.88742 28.9589 8.12696 25.1948 8.64233 21.4958C8.76774 20.5964 9.07641 19.7322 9.54925 18.9569C10.0221 18.1815 10.649 17.5114 11.3913 16.9881C12.1335 16.4648 12.9753 16.0994 13.8644 15.9146C14.7536 15.7297 15.6712 15.7293 16.5605 15.9133Z" fill="black"/>
</svg>
