<svg width="55" height="55" viewBox="0 0 55 55" fill="none" xmlns="http://www.w3.org/2000/svg">
<path d="M19.25 9.625C19.2496 10.4569 19.5007 11.2694 19.9704 11.956C20.44 12.6426 21.1063 13.1711 21.8817 13.4723C21.5627 14.8665 20.6058 15.8977 19.14 17.4102L19.1373 17.4158C18.8485 17.71 18.5433 18.0235 18.2325 18.3535C15.51 20.592 13.75 23.8452 13.75 27.5C13.75 27.7585 13.7583 28.017 13.7775 28.27C13.7583 28.4707 13.75 28.6715 13.75 28.875V42.625C13.75 43.8318 14.0677 45.0173 14.6711 46.0624C15.2746 47.1075 16.1424 47.9754 17.1876 48.5788C18.2327 49.1822 19.4182 49.4998 20.625 49.4998C21.8318 49.4998 23.0174 49.1822 24.0625 48.5788C25.1071 49.1834 26.293 49.5012 27.5 49.5C28.707 49.5012 29.8929 49.1834 30.9375 48.5788C31.9826 49.1822 33.1682 49.4998 34.375 49.4998C35.5818 49.4998 36.7673 49.1822 37.8124 48.5788C38.8576 47.9754 39.7254 47.1075 40.3289 46.0624C40.9323 45.0173 41.25 43.8318 41.25 42.625V28.875C41.25 28.6715 41.2417 28.4707 41.2225 28.27C41.3898 25.7856 40.7387 23.3149 39.369 21.2355C38.2745 19.5965 37.0233 18.3645 35.97 17.325L35.9425 17.2975C34.441 15.8208 33.462 14.806 33.1292 13.4668C34.0248 13.1166 34.7699 12.4645 35.2357 11.6233C35.7015 10.7821 35.8588 9.80455 35.6804 8.85966C35.502 7.91477 34.9991 7.06189 34.2586 6.44844C33.5181 5.835 32.5866 5.49952 31.625 5.5H23.375C22.281 5.5 21.2318 5.9346 20.4582 6.70819C19.6846 7.48177 19.25 8.53098 19.25 9.625ZM16.5 42.625V41.25H38.5V42.625C38.4998 43.4019 38.2802 44.163 37.8665 44.8206C37.4528 45.4782 36.8618 46.0056 36.1616 46.3421C35.4613 46.6786 34.6802 46.8105 33.9083 46.7226C33.1364 46.6347 32.4049 46.3306 31.7982 45.8452C31.5542 45.6493 31.2505 45.5425 30.9375 45.5425C30.6245 45.5425 30.3208 45.6493 30.0768 45.8452C29.3465 46.4324 28.4371 46.7517 27.5 46.75C26.5238 46.75 25.63 46.4117 24.9232 45.8452C24.6792 45.6493 24.3755 45.5425 24.0625 45.5425C23.7495 45.5425 23.4458 45.6493 23.2018 45.8452C22.5951 46.3306 21.8636 46.6347 21.0917 46.7226C20.3198 46.8105 19.5387 46.6786 18.8384 46.3421C18.1382 46.0056 17.5472 45.4782 17.1335 44.8206C16.7198 44.163 16.5002 43.4019 16.5 42.625ZM24.629 13.75H30.3765C30.8302 16.126 32.4225 17.6935 33.8883 19.1372L34.0037 19.25H21.186L21.2218 19.2142C22.6655 17.7265 24.1945 16.148 24.629 13.75ZM31.625 11H23.375C23.0103 11 22.6606 10.8551 22.4027 10.5973C22.1449 10.3394 22 9.98967 22 9.625C22 9.26033 22.1449 8.91059 22.4027 8.65273C22.6606 8.39487 23.0103 8.25 23.375 8.25H31.625C31.9897 8.25 32.3394 8.39487 32.5973 8.65273C32.8551 8.91059 33 9.26033 33 9.625C33 9.98967 32.8551 10.3394 32.5973 10.5973C32.3394 10.8551 31.9897 11 31.625 11Z" fill="black"/>
</svg>
