<svg width="56" height="56" viewBox="0 0 56 56" fill="none" xmlns="http://www.w3.org/2000/svg">
<path d="M33.136 2.18958L22.864 7.28251V11.1548C26.288 9.45711 29.7119 7.75906 33.136 6.06145V2.18958ZM33.8503 7.90464L23.4159 13.0781L30.3104 21.6243L40.7445 16.4505L33.8503 7.90464ZM21.6096 13.9741L17.9201 15.8033H23.0852L21.6096 13.9741ZM19.1903 17.7718L27.0232 20.6848L24.6734 17.7718H19.1903ZM14.7036 18.2036V48.4734L29.0558 53.8104V23.5409L14.7036 18.2036ZM41.2964 18.3742C37.8723 20.0718 34.4484 21.7697 31.0243 23.4675V53.64L41.2964 48.5467V18.3742ZM19.3048 29.801C19.3048 29.801 17.6314 31.4509 18.2232 32.4482C18.679 33.216 20.6173 33.0408 20.6173 33.0408L22.318 33.4616C22.318 33.4616 24.2561 34.5963 24.7119 34.054C25.3036 33.3496 23.6305 30.8714 23.6305 30.8714C23.6305 30.8714 27.5581 34.5346 26.8748 36.0468C26.531 36.8075 24.1711 35.8153 24.1711 35.8153C24.1711 35.8153 24.7721 36.6039 24.7119 36.9691C24.6024 37.6321 23.2053 38.0536 23.2053 38.0536C23.2053 38.0536 23.3268 40.3768 22.5491 40.8064C21.9861 41.1173 20.9491 40.8607 20.3862 40.271C19.6084 39.4564 19.7299 37.1936 19.7299 37.1936C19.7299 37.1936 18.3327 36.0805 18.2232 35.3632C18.163 34.9683 18.7639 34.477 18.7639 34.477C18.7639 34.477 16.4042 34.3012 16.0605 33.3704C15.3773 31.5199 19.3048 29.801 19.3048 29.801Z" fill="black"/>
</svg>
