<svg width="43" height="43" viewBox="0 0 43 43" fill="none" xmlns="http://www.w3.org/2000/svg">
<path d="M14.1146 1.83456C12.0143 1.83456 10.1074 2.26204 8.6581 3.00765C7.23557 3.73966 6.16192 4.85212 6.12287 6.25163H6.12035V14.1147C4.97665 15.1445 3.93877 16.6222 3.17031 18.3953C2.33551 20.3214 1.97068 22.2434 2.07851 23.87C2.18349 25.4522 2.76492 26.8716 4.01015 27.4733L4.03905 27.4864C4.06441 27.4984 4.08927 27.5094 4.11514 27.5207L6.12026 28.3893V37.528H6.12278C6.17947 38.9102 7.24784 40.0095 8.65827 40.7351C10.1076 41.4809 12.0151 41.9084 14.1146 41.9084C16.2138 41.9084 18.1215 41.4809 19.5709 40.7351C20.9813 40.0095 22.0497 38.9103 22.1064 37.5281H22.1089V35.3205L25.7071 36.8795L25.7256 36.8874L31.9874 39.6009L32.6358 39.8818L32.7067 39.9133V39.9108C34.0068 40.4325 35.4555 39.8886 36.6933 38.874C37.9539 37.8408 39.1045 36.2606 39.9398 34.3336C40.7751 32.4066 41.142 30.4852 41.0342 28.8589C40.9284 27.2623 40.3347 25.8346 39.0658 25.2423V25.2397L38.3467 24.9273L32.0845 22.2139L22.1088 17.8912V6.46428C22.1109 6.41977 22.1113 6.37526 22.1113 6.33032C22.1113 6.30387 22.1096 6.27783 22.1088 6.25155C22.0697 4.85211 20.9962 3.73957 19.5735 3.00773C18.1242 2.26195 16.2148 1.83447 14.1145 1.83447L14.1146 1.83456ZM11.7787 3.61654C11.7812 3.61612 11.7841 3.61704 11.7866 3.61654C11.2203 3.88839 10.8707 4.25793 10.8707 4.66634C10.8707 5.50031 12.3229 6.17554 14.1146 6.17554C15.9061 6.17554 17.3585 5.50031 17.3585 4.66634C17.3585 4.25793 17.0088 3.88839 16.4424 3.61654C17.3755 3.79232 18.2 4.0672 18.8545 4.40397C20.015 5.0011 20.5421 5.71799 20.5421 6.33032C20.5421 6.94257 20.015 7.65702 18.8545 8.25407C17.694 8.8512 15.9967 9.25407 14.1146 9.25407C12.2325 9.25407 10.5352 8.8512 9.37474 8.25415C8.21424 7.65719 7.68976 6.94282 7.68976 6.33049C7.68976 5.71825 8.21424 5.00119 9.37474 4.40406C10.0275 4.06829 10.849 3.79265 11.7788 3.61679L11.7787 3.61654ZM6.12026 16.432V26.6781L4.73973 26.0798C4.17888 25.8367 3.73166 25.0703 3.64541 23.7677C3.55891 22.4651 3.86318 20.7457 4.61123 19.02C5.03804 18.0349 5.5616 17.158 6.12026 16.432ZM20.5394 16.579V37.4125C20.5394 38.0238 20.0153 38.7416 18.8544 39.3388C17.6936 39.9361 15.9954 40.3387 14.1145 40.3387C12.2337 40.3387 10.5355 39.9361 9.37466 39.3388C8.21382 38.7417 7.68968 38.0238 7.68968 37.4124V16.8229L12.2091 23.5156L9.11481 24.5969L19.2953 35.2944L14.9516 26.4106L16.9595 25.4158L13.587 18.3453C13.7618 18.3514 13.937 18.3558 14.1146 18.3558C16.2139 18.3558 18.1215 17.9283 19.571 17.1827C19.9182 17.004 20.2436 16.8017 20.5394 16.579ZM22.1088 19.6025L28.7436 22.4789L22.1088 23.7202V19.6025ZM37.8953 26.5547C38.0712 26.5576 38.2298 26.5911 38.3703 26.6519C38.9321 26.8955 39.381 27.6619 39.4674 28.964C39.5158 29.696 39.4394 30.5593 39.2311 31.481C39.2055 30.8575 39.0059 30.3934 38.6327 30.2318C37.8676 29.9 36.6683 30.963 35.9557 32.6069C35.2432 34.2507 35.2878 35.8524 36.0528 36.1841C36.4265 36.346 36.9027 36.1753 37.3756 35.7667C36.8451 36.5503 36.2664 37.1963 35.6986 37.6616C34.6891 38.4889 33.8223 38.6845 33.2604 38.4412C32.6987 38.1976 32.2497 37.4311 32.1636 36.1288C32.0771 34.8266 32.3834 33.1104 33.1319 31.3837C33.8804 29.657 34.9256 28.2586 35.9349 27.4312C36.6919 26.8108 37.3675 26.5463 37.8954 26.5546L37.8953 26.5547ZM25.0037 27.2818C24.9281 27.4406 24.8542 27.601 24.7832 27.7647C23.9484 29.6909 23.5809 31.6104 23.6889 33.2368C23.7147 33.6273 23.77 34.0072 23.8567 34.3681L22.1088 33.6122V27.3868L25.0037 27.2818Z" fill="black"/>
</svg>
