<svg width="54" height="54" viewBox="0 0 54 54" fill="none" xmlns="http://www.w3.org/2000/svg">
<path d="M45.5296 1.98418L36.7131 8.91875L48.1465 6.64769L45.5295 1.98408L45.5296 1.98418ZM32.7283 2.07974L30.4639 11.7301L38.8719 2.07974H32.7283ZM15.784 2.54433L15.5534 3.20351C14.1573 7.1646 13.3054 11.5358 13.3054 15.6587C13.3054 21.3324 14.891 25.4865 17.5474 28.1962C19.5426 30.2318 22.102 31.4126 24.907 31.8744C26.7139 36.9511 26.6135 42.5342 24.6465 47.5661C21.4221 48.1052 18.2902 49.4953 15.5401 51.7353H39.9231C37.1744 49.4962 34.0432 48.1089 30.8201 47.5693C28.8534 42.54 28.7527 36.9593 30.5564 31.8843C33.3811 31.4299 35.955 30.2474 37.9523 28.196C39.3598 26.7505 40.4599 24.894 41.1823 22.6161L32.2438 15.0586L26.8022 14.9433L32.303 27.56L27.0099 19.7884L18.6614 26.5879L25.3916 17.4185L23.6746 14.8973L17.9956 13.1933L16.9607 12.8834L17.3661 11.8783L21.1629 2.54433H15.784ZM23.2888 2.54433L19.6007 11.6146L24.7225 13.1539L28.1798 9.60061L26.3408 2.54422H23.2888V2.54433ZM41.7064 10.2336L33.0811 13.1868L41.7197 20.4905C42.0051 19.0234 42.158 17.4145 42.158 15.6589C42.158 13.8786 41.9985 12.0534 41.7064 10.2336Z" fill="black"/>
</svg>
