<svg width="55" height="55" viewBox="0 0 55 55" fill="none" xmlns="http://www.w3.org/2000/svg">
<path d="M42.2299 2.671L33.4334 9.60555L44.8603 7.3345L42.2298 2.6709L42.2299 2.671ZM29.4289 2.76656L27.1924 12.4169L35.5725 2.76656H29.4289ZM12.486 3.23115L12.2572 3.89032C10.8726 7.8514 10.0333 12.2225 10.0452 16.3455C10.0616 22.0192 11.6592 26.1732 14.3233 28.8829C16.3245 30.9185 18.8873 32.0993 21.6935 32.5611C23.5151 37.6378 23.4308 43.2208 21.4783 48.2527C18.2555 48.7919 15.1276 50.1819 12.384 52.4219H36.767C34.0118 50.1828 30.8766 48.7956 27.6519 48.2559C25.6708 43.2266 25.5539 37.646 27.343 32.571C30.1664 32.1166 32.7369 30.9341 34.7283 28.8827C36.1316 27.4372 37.2264 25.5807 37.9421 23.3028L28.9819 15.7454L23.5399 15.6301L29.0771 28.2468L23.7616 20.4751L15.4328 27.2747L22.1365 18.1052L20.4122 15.584L14.7283 13.8801L13.6924 13.5702L14.0949 12.5651L17.8649 3.23115H12.486ZM19.9907 3.23115L16.3289 12.3014L21.4551 13.8406L24.9021 10.2874L23.0428 3.23104H19.9907L19.9907 3.23115ZM38.4305 10.9204L29.8138 13.8735L38.4734 21.1772C38.7545 19.7101 38.9028 18.1012 38.8978 16.3457C38.8926 14.5654 38.7279 12.7402 38.4305 10.9204Z" fill="black"/>
<path d="M42.2299 2.671L33.4334 9.60555L44.8603 7.3345L42.2298 2.6709L42.2299 2.671ZM29.4289 2.76656L27.1924 12.4169L35.5725 2.76656H29.4289ZM12.486 3.23115L12.2572 3.89032C10.8726 7.8514 10.0333 12.2225 10.0452 16.3455C10.0616 22.0192 11.6592 26.1732 14.3233 28.8829C16.3245 30.9185 18.8873 32.0993 21.6935 32.5611C23.5151 37.6378 23.4308 43.2208 21.4783 48.2527C18.2555 48.7919 15.1276 50.1819 12.384 52.4219H36.767C34.0118 50.1828 30.8766 48.7956 27.6519 48.2559C25.6708 43.2266 25.5539 37.646 27.343 32.571C30.1664 32.1166 32.7369 30.9341 34.7283 28.8827C36.1316 27.4372 37.2264 25.5807 37.9421 23.3028L28.9819 15.7454L23.5399 15.6301L29.0771 28.2468L23.7616 20.4751L15.4328 27.2747L22.1365 18.1052L20.4122 15.584L14.7283 13.8801L13.6924 13.5702L14.0949 12.5651L17.8649 3.23115H12.486ZM19.9907 3.23115L16.3289 12.3014L21.4551 13.8406L24.9021 10.2874L23.0428 3.23104H19.9907L19.9907 3.23115ZM38.4305 10.9204L29.8138 13.8735L38.4734 21.1772C38.7545 19.7101 38.9028 18.1012 38.8978 16.3457C38.8926 14.5654 38.7279 12.7402 38.4305 10.9204Z" fill="black"/>
</svg>
