<svg width="55" height="54" viewBox="0 0 55 54" fill="none" xmlns="http://www.w3.org/2000/svg">
<path d="M42.23 2.00011L33.4335 8.93465L44.8604 6.6636L42.2299 2L42.23 2.00011ZM29.429 2.09566L27.1925 11.746L35.5726 2.09566H29.429ZM12.4861 2.56025L12.2573 3.21942C10.8727 7.1805 10.0334 11.5516 10.0453 15.6746C10.0617 21.3483 11.6593 25.5024 14.3234 28.212C16.3246 30.2476 18.8874 31.4284 21.6937 31.8902C23.5152 36.9669 23.4309 42.5499 21.4784 47.5818C18.2556 48.121 15.1277 49.5111 12.3841 51.751H36.7671C34.0119 49.5119 30.8767 48.1247 27.6521 47.585C25.6709 42.5557 25.5541 36.9751 27.3431 31.9001C30.1665 31.4457 32.737 30.2632 34.7284 28.2118C36.1317 26.7663 37.2265 24.9098 37.9423 22.6319L28.982 15.0745L23.54 14.9592L29.0772 27.5759L23.7617 19.8042L15.4329 26.6038L22.1366 17.4343L20.4123 14.9131L14.7284 13.2092L13.6925 12.8993L14.0951 11.8942L17.865 2.56025H12.4861ZM19.9908 2.56025L16.329 11.6305L21.4552 13.1697L24.9022 9.6165L23.0429 2.56014H19.9908L19.9908 2.56025ZM38.4306 10.2495L29.8139 13.2026L38.4735 20.5063C38.7547 19.0392 38.9029 17.4303 38.8979 15.6748C38.8927 13.8945 38.728 12.0693 38.4306 10.2495Z" fill="#D44034"/>
<path d="M42.23 2.00011L33.4335 8.93465L44.8604 6.6636L42.2299 2L42.23 2.00011ZM29.429 2.09566L27.1925 11.746L35.5726 2.09566H29.429ZM12.4861 2.56025L12.2573 3.21942C10.8727 7.1805 10.0334 11.5516 10.0453 15.6746C10.0617 21.3483 11.6593 25.5024 14.3234 28.212C16.3246 30.2476 18.8874 31.4284 21.6937 31.8902C23.5152 36.9669 23.4309 42.5499 21.4784 47.5818C18.2556 48.121 15.1277 49.5111 12.3841 51.751H36.7671C34.0119 49.5119 30.8767 48.1247 27.6521 47.585C25.6709 42.5557 25.5541 36.9751 27.3431 31.9001C30.1665 31.4457 32.737 30.2632 34.7284 28.2118C36.1317 26.7663 37.2265 24.9098 37.9423 22.6319L28.982 15.0745L23.54 14.9592L29.0772 27.5759L23.7617 19.8042L15.4329 26.6038L22.1366 17.4343L20.4123 14.9131L14.7284 13.2092L13.6925 12.8993L14.0951 11.8942L17.865 2.56025H12.4861ZM19.9908 2.56025L16.329 11.6305L21.4552 13.1697L24.9022 9.6165L23.0429 2.56014H19.9908L19.9908 2.56025ZM38.4306 10.2495L29.8139 13.2026L38.4735 20.5063C38.7547 19.0392 38.9029 17.4303 38.8979 15.6748C38.8927 13.8945 38.728 12.0693 38.4306 10.2495Z" fill="#D44034"/>
</svg>
