<svg width="246" height="198" viewBox="0 0 246 198" fill="none" xmlns="http://www.w3.org/2000/svg">
<path d="M2.84446 187V154.273H24.897V159.978H9.76385V167.776H23.7624V173.481H9.76385V181.295H24.9609V187H2.84446ZM37.2696 187.463C35.7036 187.463 34.308 187.192 33.0828 186.648C31.8577 186.094 30.8882 185.279 30.1744 184.203C29.4713 183.117 29.1198 181.764 29.1198 180.145C29.1198 178.781 29.3701 177.636 29.8708 176.709C30.3715 175.782 31.0534 175.036 31.9163 174.472C32.7792 173.907 33.7593 173.481 34.8566 173.193C35.9646 172.906 37.1258 172.703 38.3403 172.586C39.7678 172.437 40.9184 172.298 41.792 172.17C42.6656 172.032 43.2995 171.83 43.6936 171.563C44.0878 171.297 44.2849 170.903 44.2849 170.381V170.285C44.2849 169.273 43.9653 168.49 43.3261 167.936C42.6975 167.382 41.8026 167.105 40.6414 167.105C39.4163 167.105 38.4415 167.376 37.7171 167.92C36.9926 168.452 36.5132 169.124 36.2789 169.933L29.9827 169.422C30.3023 167.93 30.9308 166.641 31.8683 165.555C32.8058 164.457 34.015 163.616 35.4958 163.03C36.9873 162.433 38.7132 162.135 40.6734 162.135C42.037 162.135 43.3421 162.295 44.5885 162.614C45.8456 162.934 46.9589 163.429 47.9284 164.1C48.9085 164.772 49.6808 165.635 50.2455 166.689C50.8101 167.733 51.0924 168.985 51.0924 170.445V187H44.6365V183.596H44.4447C44.0505 184.363 43.5232 185.04 42.8627 185.626C42.2021 186.201 41.4085 186.654 40.4816 186.984C39.5548 187.304 38.4841 187.463 37.2696 187.463ZM39.2192 182.765C40.2206 182.765 41.1048 182.568 41.8719 182.174C42.6389 181.769 43.2409 181.226 43.6776 180.544C44.1144 179.862 44.3328 179.09 44.3328 178.227V175.622C44.1198 175.761 43.8268 175.888 43.4539 176.006C43.0917 176.112 42.6816 176.213 42.2235 176.309C41.7654 176.395 41.3073 176.474 40.8492 176.549C40.3911 176.613 39.9756 176.672 39.6027 176.725C38.8037 176.842 38.1059 177.028 37.5093 177.284C36.9127 177.54 36.4493 177.886 36.1191 178.323C35.7888 178.749 35.6237 179.282 35.6237 179.921C35.6237 180.848 35.9593 181.556 36.6304 182.046C37.3122 182.526 38.1752 182.765 39.2192 182.765ZM56.3738 187V162.455H62.9736V166.737H63.2293C63.6768 165.214 64.4278 164.063 65.4825 163.286C66.5372 162.497 67.7517 162.103 69.126 162.103C69.4669 162.103 69.8344 162.124 70.2286 162.167C70.6228 162.21 70.969 162.268 71.2673 162.343V168.383C70.9477 168.287 70.5056 168.202 69.941 168.127C69.3763 168.053 68.8596 168.016 68.3909 168.016C67.3895 168.016 66.4946 168.234 65.7062 168.671C64.9285 169.097 64.3106 169.694 63.8525 170.461C63.4051 171.228 63.1814 172.112 63.1814 173.113V187H56.3738ZM89.0732 162.455V167.568H74.2915V162.455H89.0732ZM77.6474 156.574H84.4549V179.457C84.4549 180.086 84.5508 180.576 84.7425 180.928C84.9343 181.268 85.2006 181.508 85.5415 181.647C85.8931 181.785 86.2979 181.854 86.756 181.854C87.0756 181.854 87.3952 181.828 87.7148 181.775C88.0344 181.711 88.2795 181.663 88.4499 181.631L89.5206 186.696C89.1797 186.803 88.7003 186.925 88.0824 187.064C87.4645 187.213 86.7134 187.304 85.8292 187.336C84.1886 187.4 82.7504 187.181 81.5146 186.68C80.2894 186.18 79.3359 185.402 78.6541 184.347C77.9723 183.293 77.6367 181.961 77.6474 180.352V156.574ZM100.843 172.81V187H94.035V154.273H100.651V166.785H100.938C101.492 165.336 102.387 164.202 103.623 163.381C104.859 162.55 106.409 162.135 108.273 162.135C109.978 162.135 111.464 162.508 112.732 163.254C114.01 163.989 115.001 165.049 115.704 166.434C116.418 167.808 116.769 169.454 116.759 171.371V187H109.951V172.586C109.962 171.073 109.578 169.896 108.801 169.054C108.034 168.213 106.958 167.792 105.573 167.792C104.646 167.792 103.825 167.989 103.112 168.383C102.409 168.777 101.855 169.353 101.45 170.109C101.056 170.855 100.853 171.755 100.843 172.81ZM132.659 187V154.273H139.578V167.776H153.625V154.273H160.528V187H153.625V173.481H139.578V187H132.659ZM177.291 187.479C174.767 187.479 172.593 186.968 170.771 185.945C168.96 184.912 167.565 183.452 166.585 181.567C165.605 179.67 165.115 177.428 165.115 174.839C165.115 172.314 165.605 170.098 166.585 168.191C167.565 166.284 168.944 164.798 170.724 163.733C172.513 162.668 174.612 162.135 177.02 162.135C178.639 162.135 180.146 162.396 181.542 162.918C182.948 163.429 184.173 164.202 185.218 165.235C186.272 166.268 187.093 167.568 187.678 169.134C188.264 170.69 188.557 172.511 188.557 174.599V176.469H167.831V172.25H182.149C182.149 171.27 181.936 170.402 181.51 169.646C181.084 168.889 180.493 168.298 179.736 167.872C178.991 167.435 178.122 167.217 177.132 167.217C176.098 167.217 175.182 167.456 174.383 167.936C173.595 168.404 172.977 169.038 172.529 169.837C172.082 170.626 171.853 171.505 171.842 172.474V176.485C171.842 177.7 172.066 178.749 172.513 179.633C172.971 180.517 173.616 181.199 174.447 181.679C175.278 182.158 176.263 182.398 177.403 182.398C178.16 182.398 178.852 182.291 179.481 182.078C180.109 181.865 180.647 181.545 181.095 181.119C181.542 180.693 181.883 180.171 182.117 179.553L188.414 179.969C188.094 181.482 187.439 182.803 186.448 183.932C185.468 185.05 184.2 185.924 182.645 186.553C181.1 187.17 179.316 187.479 177.291 187.479ZM193 187V162.455H199.6V166.737H199.855C200.303 165.214 201.054 164.063 202.108 163.286C203.163 162.497 204.378 162.103 205.752 162.103C206.093 162.103 206.46 162.124 206.855 162.167C207.249 162.21 207.595 162.268 207.893 162.343V168.383C207.574 168.287 207.132 168.202 206.567 168.127C206.002 168.053 205.486 168.016 205.017 168.016C204.015 168.016 203.121 168.234 202.332 168.671C201.555 169.097 200.937 169.694 200.479 170.461C200.031 171.228 199.807 172.112 199.807 173.113V187H193ZM221.361 187.479C218.878 187.479 216.732 186.952 214.921 185.897C213.12 184.832 211.73 183.351 210.75 181.455C209.77 179.548 209.28 177.337 209.28 174.823C209.28 172.288 209.77 170.072 210.75 168.175C211.73 166.268 213.12 164.788 214.921 163.733C216.732 162.668 218.878 162.135 221.361 162.135C223.843 162.135 225.984 162.668 227.785 163.733C229.596 164.788 230.991 166.268 231.971 168.175C232.951 170.072 233.441 172.288 233.441 174.823C233.441 177.337 232.951 179.548 231.971 181.455C230.991 183.351 229.596 184.832 227.785 185.897C225.984 186.952 223.843 187.479 221.361 187.479ZM221.392 182.206C222.522 182.206 223.465 181.886 224.221 181.247C224.977 180.597 225.547 179.713 225.931 178.594C226.325 177.476 226.522 176.203 226.522 174.775C226.522 173.348 226.325 172.075 225.931 170.956C225.547 169.837 224.977 168.953 224.221 168.303C223.465 167.653 222.522 167.328 221.392 167.328C220.253 167.328 219.294 167.653 218.516 168.303C217.749 168.953 217.168 169.837 216.774 170.956C216.391 172.075 216.199 173.348 216.199 174.775C216.199 176.203 216.391 177.476 216.774 178.594C217.168 179.713 217.749 180.597 218.516 181.247C219.294 181.886 220.253 182.206 221.392 182.206Z" fill="url(#paint0_linear_185_232)"/>
<path d="M117.5 142.281C155.435 142.281 186.187 111.529 186.187 73.5938C186.187 35.6587 155.435 4.90627 117.5 4.90627C79.5649 4.90627 48.8125 35.6587 48.8125 73.5938C48.8125 111.529 79.5649 142.281 117.5 142.281Z" fill="#1A9FFF"/>
<path d="M93.9746 56.0579C92.6901 41.7434 81.652 28.4043 76.2875 23.5275L73.334 20.9861C85.695 10.5784 101.341 4.88204 117.5 4.90633C132.707 4.90633 146.761 9.85183 158.136 18.2042C159.743 23.0879 156.679 33.288 153.465 38.1648C152.297 39.9301 149.66 42.1281 146.761 44.2093C140.236 48.9007 131.993 51.2154 127.803 59.8563C126.756 62.0318 126.553 64.5184 127.233 66.835C127.645 68.3461 127.92 69.9877 127.92 71.5882C127.934 76.7741 122.686 80.5175 117.5 80.4626C104.01 80.3183 95.1766 69.4451 93.9746 56.0579ZM127.37 116.702C134.157 103.912 156.776 103.912 156.776 103.912C180.349 103.665 183.536 89.3507 185.666 82.118C183.788 97.0996 177.028 111.046 166.432 121.802C155.836 132.559 141.993 139.526 127.041 141.629C124.822 136.958 122.198 126.449 127.37 116.702Z" fill="#2EA324"/>
<path d="M70.8906 96.8984C70.8906 96.8984 77.0234 95.6719 80.7031 95.6719H80.7034C84.3829 95.6719 86.836 95.6719 88.0625 99.3516C89.2891 103.031 83.1562 105.484 83.1562 105.484L88.0625 106.711C88.0625 106.711 103.617 104.667 104.843 105.484C106.07 106.302 108.914 107.447 108.914 110.391C108.914 113.334 106.461 114.888 105.234 115.297C105.234 115.297 109.806 115.696 111.367 117.75C112.562 119.322 112.807 120.693 112.594 122.656C112.263 125.705 106.461 128.789 106.461 128.789C106.461 128.789 111.367 131.242 108.914 133.695C106.461 136.148 107.174 136.582 106.461 138.602C105.648 140.905 106.544 142.673 105.234 144.734C103.95 146.756 100.328 148.414 100.328 148.414C97.875 149.232 91.9875 150.867 88.0625 150.867C84.1375 150.867 79.0677 150.049 77.0234 149.641L67.2109 148.414L57.3984 144.734L51.2656 138.602L47.5859 132.469L46.3594 122.656V117.75L48.8125 109.164C48.8125 109.164 51.6406 105.997 53.7188 104.258C58.3218 100.406 61.5884 98.9984 67.2109 96.8984C68.6299 96.3685 70.8906 96.8984 70.8906 96.8984Z" fill="white" stroke="white" stroke-width="2.45312"/>
<path d="M166.316 96.9257C166.316 96.9257 160.121 95.6719 156.405 95.6719H156.404C152.688 95.6719 150.21 95.6719 148.971 99.4333C147.732 103.195 153.927 105.702 153.927 105.702L148.971 106.956C148.971 106.956 133.261 104.867 132.022 105.702C130.783 106.538 127.91 107.709 127.91 110.718C127.91 113.727 130.388 115.315 131.627 115.733C131.627 115.733 127.009 116.141 125.432 118.241C124.225 119.848 123.978 121.249 124.193 123.256C124.527 126.373 130.388 129.525 130.388 129.525C130.388 129.525 125.432 132.033 127.91 134.54C130.388 137.048 129.668 137.491 130.388 139.556C131.209 141.91 130.303 143.717 131.627 145.825C132.924 147.891 136.582 149.586 136.582 149.586C139.06 150.422 145.007 149.586 148.971 149.586C152.936 149.586 158.056 151.258 160.121 150.84L169.016 148.414L177.602 144.734L183.66 139.556L186.138 133.695L191.094 123.256V118.241L188.616 109.464C188.616 109.464 185.759 106.226 183.66 104.449C179.011 100.511 175.712 100.272 170.032 98.125C168.599 97.5832 166.316 96.9257 166.316 96.9257Z" fill="white" stroke="white" stroke-width="2.45312"/>
<path d="M190.959 118.491C190.24 111.281 186.376 105.104 180.428 101.066C184.227 92.4067 186.189 83.0528 186.187 73.5962C186.187 35.6586 155.435 4.90625 117.5 4.90625C79.5648 4.90625 48.8125 35.6586 48.8125 73.5962C48.8125 83.3695 50.8903 92.6521 54.5724 101.066C48.6236 105.104 44.7599 111.279 44.0411 118.491C43.0599 128.355 47.5736 139.72 54.5405 144.918C62.496 150.855 80.708 154.132 98.5447 150.7C107.472 148.983 108.855 144.163 106.848 141.423C110.322 141.97 113.872 142.281 117.5 142.281C121.128 142.281 124.678 141.97 128.151 141.423C126.145 144.163 127.528 148.983 136.455 150.7C154.292 154.13 172.504 150.855 180.459 144.918C187.426 139.72 191.942 128.355 190.959 118.491ZM96.2559 147.482C78.3579 149.977 63.7741 147.394 56.8317 142.215C46.8451 134.76 40.8128 110.41 60.4329 101.191C69.3697 96.9917 83.8333 93.3684 85.9724 98.2967C89.0364 105.359 75.711 106.257 75.711 106.257C75.711 106.257 86.3919 107.798 102.033 105.958C106.299 105.462 109.36 110.663 104.307 113.663C99.889 116.285 85.0157 117.225 85.0157 117.225C85.0157 117.225 93.0202 117.48 104.383 116.541C113.531 115.778 114.348 126.11 102.283 127.521C97.637 128.065 85.0917 128.902 85.0917 128.902C85.0917 128.902 93.7415 130.523 102.676 129.265C110.656 128.141 110.3 136.229 98.9396 137.726C93.5305 138.44 84.9053 138.589 84.9053 138.589C84.9053 138.589 92.6523 139.924 96.8716 139.372C107.678 137.951 106.557 146.044 96.2559 147.482ZM110.563 135.719C111.978 133.288 111.33 130.487 109.135 129.285C118.302 126.49 115.771 115.331 108.598 114.953C114.08 111.335 109.417 102.425 102.806 103.532C97.166 104.476 87.3829 104.461 87.3829 104.461C87.3977 104.437 90.5303 103.201 89.738 99.0817C88.9162 94.8255 83.2543 88.8375 60.0208 98.1814C56.6723 90.4175 54.9452 82.0514 54.9453 73.5962C54.9453 39.1004 83.0066 11.0391 117.5 11.0391C151.993 11.0391 180.055 39.1004 180.055 73.5962C180.055 82.3269 178.227 90.6258 174.982 98.179C151.748 88.835 146.086 94.8231 145.264 99.0793C144.472 103.201 147.605 104.437 147.619 104.459C147.619 104.459 137.836 104.474 132.197 103.529C125.585 102.423 120.92 111.335 126.405 114.951C119.232 115.329 116.7 126.488 125.868 129.282C123.672 130.484 123.024 133.286 124.44 135.717C122.156 135.977 119.848 136.148 117.5 136.148C115.152 136.148 112.844 135.977 110.563 135.719ZM178.168 142.215C171.223 147.394 156.644 149.977 138.744 147.482C128.443 146.044 127.322 137.951 138.133 139.372C142.353 139.924 150.1 138.589 150.1 138.589C150.1 138.589 141.474 138.44 136.065 137.726C124.702 136.229 124.349 128.141 132.329 129.265C141.263 130.523 149.913 128.902 149.913 128.902C149.913 128.902 137.368 128.063 132.722 127.521C120.657 126.113 121.472 115.78 130.622 116.541C141.985 117.48 149.989 117.225 149.989 117.225C149.989 117.225 135.116 116.285 130.698 113.663C125.642 110.663 128.703 105.462 132.972 105.958C148.613 107.798 159.291 106.257 159.291 106.257C159.291 106.257 145.966 105.359 149.03 98.2967C151.169 93.3659 165.635 96.9917 174.569 101.191C194.19 110.41 188.157 134.76 178.168 142.215Z" fill="black"/>
<path d="M93.6965 51.919C94.9329 52.8365 96.6648 50.4471 96.0662 49.3947C90.0512 38.9665 82.9616 34.4699 76.8558 35.5444C70.7524 36.6189 65.6303 43.2717 63.5427 55.1277C63.344 56.3199 65.7873 57.9758 66.6385 56.6903C69.8374 51.8528 74.2457 49.38 79.1421 48.5141C84.0484 47.6481 89.038 48.4675 93.6965 51.919ZM114.303 48.2859C117.502 43.4484 121.905 40.9756 126.811 40.1072C131.717 39.2413 136.702 40.0631 141.363 43.5146C142.6 44.4321 144.336 42.0427 143.738 40.9903C137.718 30.5646 130.633 26.0631 124.527 27.14C118.424 28.2145 113.302 34.8673 111.214 46.7233C111.003 47.918 113.452 49.5714 114.303 48.2859ZM138.966 72.8834C139.985 70.2708 137.627 68.0508 135.77 69.9053C120.271 85.3453 100.644 88.7331 80.9157 79.5755C78.5411 78.4692 77.0815 81.3614 78.9311 83.4662C85.8416 91.3481 98.0361 97.2896 111.889 94.8487C125.737 92.4078 135.164 82.6567 138.966 72.8834Z" fill="black"/>
<defs>
<linearGradient id="paint0_linear_185_232" x1="123" y1="144" x2="123" y2="198" gradientUnits="userSpaceOnUse">
<stop offset="0.154167" stop-color="#2B578B"/>
<stop offset="1" stop-color="#31D642"/>
</linearGradient>
</defs>
</svg>
