<svg width="260" height="264" viewBox="0 0 260 264" fill="none" xmlns="http://www.w3.org/2000/svg">
<path d="M73 114H223V239C223 252.789 211.789 264 198 264H98C84.2109 264 73 252.789 73 239V114ZM110.5 139C107.062 139 104.25 141.812 104.25 145.25V232.75C104.25 236.188 107.062 239 110.5 239C113.938 239 116.75 236.188 116.75 232.75V145.25C116.75 141.812 113.938 139 110.5 139ZM148 139C144.562 139 141.75 141.812 141.75 145.25V232.75C141.75 236.188 144.562 239 148 239C151.438 239 154.25 236.188 154.25 232.75V145.25C154.25 141.812 151.438 139 148 139ZM185.5 139C182.062 139 179.25 141.812 179.25 145.25V232.75C179.25 236.188 182.062 239 185.5 239C188.938 239 191.75 236.188 191.75 232.75V145.25C191.75 141.812 188.938 139 185.5 139Z" fill="black"/>
<path d="M41.7247 43.1078C41.8189 38.3571 44.6098 34.1066 48.8859 32.0927L91.4345 12.0538C95.7105 10.04 100.765 10.5956 104.487 13.5488L109.412 17.404L143.338 1.4262C149.593 -1.51972 157.026 1.15378 159.972 7.40885C162.918 13.6639 160.245 21.0975 153.99 24.0434L18.2864 87.9547C12.0314 90.9006 4.5978 88.2271 1.65189 81.9721C-1.29402 75.717 1.37947 68.2835 7.63454 65.3375L41.5603 49.3597L41.7247 43.1078Z" fill="black"/>
</svg>
