<svg width="56" height="56" viewBox="0 0 56 56" fill="none" xmlns="http://www.w3.org/2000/svg">
<path d="M14 49C12.7167 49 11.6177 48.5427 10.703 47.628C9.78833 46.7133 9.33178 45.6151 9.33333 44.3333V23.3333C9.33333 22.5944 9.499 21.8944 9.83033 21.2333C10.1617 20.5722 10.6182 20.0278 11.2 19.6L25.2 9.1C25.6278 8.78889 26.075 8.55555 26.5417 8.4C27.0083 8.24444 27.4944 8.16666 28 8.16666C28.5056 8.16666 28.9917 8.24444 29.4583 8.4C29.925 8.55555 30.3722 8.78889 30.8 9.1L44.8 19.6C45.3833 20.0278 45.8407 20.5722 46.172 21.2333C46.5033 21.8944 46.6682 22.5944 46.6667 23.3333V44.3333C46.6667 45.6167 46.2093 46.7157 45.2947 47.6303C44.38 48.545 43.2818 49.0016 42 49H32.6667V32.6667H23.3333V49H14Z" fill="#204E95"/>
<path d="M10.3333 44.3345V44.3333V23.3333C10.3333 22.7501 10.4626 22.2035 10.7243 21.6814C10.9866 21.1581 11.3412 20.7374 11.7924 20.4056L11.7924 20.4057L11.8 20.4L25.7938 9.90463C26.1431 9.65143 26.4975 9.46881 26.8579 9.34868C27.2198 9.22806 27.5989 9.16666 28 9.16666C28.4011 9.16666 28.7802 9.22806 29.1421 9.34868C29.5025 9.4688 29.8569 9.65142 30.2061 9.90461L44.2 20.4L44.2 20.4L44.2086 20.4064C44.6612 20.7383 45.0161 21.1587 45.278 21.6814C45.5394 22.2029 45.6679 22.7487 45.6667 23.3312V23.3333V44.3333C45.6667 45.3491 45.3164 46.1944 44.5876 46.9232C43.8588 47.652 43.0146 48.0012 42.0012 48H42H33.6667V32.6667V31.6667H32.6667H23.3333H22.3333V32.6667V48H14C12.9842 48 12.1389 47.6497 11.4101 46.9209C10.6813 46.1921 10.3321 45.348 10.3333 44.3345Z" stroke="white" stroke-opacity="0.9" stroke-width="2"/>
</svg>
