<svg width="54" height="54" viewBox="0 0 54 54" fill="none" xmlns="http://www.w3.org/2000/svg">
<path d="M31.9526 2.11133L22.0474 7.02238V10.7564C25.3491 9.1193 28.6508 7.4819 31.9526 5.84492V2.11133ZM32.6413 7.62228L22.5796 12.611L29.2279 20.852L39.2893 15.863L32.6413 7.62228ZM20.8378 13.475L17.2801 15.2388H22.2607L20.8378 13.475ZM18.5049 17.137L26.058 19.946L23.7922 17.137H18.5049ZM14.1785 17.5534V46.7421L28.0181 51.8886V22.7001L14.1785 17.5534ZM39.8215 17.718C36.5197 19.3549 33.2181 20.9921 29.9163 22.6293V51.7242L39.8215 46.8129V17.718ZM18.6153 28.7366C18.6153 28.7366 17.0017 30.3276 17.5723 31.2893C18.0118 32.0296 19.881 31.8607 19.881 31.8607L21.5209 32.2665C21.5209 32.2665 23.3898 33.3607 23.8293 32.8378C24.3999 32.1585 22.7865 29.7688 22.7865 29.7688C22.7865 29.7688 26.5739 33.3012 25.9149 34.7594C25.5834 35.4929 23.3078 34.5361 23.3078 34.5361C23.3078 34.5361 23.8874 35.2965 23.8293 35.6487C23.7237 36.2881 22.3766 36.6945 22.3766 36.6945C22.3766 36.6945 22.4937 38.9347 21.7437 39.349C21.2009 39.6488 20.2009 39.4014 19.6581 38.8327C18.9081 38.0472 19.0253 35.8652 19.0253 35.8652C19.0253 35.8652 17.6779 34.7919 17.5723 34.1002C17.5143 33.7194 18.0938 33.2456 18.0938 33.2456C18.0938 33.2456 15.8183 33.0761 15.4869 32.1786C14.828 30.3941 18.6153 28.7366 18.6153 28.7366Z" fill="#EBB50D"/>
</svg>
