<svg width="54" height="54" viewBox="0 0 54 54" fill="none" xmlns="http://www.w3.org/2000/svg">
<g clip-path="url(#clip0_285_321)">
<path d="M37.2451 7.15592L37.1511 7.11543C36.5212 6.88519 35.7762 6.88329 35.0862 7.20964L31.8039 14.4711L32.9104 15.0091L38.3892 8.08855C38.1695 7.72013 37.7978 7.40214 37.3491 7.19662L37.2466 7.15244L37.2451 7.15592ZM31.8373 10.3198C28.3615 8.93571 24.7996 8.26732 21.7562 8.60575C18.2802 8.99577 15.5151 10.5842 13.9812 14.0154C17.6061 14.5612 20.6333 15.0855 23.2238 16.3447C25.8864 17.6246 28.054 19.7067 29.8937 23.1346C33.4604 21.1017 36.7431 20.9874 39.6985 22.3627C42.5037 23.6631 44.1201 24.8412 46.6641 27.957C47.2457 25.0078 47.122 23.2214 45.0334 20.2709C43.0539 17.4699 40.1177 14.861 36.7954 12.817L34.5246 15.6838C35.2091 15.8555 35.9093 16.0135 36.6267 16.1788L36.2563 17.8447C34.6947 17.4799 33.0358 17.1552 31.5192 16.5124C29.9978 15.8571 28.5905 14.8306 27.7359 13.1294L29.2266 12.3562C29.5155 12.9216 29.865 13.3899 30.2713 13.77L31.8373 10.3198ZM37.951 23.4869C35.5649 22.7054 33.0863 23.043 30.019 25.014L29.2352 25.5174L28.8256 24.6847C27.008 21.0099 25.0472 19.1092 22.5129 17.8845C23.6856 22.8916 22.7585 27.9071 20.8486 31.9661C19.2911 35.2744 17.1278 38.004 14.7865 39.6108C15.4183 40.2725 16.0938 40.9019 16.793 41.3773C18.2405 42.3801 19.6817 42.8162 21.4246 42.0182L22.1082 41.7075L22.4901 42.3643C23.5022 44.1231 25.0039 44.7288 26.868 44.8752C27.7372 44.9419 28.6706 44.9028 29.6207 44.7993C29.1694 36.4827 31.9197 29.2886 37.951 23.4869ZM29.6782 29.4924C29.6782 29.4924 30.462 32.2604 29.7855 33.3536C29.5291 33.7764 28.9103 34.1252 28.455 33.9599C27.8422 33.737 27.4994 32.8408 27.5623 32.1807C27.6827 31.043 29.6782 29.4924 29.6782 29.4924ZM26.0494 28.2578C26.0494 28.2578 26.2726 31.0408 25.4223 31.9463C25.0863 32.2938 24.434 32.5052 24.0356 32.2515C23.4955 31.9266 23.3378 30.9973 23.5325 30.3838C23.8617 29.3257 26.0494 28.2578 26.0494 28.2578ZM32.2786 46.1387C30.57 46.4182 28.6263 46.7297 26.728 46.5686C24.7505 46.4041 22.7777 45.6468 21.4448 43.8113C19.382 44.4818 17.4184 43.872 15.8536 42.788C14.2326 41.6694 12.9203 40.0993 11.853 38.7884C9.84064 38.732 7.84082 38.2092 5.14489 37.0072C6.11488 38.6247 7.67947 40.2933 9.66206 41.8752C12.48 44.1143 16.0942 46.1835 19.8379 47.7958C23.5768 49.3957 27.4538 50.5423 30.7792 50.9796C33.1949 51.302 35.298 51.213 36.8377 50.7582C35.9218 50.3433 35.1332 50.0344 34.4119 49.5392C33.4438 48.8864 32.7311 47.8617 32.2786 46.1387Z" fill="black"/>
</g>
<defs>
<clipPath id="clip0_285_321">
<rect width="54" height="54" fill="white"/>
</clipPath>
</defs>
</svg>
