<svg width="54" height="54" viewBox="0 0 54 54" fill="none" xmlns="http://www.w3.org/2000/svg">
<g clip-path="url(#clip0_450_2988)">
<path d="M37.2451 8.15592L37.1511 8.11543C36.5212 7.88519 35.7762 7.88329 35.0862 8.20964L31.8039 15.4711L32.9104 16.0091L38.3892 9.08855C38.1695 8.72013 37.7978 8.40214 37.3491 8.19662L37.2466 8.15244L37.2451 8.15592ZM31.8373 11.3198C28.3615 9.93571 24.7996 9.26732 21.7562 9.60575C18.2802 9.99577 15.5151 11.5842 13.9812 15.0154C17.6061 15.5612 20.6333 16.0855 23.2238 17.3447C25.8864 18.6246 28.054 20.7067 29.8937 24.1346C33.4604 22.1017 36.7431 21.9874 39.6985 23.3627C42.5037 24.6631 44.1201 25.8412 46.6641 28.957C47.2457 26.0078 47.122 24.2214 45.0334 21.2709C43.0539 18.4699 40.1177 15.861 36.7954 13.817L34.5246 16.6838C35.2091 16.8555 35.9093 17.0135 36.6267 17.1788L36.2563 18.8447C34.6947 18.4799 33.0358 18.1552 31.5192 17.5124C29.9978 16.8571 28.5905 15.8306 27.7359 14.1294L29.2266 13.3562C29.5155 13.9216 29.865 14.3899 30.2713 14.77L31.8373 11.3198ZM37.951 24.4869C35.5649 23.7054 33.0863 24.043 30.019 26.014L29.2352 26.5174L28.8256 25.6847C27.008 22.0099 25.0472 20.1092 22.5129 18.8845C23.6856 23.8916 22.7585 28.9071 20.8486 32.9661C19.2911 36.2744 17.1278 39.004 14.7865 40.6108C15.4183 41.2725 16.0938 41.9019 16.793 42.3773C18.2405 43.3801 19.6817 43.8162 21.4246 43.0182L22.1082 42.7075L22.4901 43.3643C23.5022 45.1231 25.0039 45.7288 26.868 45.8752C27.7372 45.9419 28.6706 45.9028 29.6207 45.7993C29.1694 37.4827 31.9197 30.2886 37.951 24.4869ZM29.6782 30.4924C29.6782 30.4924 30.462 33.2604 29.7855 34.3536C29.5291 34.7764 28.9103 35.1252 28.455 34.9599C27.8422 34.737 27.4994 33.8408 27.5623 33.1807C27.6827 32.043 29.6782 30.4924 29.6782 30.4924ZM26.0494 29.2578C26.0494 29.2578 26.2726 32.0408 25.4223 32.9463C25.0863 33.2938 24.434 33.5052 24.0356 33.2515C23.4955 32.9266 23.3378 31.9973 23.5325 31.3838C23.8617 30.3257 26.0494 29.2578 26.0494 29.2578ZM32.2786 47.1387C30.57 47.4182 28.6263 47.7297 26.728 47.5686C24.7505 47.4041 22.7777 46.6468 21.4448 44.8113C19.382 45.4818 17.4184 44.872 15.8536 43.788C14.2326 42.6694 12.9203 41.0993 11.853 39.7884C9.84064 39.732 7.84082 39.2092 5.14489 38.0072C6.11488 39.6247 7.67947 41.2933 9.66206 42.8752C12.48 45.1143 16.0942 47.1835 19.8379 48.7958C23.5768 50.3957 27.4538 51.5423 30.7792 51.9796C33.1949 52.302 35.2981 52.213 36.8377 51.7582C35.9218 51.3433 35.1332 51.0344 34.4119 50.5392C33.4438 49.8864 32.7311 48.8617 32.2786 47.1387Z" fill="#3CB03D"/>
</g>
<defs>
<clipPath id="clip0_450_2988">
<rect width="54" height="54" fill="white"/>
</clipPath>
</defs>
</svg>
