<svg width="119" height="159" viewBox="0 0 119 159" fill="none" xmlns="http://www.w3.org/2000/svg">
<path d="M10.0324 30.0475C10.0324 30.0475 9.50064 30.0467 29.7389 22.2004L29.7489 15.3094C29.832 11.3662 31.4588 7.61299 34.2801 4.85597C37.1013 2.09896 40.8917 0.558162 44.837 0.564621L74.3798 0.607303C78.2458 0.690202 81.9252 2.28534 84.6278 5.05018C87.3304 7.81502 88.8446 8.29914 88.8446 8.29914L91.5303 8.30302C99.9733 6.78103 91.5303 8.30302 99.9733 6.78103L115.325 3.73484L88.8369 13.6688L0.1706 39.8776L2.06381 33.4879L10.0324 30.0475ZM78.9868 15.3805C78.9635 14.0846 78.4398 12.8479 77.5253 11.9291C76.6107 11.0104 75.3762 10.4808 74.08 10.4512L41.9991 10.4049C37.3893 14.3616 42.8597 10.7295 41.3237 11.6222C40.1728 12.2911 37.3904 13.5945 36.2713 15.3188L33.1989 17.4239L34.253 23.5622C39.2448 23.001 49.4359 20.959 54.3312 20.2769C59.2264 19.5949 67.9008 18.0395 74.3565 16.7162L78.9868 15.3904L78.9868 15.3805ZM118.327 49.8927L118.313 59.737L108.466 59.7228L108.338 148.322C96.1766 154.516 81.8136 158.128 66.609 158.106L51.552 158.084C36.8728 158.088 22.4023 154.609 9.33031 147.933L9.98974 59.5805L0.142154 59.5663L0.156377 49.7219L118.327 49.8927ZM78.8101 137.647C82.1589 137.258 85.4422 136.705 88.6601 135.988L88.7561 69.5387L78.9086 69.5245L78.8101 137.647ZM49.2663 138.392L68.9614 138.421L69.061 69.5103L49.3658 69.4818L49.2663 138.392ZM29.5751 135.607C32.2034 136.3 35.5408 136.955 38.9277 137.432L39.5182 69.4676L29.6707 69.4533L29.5751 135.607Z" fill="#858585"/>
</svg>
