<svg width="54" height="54" viewBox="0 0 54 54" fill="none" xmlns="http://www.w3.org/2000/svg">
<path d="M14.0574 43.6586L14.0574 43.6584C14.0216 43.2348 14.0112 41.2534 14.0248 38.708C14.0383 36.1803 14.0748 33.1361 14.1287 30.6186C14.1828 28.0905 14.1792 24.1353 14.1623 20.8169C14.1538 19.1566 14.1419 17.6541 14.1322 16.5666C14.1273 16.0229 14.123 15.5828 14.1199 15.2787L14.1193 15.2236L23.885 13.3338L38.4289 14.909L38.4285 14.9296C38.4233 15.2362 38.4158 15.6786 38.4068 16.222C38.3889 17.3089 38.3649 18.8 38.341 20.4168C38.2932 23.649 38.2453 27.3886 38.2453 29.4039C38.2453 30.9156 38.2585 32.9548 38.2721 35.0455C38.28 36.259 38.288 37.4898 38.2935 38.645C38.3012 40.2196 38.3043 41.6536 38.2967 42.7158C38.2928 43.2473 38.2863 43.6824 38.2765 43.9941C38.2715 44.1505 38.2659 44.271 38.2598 44.3552C38.2577 44.384 38.2557 44.406 38.254 44.4221C38.1677 44.6144 37.9281 45.0038 37.67 45.3969C37.5394 45.5959 37.4141 45.7808 37.3214 45.9162C37.2911 45.9605 37.2644 45.9993 37.2421 46.0316L30.9419 49.1548L23.6794 49.4312L16.1992 46.5635C16.1939 46.5577 16.1884 46.5515 16.1827 46.5451C16.1214 46.4766 16.0334 46.3775 15.9275 46.256C15.7153 46.0126 15.4327 45.6811 15.1489 45.3266C14.8638 44.9703 14.584 44.5989 14.3739 44.2743C14.2687 44.1117 14.1863 43.9691 14.1301 43.8518C14.1022 43.7934 14.0832 43.7463 14.0712 43.71C14.0602 43.677 14.0578 43.6609 14.0575 43.6587C14.0574 43.6584 14.0574 43.6584 14.0574 43.6586ZM38.2498 44.4533C38.2498 44.4528 38.2502 44.4505 38.251 44.4466C38.2502 44.4518 38.2498 44.4539 38.2498 44.4533Z" fill="#909196" stroke="black"/>
<path d="M13.6533 45.5209C13.7717 46.0675 17.9026 51.0054 26.2446 51.0054C34.5866 51.0054 38.5853 46.6732 38.6619 46.2263C38.7385 45.7794 38.7524 44.5053 38.7524 44.5053C38.7524 44.5053 34.7015 49.1772 26.3595 49.2179C17.8992 49.2585 13.5524 43.6484 13.5524 43.6484C13.5524 43.6484 13.535 44.9743 13.6533 45.5209Z" fill="black"/>
<path d="M14.1373 14.6924C14.1156 14.6638 14.0981 14.6394 14.0843 14.6198C14.0765 14.5779 14.0663 14.5175 14.0557 14.4383C14.0307 14.2504 14.0034 13.9565 14.0001 13.5526C13.9985 13.2874 14.0223 12.8581 14.0481 12.4818C14.0601 12.3055 14.0723 12.1449 14.0818 12.0251L17.3161 9.45159L38.93 12.6985C38.9354 12.7531 38.9406 12.8131 38.9452 12.8781C38.9688 13.2122 38.9748 13.6663 38.9078 14.1526L38.9076 14.1538C38.8716 14.4194 38.7655 14.761 38.6573 15.0563C38.6049 15.1995 38.5549 15.3241 38.5181 15.4125C38.5077 15.4373 38.4985 15.4592 38.4906 15.4778C38.4711 15.4982 38.4451 15.5246 38.4124 15.5565C38.3196 15.6469 38.1726 15.7809 37.9653 15.9437C37.551 16.269 36.8952 16.71 35.9503 17.1463C34.0629 18.018 31.0064 18.8786 26.3944 18.7476C21.2784 18.6018 18.1697 17.5094 16.357 16.4854C15.45 15.973 14.8629 15.4751 14.508 15.1154C14.3304 14.9353 14.2104 14.7892 14.1373 14.6924ZM14.0992 14.6911C14.0992 14.6913 14.0992 14.6912 14.0992 14.691L14.0992 14.6911Z" fill="#909196" stroke="black"/>
<path d="M26.5351 7.02751L26.535 7.02751C23.4939 6.90973 20.3291 7.39992 17.9377 8.33512C16.7413 8.80302 15.7648 9.3721 15.0931 10.009C14.4247 10.6428 14.0845 11.3158 14.0768 12.014L26.5351 7.02751ZM26.5351 7.02751C29.8759 7.15674 33.0534 7.84776 35.3634 8.88941C36.5194 9.41071 37.4331 10.0086 38.0438 10.6455C38.6518 11.2796 38.9337 11.9224 38.9105 12.5592L38.9105 12.5598M26.5351 7.02751L38.9105 12.5598M38.9105 12.5598C38.8891 13.1635 38.5157 13.775 37.7547 14.3739C36.9983 14.9693 35.9221 15.4993 34.655 15.9391C32.1235 16.8179 28.9467 17.2974 26.3634 17.2775M38.9105 12.5598L26.3634 17.2775M26.3634 17.2775C24.3001 17.2614 21.1521 16.7342 18.5348 15.7675M26.3634 17.2775L18.5348 15.7675M18.5348 15.7675C17.2258 15.284 16.0822 14.7022 15.2775 14.0438M18.5348 15.7675L15.2775 14.0438M15.2775 14.0438C14.4691 13.3823 14.0696 12.7018 14.0768 12.0142L15.2775 14.0438Z" fill="black" stroke="black"/>
<path d="M26.5542 11.2773L26.5551 11.2817C26.5546 11.2814 26.5541 11.2812 26.5537 11.281L26.5542 11.2773ZM16.5633 10.9517C17.7352 9.85431 21.1768 8.23147 26.8378 8.48615L26.838 8.48616C29.8014 8.62054 32.3726 9.22055 34.2243 9.9869C35.1514 10.3706 35.8821 10.7894 36.3893 11.1997C36.9107 11.6215 37.1313 11.9812 37.1733 12.2317L37.1737 12.2339C37.1866 12.3089 37.1852 12.4494 37.1486 12.584C37.1313 12.648 37.1097 12.6965 37.0892 12.7291C37.069 12.7611 37.0563 12.7678 37.0583 12.7667L37.0583 12.7666L37.0522 12.7703C37.0523 12.7702 37.0494 12.7718 37.0434 12.7749C37.0147 12.79 36.9158 12.8419 36.7533 12.926C36.572 13.0199 36.3368 13.141 36.1035 13.261C35.8703 13.381 35.6394 13.4995 35.4667 13.5881L35.3641 13.6407L35.1701 13.5781L34.1406 13.2452C33.2898 12.97 32.1583 12.6034 31.0351 12.2381C29.9118 11.8727 28.7977 11.5089 27.9815 11.2391C27.573 11.104 27.2408 10.9931 27.0196 10.9174C26.908 10.8792 26.829 10.8514 26.7834 10.8345C26.7664 10.8282 26.7598 10.8255 26.7598 10.8255C26.7598 10.8255 26.7626 10.8267 26.7671 10.8289L26.7673 10.8289C26.7707 10.8305 26.786 10.8376 26.8055 10.8492C26.8146 10.8546 26.8365 10.8679 26.8622 10.8885C26.8624 10.8887 26.8628 10.889 26.8633 10.8894C26.8755 10.8989 26.9613 10.9661 27.0112 11.0884C27.035 11.1629 27.0431 11.3422 27.0188 11.4452C26.8505 11.3883 26.7221 11.3441 26.6423 11.3153L26.6291 10.783L26.6283 10.7829C26.6201 10.7816 26.5782 10.7751 26.5266 10.7775C26.5262 10.7775 26.5257 10.7775 26.5251 10.7775C26.5147 10.7779 26.472 10.7796 26.4156 10.7952L26.3432 10.8098C26.27 10.8245 26.1624 10.8459 26.0251 10.8731C25.7507 10.9275 25.3577 11.0046 24.8843 11.0955C23.9373 11.2773 22.6695 11.514 21.3848 11.7342C20.0982 11.9546 18.8021 12.1571 17.7956 12.2716C17.2907 12.3291 16.871 12.363 16.5663 12.3676C16.4126 12.3699 16.3035 12.3645 16.234 12.3551C16.2324 12.3549 16.2308 12.3547 16.2293 12.3545C16.1132 12.2465 16.0291 12.1632 15.9672 12.0824C15.9005 11.9952 15.8855 11.9429 15.8828 11.9064C15.8769 11.8251 15.9216 11.5526 16.5633 10.9517Z" fill="#858585" stroke="black"/>
<path d="M32.7526 9.98846C28.8652 8.82139 22.5069 8.51854 19.1381 10.1029C15.7693 11.6874 15.9781 12.799 15.9781 12.799C15.9781 12.799 18.8736 15.6945 26.4395 15.7906C34.517 15.894 37.3081 13.1905 37.3081 13.1905C37.3081 13.1905 37.0785 11.2885 32.7526 9.98846Z" fill="#909196"/>
<path d="M17.9408 22.3682C17.6937 22.4975 17.6728 22.9776 17.6345 23.587C17.5963 24.1964 17.4814 41.743 17.558 41.9055C17.6345 42.068 20.276 45.0743 26.2863 44.9524C32.0669 44.8343 34.8962 42.6589 34.8962 42.6589C34.8962 42.6589 34.9728 31.5829 35.0111 28.9828C35.0494 26.3828 35.3278 23.3358 35.0111 23.0293C34.4856 22.5196 32.0251 23.2177 26.3246 23.1364C20.624 23.0552 18.4002 22.1245 17.9408 22.3682Z" fill="#909196"/>
<path d="M19.5896 24.5438L19.5885 24.5454C19.5889 24.5449 19.5892 24.5443 19.5896 24.5438ZM19.5896 24.5438C19.5892 24.5443 19.5889 24.5449 19.5885 24.5454C19.528 24.6407 19.4513 24.6725 19.4266 24.6801M19.5896 24.5438C19.6096 24.5117 19.6196 24.4857 19.6228 24.476M19.4266 24.6801L19.5925 24.6728M19.4266 24.6801C19.421 24.6812 19.4185 24.682 19.4187 24.6821C19.4189 24.6822 19.4217 24.6816 19.4266 24.6801ZM19.6228 24.476C19.6212 24.4821 19.6174 24.4982 19.6123 24.5274C19.6058 24.5649 19.5992 24.6132 19.5925 24.6728M19.6228 24.476C19.6244 24.4712 19.6244 24.4704 19.6231 24.4749L19.6228 24.476ZM19.5925 24.6728C19.5881 24.7122 19.5836 24.7566 19.5793 24.806C19.5574 25.0527 19.5397 25.3922 19.5258 25.8021C19.498 26.6202 19.4861 27.6916 19.4826 28.8041C19.4779 30.2955 19.4884 31.837 19.4959 32.9378C19.4996 33.4862 19.5026 33.9252 19.5026 34.1942C19.5026 34.9871 19.4991 36.6386 19.4956 38.0913L19.4909 39.99L19.4893 40.5754C19.5496 40.6263 19.6282 40.69 19.7252 40.7632C19.9941 40.966 20.4031 41.2411 20.9509 41.5174C22.0449 42.0693 23.6959 42.628 25.8995 42.6245C28.1663 42.6209 29.9981 42.2247 31.259 41.8318C31.8893 41.6354 32.3764 41.4399 32.703 41.2952C32.792 41.2558 32.869 41.2201 32.9338 41.1892L32.9488 40.3958C32.9614 39.7205 32.9787 38.7889 32.9972 37.7635C33.0342 35.7122 33.0759 33.287 33.095 31.7872C33.1142 30.2846 33.1421 28.6419 33.166 27.3065C33.1755 26.7742 33.1844 26.2914 33.1919 25.8857C33.1984 25.5363 33.2037 25.2442 33.2076 25.0269C33.1451 25.0245 33.0713 25.0233 32.9854 25.0238C32.5444 25.0262 31.9115 25.0695 31.1462 25.1242C31.0973 25.1276 31.0478 25.1312 30.9979 25.1348C29.5075 25.2415 27.5974 25.3782 25.898 25.298C23.7036 25.1976 22.0586 24.9749 20.9411 24.8236L20.9275 24.8217C20.3605 24.745 19.9568 24.6909 19.6788 24.6762C19.6467 24.6745 19.618 24.6734 19.5925 24.6728ZM33.4494 25.0522C33.4493 25.0522 33.4486 25.052 33.4471 25.0515L33.4494 25.0522ZM33.2134 24.6691L33.2134 24.6703L33.2134 24.6691Z" fill="#909196" stroke="black"/>
<path d="M21.4053 27.7122C21.4058 27.7121 21.4064 27.712 21.4071 27.7119C21.4 27.7134 21.3987 27.7131 21.4053 27.7122ZM21.442 27.7089C21.4494 27.7085 21.4579 27.7081 21.4676 27.7077C21.5409 27.7048 21.6479 27.7057 21.7907 27.7108C22.0749 27.721 22.4595 27.746 22.9188 27.7762L22.9594 27.7789C23.8645 27.8384 25.0276 27.9148 26.1567 27.9241L26.1571 27.9241C26.9938 27.9302 28.0173 27.9077 28.9324 27.8875C29.1218 27.8833 29.3064 27.8792 29.4839 27.8755C30.005 27.8646 30.4615 27.8571 30.7967 27.8592C30.9436 27.8601 31.0608 27.8628 31.147 27.8674C31.1685 27.9244 31.1943 28.035 31.1943 28.2329C31.1943 28.4329 31.1528 28.5881 31.1101 28.6955C31.0705 28.6968 31.0268 28.6981 30.9794 28.6996C30.7169 28.7075 30.3379 28.718 29.8726 28.7279C28.9418 28.7477 27.6668 28.7651 26.2894 28.7559L26.2889 28.7559C24.9735 28.7486 23.7956 28.7164 22.9174 28.6672C22.4774 28.6425 22.1189 28.6139 21.8583 28.5829C21.7274 28.5673 21.6288 28.552 21.5604 28.5379C21.5373 28.5332 21.5211 28.5292 21.5107 28.5265C21.4301 28.4668 21.307 28.3125 21.3437 27.9684L21.3438 27.9678C21.3619 27.7964 21.3929 27.7496 21.3967 27.7441C21.3968 27.744 21.3968 27.744 21.3969 27.7439C21.3979 27.7421 21.4038 27.7323 21.442 27.7089Z" fill="#909196" stroke="black"/>
<path d="M30.5164 35.6929L30.5164 35.6931C30.5574 36.5022 30.2662 37.6524 29.5791 38.5975C28.9044 39.5255 27.8662 40.2349 26.3961 40.2497C24.8677 40.2651 23.7334 39.7431 22.9773 38.9172C22.2149 38.0844 21.7957 36.8968 21.7957 35.5163C21.7957 34.541 22.1199 33.4594 22.8236 32.6299C23.5157 31.8143 24.6 31.2114 26.1992 31.2114C27.793 31.2114 28.8214 31.816 29.4774 32.6453C30.1489 33.4942 30.4625 34.6225 30.5164 35.6929Z" fill="#909196" stroke="black"/>
</svg>
