<svg width="54" height="54" viewBox="0 0 54 54" fill="none" xmlns="http://www.w3.org/2000/svg">
<path d="M14.0574 42.6586L14.0574 42.6584C14.0216 42.2348 14.0112 40.2534 14.0248 37.708C14.0383 35.1803 14.0748 32.1361 14.1287 29.6186C14.1828 27.0905 14.1792 23.1353 14.1623 19.8169C14.1538 18.1566 14.1419 16.6541 14.1322 15.5666C14.1273 15.0229 14.123 14.5828 14.1199 14.2787L14.1193 14.2236L23.885 12.3338L38.4289 13.909L38.4285 13.9296C38.4233 14.2362 38.4158 14.6786 38.4068 15.222C38.3889 16.3089 38.3649 17.8 38.341 19.4168C38.2932 22.649 38.2453 26.3886 38.2453 28.4039C38.2453 29.9156 38.2585 31.9548 38.2721 34.0455C38.28 35.259 38.288 36.4898 38.2935 37.645C38.3012 39.2196 38.3043 40.6536 38.2967 41.7158C38.2928 42.2473 38.2863 42.6824 38.2765 42.9941C38.2715 43.1505 38.2659 43.271 38.2598 43.3552C38.2577 43.384 38.2557 43.406 38.254 43.4221C38.1677 43.6144 37.9281 44.0038 37.67 44.3969C37.5394 44.5959 37.4141 44.7808 37.3214 44.9162C37.2911 44.9605 37.2644 44.9993 37.2421 45.0316L30.9419 48.1548L23.6794 48.4312L16.1992 45.5635C16.1939 45.5577 16.1884 45.5515 16.1827 45.5451C16.1214 45.4766 16.0334 45.3775 15.9275 45.256C15.7153 45.0126 15.4327 44.6811 15.1489 44.3266C14.8638 43.9703 14.584 43.5989 14.3739 43.2743C14.2687 43.1117 14.1863 42.9691 14.1301 42.8518C14.1022 42.7934 14.0832 42.7463 14.0712 42.71C14.0602 42.677 14.0578 42.6609 14.0575 42.6587C14.0574 42.6584 14.0574 42.6584 14.0574 42.6586ZM38.2498 43.4533C38.2498 43.4528 38.2502 43.4505 38.251 43.4466C38.2502 43.4518 38.2498 43.4539 38.2498 43.4533Z" fill="white" stroke="black"/>
<path d="M13.6533 44.5209C13.7717 45.0675 17.9026 50.0054 26.2446 50.0054C34.5866 50.0054 38.5853 45.6732 38.6619 45.2263C38.7385 44.7794 38.7524 43.5053 38.7524 43.5053C38.7524 43.5053 34.7015 48.1772 26.3595 48.2179C17.8992 48.2585 13.5524 42.6484 13.5524 42.6484C13.5524 42.6484 13.535 43.9743 13.6533 44.5209Z" fill="black"/>
<path d="M14.1373 13.6924C14.1156 13.6638 14.0981 13.6394 14.0843 13.6198C14.0765 13.5779 14.0663 13.5175 14.0557 13.4383C14.0307 13.2504 14.0034 12.9565 14.0001 12.5526C13.9985 12.2874 14.0223 11.8581 14.0481 11.4818C14.0601 11.3055 14.0723 11.1449 14.0818 11.0251L17.3161 8.45159L38.93 11.6985C38.9354 11.7531 38.9406 11.8131 38.9452 11.8781C38.9688 12.2122 38.9748 12.6663 38.9078 13.1526L38.9076 13.1538C38.8716 13.4194 38.7655 13.761 38.6573 14.0563C38.6049 14.1995 38.5549 14.3241 38.5181 14.4125C38.5077 14.4373 38.4985 14.4592 38.4906 14.4778C38.4711 14.4982 38.4451 14.5246 38.4124 14.5565C38.3196 14.6469 38.1726 14.7809 37.9653 14.9437C37.551 15.269 36.8952 15.71 35.9503 16.1463C34.0629 17.018 31.0064 17.8786 26.3944 17.7476C21.2784 17.6018 18.1697 16.5094 16.357 15.4854C15.45 14.973 14.8629 14.4751 14.508 14.1154C14.3304 13.9353 14.2104 13.7892 14.1373 13.6924ZM14.0992 13.6911C14.0992 13.6913 14.0992 13.6912 14.0992 13.691L14.0992 13.6911Z" fill="white" stroke="black"/>
<path d="M26.5349 6.02751L26.5349 6.02751C23.4937 5.90973 20.3289 6.39992 17.9376 7.33512C16.7412 7.80302 15.7646 8.3721 15.093 9.00897C14.4245 9.64278 14.0844 10.3158 14.0766 11.014L26.5349 6.02751ZM26.5349 6.02751C29.8758 6.15674 33.0533 6.84776 35.3633 7.88941C36.5193 8.41071 37.433 9.00858 38.0437 9.64555C38.6516 10.2796 38.9336 10.9224 38.9104 11.5592L38.9104 11.5598M26.5349 6.02751L38.9104 11.5598M38.9104 11.5598C38.889 12.1635 38.5156 12.775 37.7546 13.3739C36.9981 13.9693 35.922 14.4993 34.6548 14.9391C32.1233 15.8179 28.9465 16.2974 26.3633 16.2775M38.9104 11.5598L26.3633 16.2775M26.3633 16.2775C24.3 16.2614 21.1519 15.7342 18.5347 14.7675M26.3633 16.2775L18.5347 14.7675M18.5347 14.7675C17.2256 14.284 16.082 13.7022 15.2774 13.0438M18.5347 14.7675L15.2774 13.0438M15.2774 13.0438C14.469 12.3823 14.0694 11.7018 14.0766 11.0142L15.2774 13.0438Z" fill="black" stroke="black"/>
<path d="M26.5541 10.2773L26.555 10.2817C26.5545 10.2814 26.554 10.2812 26.5535 10.281L26.5541 10.2773ZM16.5632 9.95168C17.7351 8.85431 21.1767 7.23147 26.8377 7.48615L26.8379 7.48616C29.8013 7.62054 32.3725 8.22055 34.2242 8.9869C35.1513 9.37061 35.882 9.7894 36.3892 10.1997C36.9106 10.6215 37.1312 10.9812 37.1732 11.2317L37.1736 11.2339C37.1865 11.3089 37.185 11.4494 37.1485 11.584C37.1311 11.648 37.1095 11.6965 37.089 11.7291C37.0689 11.7611 37.0562 11.7678 37.0582 11.7667L37.0582 11.7666L37.052 11.7703C37.0522 11.7702 37.0492 11.7718 37.0433 11.7749C37.0145 11.79 36.9157 11.8419 36.7531 11.926C36.5719 12.0199 36.3367 12.141 36.1034 12.261C35.8702 12.381 35.6392 12.4995 35.4666 12.5881L35.364 12.6407L35.1699 12.5781L34.1405 12.2452C33.2897 11.97 32.1581 11.6034 31.035 11.2381C29.9117 10.8727 28.7976 10.5089 27.9813 10.2391C27.5729 10.104 27.2406 9.99306 27.0195 9.91737C26.9079 9.87916 26.8289 9.8514 26.7833 9.83448C26.7663 9.82818 26.7597 9.82548 26.7597 9.82552C26.7597 9.82554 26.7625 9.82673 26.767 9.82885L26.7672 9.82892C26.7706 9.83051 26.7859 9.83765 26.8054 9.84919C26.8145 9.85458 26.8364 9.86789 26.8621 9.8885C26.8623 9.8887 26.8627 9.88898 26.8632 9.88936C26.8754 9.89895 26.9611 9.96613 27.0111 10.0884C27.0349 10.1629 27.043 10.3422 27.0187 10.4452C26.8504 10.3883 26.722 10.3441 26.6422 10.3153L26.629 9.783L26.6282 9.78286C26.62 9.78159 26.5781 9.77509 26.5265 9.77747C26.5261 9.77749 26.5256 9.77751 26.525 9.77753C26.5146 9.77793 26.4718 9.77955 26.4155 9.79524L26.3431 9.80978C26.2698 9.82446 26.1622 9.84595 26.025 9.87312C25.7505 9.92748 25.3576 10.0046 24.8842 10.0955C23.9372 10.2773 22.6694 10.514 21.3847 10.7342C20.098 10.9546 18.802 11.1571 17.7955 11.2716C17.2906 11.3291 16.8708 11.363 16.5662 11.3676C16.4125 11.3699 16.3034 11.3645 16.2338 11.3551C16.2322 11.3549 16.2307 11.3547 16.2292 11.3545C16.1131 11.2465 16.029 11.1632 15.9671 11.0824C15.9004 10.9952 15.8853 10.9429 15.8827 10.9064C15.8768 10.8251 15.9215 10.5526 16.5632 9.95168Z" fill="#858585" stroke="black"/>
<path d="M32.7525 8.98846C28.8651 7.82139 22.5068 7.51854 19.138 9.10295C15.7692 10.6874 15.978 11.799 15.978 11.799C15.978 11.799 18.8735 14.6945 26.4394 14.7906C34.5169 14.894 37.308 12.1905 37.308 12.1905C37.308 12.1905 37.0783 10.2885 32.7525 8.98846Z" fill="white"/>
<path d="M17.9407 21.3682C17.6936 21.4975 17.6727 21.9776 17.6344 22.587C17.5961 23.1964 17.4813 40.743 17.5579 40.9055C17.6344 41.068 20.2759 44.0743 26.2861 43.9524C32.0667 43.8343 34.8961 41.6589 34.8961 41.6589C34.8961 41.6589 34.9727 30.5829 35.011 27.9828C35.0492 25.3828 35.3277 22.3358 35.011 22.0293C34.4855 21.5196 32.025 22.2177 26.3244 22.1364C20.6239 22.0552 18.4001 21.1245 17.9407 21.3682Z" fill="white"/>
<path d="M19.5894 23.5438L19.5884 23.5454C19.5888 23.5449 19.5891 23.5443 19.5894 23.5438ZM19.5894 23.5438C19.5891 23.5443 19.5887 23.5449 19.5884 23.5454C19.5279 23.6407 19.4511 23.6725 19.4265 23.6801M19.5894 23.5438C19.6095 23.5117 19.6194 23.4857 19.6227 23.476M19.4265 23.6801L19.5924 23.6728M19.4265 23.6801C19.4208 23.6812 19.4184 23.682 19.4186 23.6821C19.4187 23.6822 19.4216 23.6816 19.4265 23.6801ZM19.6227 23.476C19.621 23.4821 19.6172 23.4982 19.6122 23.5274C19.6057 23.5649 19.599 23.6132 19.5924 23.6728M19.6227 23.476C19.6243 23.4712 19.6243 23.4704 19.623 23.4749L19.6227 23.476ZM19.5924 23.6728C19.5879 23.7122 19.5835 23.7566 19.5791 23.806C19.5573 24.0527 19.5396 24.3922 19.5257 24.8021C19.4979 25.6202 19.4859 26.6916 19.4825 27.8041C19.4778 29.2955 19.4883 30.837 19.4958 31.9378C19.4995 32.4862 19.5025 32.9252 19.5025 33.1942C19.5025 33.9871 19.499 35.6386 19.4955 37.0913L19.4907 38.99L19.4892 39.5754C19.5495 39.6263 19.6281 39.69 19.7251 39.7632C19.994 39.966 20.403 40.2411 20.9508 40.5174C22.0448 41.0693 23.6958 41.628 25.8994 41.6245C28.1662 41.6209 29.998 41.2247 31.2588 40.8318C31.8892 40.6354 32.3763 40.4399 32.7029 40.2952C32.7919 40.2558 32.8689 40.2201 32.9337 40.1892L32.9486 39.3958C32.9613 38.7205 32.9786 37.7889 32.9971 36.7635C33.0341 34.7122 33.0758 32.287 33.0949 30.7872C33.1141 29.2846 33.1419 27.6419 33.1659 26.3065C33.1754 25.7742 33.1843 25.2914 33.1918 24.8857C33.1982 24.5363 33.2036 24.2442 33.2074 24.0269C33.1449 24.0245 33.0712 24.0233 32.9853 24.0238C32.5442 24.0262 31.9114 24.0695 31.1461 24.1242C31.0971 24.1276 31.0477 24.1312 30.9978 24.1348C29.5073 24.2415 27.5973 24.3782 25.8979 24.298C23.7034 24.1976 22.0585 23.9749 20.941 23.8236L20.9274 23.8217C20.3604 23.745 19.9566 23.6909 19.6787 23.6762C19.6466 23.6745 19.6179 23.6734 19.5924 23.6728ZM33.4492 24.0522C33.4492 24.0522 33.4484 24.052 33.447 24.0515L33.4492 24.0522ZM33.2133 23.6691L33.2132 23.6703L33.2133 23.6691Z" fill="white" stroke="black"/>
<path d="M21.4053 26.7122C21.4058 26.7121 21.4064 26.712 21.4071 26.7119C21.4 26.7134 21.3987 26.7131 21.4053 26.7122ZM21.442 26.7089C21.4494 26.7085 21.4579 26.7081 21.4676 26.7077C21.5409 26.7048 21.6479 26.7057 21.7907 26.7108C22.0749 26.721 22.4595 26.746 22.9188 26.7762L22.9594 26.7789C23.8645 26.8384 25.0276 26.9148 26.1567 26.9241L26.1571 26.9241C26.9938 26.9302 28.0173 26.9077 28.9324 26.8875C29.1218 26.8833 29.3064 26.8792 29.4839 26.8755C30.005 26.8646 30.4615 26.8571 30.7967 26.8592C30.9436 26.8601 31.0608 26.8628 31.147 26.8674C31.1685 26.9244 31.1943 27.035 31.1943 27.2329C31.1943 27.4329 31.1528 27.5881 31.1101 27.6955C31.0705 27.6968 31.0268 27.6981 30.9794 27.6996C30.7169 27.7075 30.3379 27.718 29.8726 27.7279C28.9418 27.7477 27.6668 27.7651 26.2894 27.7559L26.2889 27.7559C24.9735 27.7486 23.7956 27.7164 22.9174 27.6672C22.4774 27.6425 22.1189 27.6139 21.8583 27.5829C21.7274 27.5673 21.6288 27.552 21.5604 27.5379C21.5373 27.5332 21.5211 27.5292 21.5107 27.5265C21.4301 27.4668 21.307 27.3125 21.3437 26.9684L21.3438 26.9678C21.3619 26.7964 21.3929 26.7496 21.3967 26.7441C21.3968 26.744 21.3968 26.744 21.3969 26.7439C21.3979 26.7421 21.4038 26.7323 21.442 26.7089Z" fill="white" stroke="black"/>
<path d="M30.5163 34.6929L30.5163 34.6931C30.5573 35.5022 30.2661 36.6524 29.579 37.5975C28.9043 38.5255 27.866 39.2349 26.3959 39.2497C24.8676 39.2651 23.7333 38.7431 22.9772 37.9172C22.2147 37.0844 21.7955 35.8968 21.7955 34.5163C21.7955 33.541 22.1198 32.4594 22.8235 31.6299C23.5156 30.8143 24.5998 30.2114 26.1991 30.2114C27.7929 30.2114 28.8213 30.816 29.4772 31.6453C30.1487 32.4942 30.4624 33.6225 30.5163 34.6929Z" fill="white" stroke="black"/>
</svg>
