<svg width="112" height="112" viewBox="0 0 112 112" fill="none" xmlns="http://www.w3.org/2000/svg">
<circle cx="56" cy="56" r="56" fill="white" fill-opacity="0.9"/>
<circle cx="56.7466" cy="56.7468" r="49.28" fill="#4E83D3"/>
<path d="M43.1947 63.9895L32.9653 53.7602C32.484 53.2794 32.1297 52.6865 31.9342 52.0349C31.7387 51.3832 31.7082 50.6932 31.8453 50.0269C31.9782 49.2942 32.3043 48.6103 32.79 48.0458C33.2757 47.4814 33.9033 47.0569 34.608 46.8162L74.6667 33.4509C75.4172 33.1719 76.2321 33.1144 77.0145 33.2851C77.7968 33.4557 78.5137 33.8474 79.0799 34.4136C79.6461 34.9799 80.0378 35.6967 80.2085 36.4791C80.3791 37.2614 80.3216 38.0763 80.0427 38.8269L66.6773 78.8855C66.4526 79.5667 66.0564 80.1787 65.5268 80.6625C64.9972 81.1463 64.352 81.4858 63.6533 81.6482C62.959 81.8189 62.2321 81.8054 61.5445 81.609C60.857 81.4125 60.2327 81.04 59.7333 80.5282L51.5947 72.4269L42.8587 76.9442L43.1947 63.9895ZM43.1947 63.9895L78.848 34.2722" stroke="white" stroke-opacity="0.9" stroke-width="1.49333" stroke-linecap="round" stroke-linejoin="round"/>
</svg>
