<svg width="54" height="54" viewBox="0 0 54 54" fill="none" xmlns="http://www.w3.org/2000/svg">
<rect width="54" height="54" fill="white"/>
<mask id="path-1-inside-1_81_248" fill="white">
<path d="M22.6597 20.1556L24.3202 20.4414L22.6574 20.1556H22.6597ZM29.1442 47.2479L30.4874 48.2671L29.1419 47.2479H29.1442ZM39.5077 5.46763L38.6369 6.91213L39.5077 5.46538V5.46763ZM35.1742 9.31513L40.0162 12.2311L41.7577 9.33988L36.9157 6.42388L35.1742 9.31513ZM19.5817 45.3826L18.0854 44.4826L16.3439 47.3739L17.8402 48.2739L19.5817 45.3826ZM29.9474 38.4751L29.3894 40.9389L32.6812 41.6859L33.2392 39.2221L29.9474 38.4751ZM16.8142 33.2371L18.5804 31.5024L16.2134 29.0949L14.4494 30.8319L16.8142 33.2371ZM29.9654 12.7351L36.7874 9.38263L35.3002 6.35413L28.4782 9.70663L29.9654 12.7351ZM39.2039 10.9194L39.8339 18.7606L43.1954 18.4906L42.5677 10.6516L39.2039 10.9194ZM37.5209 8.68513L38.4794 6.95263L35.5274 5.31688L34.5667 7.05163L37.5209 8.68513ZM38.6369 6.90763L40.3919 7.96738L42.1334 5.07613L40.3784 4.01863L38.6369 6.91213V6.90763ZM40.4324 8.11813L39.4087 9.96763L42.3629 11.6034L43.3867 9.75388L40.4324 8.11813ZM39.8317 18.7606L39.8632 19.1566L43.2314 18.9429L43.1954 18.4906L39.8317 18.7606ZM38.4952 30.2919C38.6482 30.1569 38.7404 30.0781 38.8259 29.9994L36.5534 27.5019L36.2654 27.7584L38.4952 30.2919ZM39.8632 19.1544C40.0657 22.3471 38.8282 25.4296 36.5534 27.5019L38.8259 29.9994C41.8814 27.2139 43.4969 23.1256 43.2314 18.9429L39.8632 19.1566V19.1544ZM24.3202 20.4414L24.3877 20.0521L21.0734 19.4266C21.0509 19.5436 21.0284 19.6651 20.9947 19.8699L24.3202 20.4414ZM28.4782 9.70663C28.2982 9.79438 28.1879 9.84838 28.0844 9.90238L29.6257 12.9039L29.9654 12.7351L28.4782 9.70663ZM24.3899 20.0521C24.9794 16.9224 26.9279 14.2899 29.6257 12.9039L28.0844 9.90238C24.4259 11.7811 21.8474 15.3114 21.0734 19.4266L24.3899 20.0521ZM18.5804 31.5001L18.8819 31.2009L16.4879 28.8204L16.2134 29.0949L18.5804 31.5001ZM20.9924 19.8676C20.9706 19.9983 20.9481 20.1288 20.9249 20.2591L24.2437 20.8666C24.2662 20.7541 24.2842 20.6416 24.3179 20.4391L20.9947 19.8676H20.9924ZM18.8797 31.2009C21.6699 28.3757 23.5399 24.7723 24.2437 20.8644L20.9249 20.2591C20.3432 23.4962 18.7979 26.4792 16.4879 28.8204L18.8797 31.2009ZM33.2347 39.2199L33.3247 38.8351L30.0397 38.0521L29.9452 38.4751L33.2369 39.2199H33.2347ZM36.2632 27.7561L35.9459 28.0374L38.2049 30.5439L38.4929 30.2896L36.2654 27.7584L36.2632 27.7561ZM33.3247 38.8351C34.074 35.6409 35.7759 32.7495 38.2049 30.5439L35.9459 28.0374C33.0088 30.7005 30.95 34.1951 30.0419 38.0544L33.3247 38.8351ZM18.0832 44.4826C16.6634 43.6254 15.6757 43.0291 14.9444 42.5139C14.2199 42.0054 13.8824 41.6656 13.6867 41.3754L10.8899 43.2654C11.4209 44.0529 12.1454 44.6716 13.0027 45.2746C13.8532 45.8731 14.9647 46.5414 16.3417 47.3716L18.0832 44.4804V44.4826ZM14.4472 30.8274C13.2929 31.9636 12.3614 32.8749 11.6707 33.6601C10.9732 34.4476 10.4107 35.2216 10.0732 36.1081L13.2254 37.3096C13.3514 36.9766 13.6079 36.5626 14.1997 35.8944C14.7937 35.2194 15.6239 34.4049 16.8119 33.2349L14.4472 30.8274ZM13.6867 41.3754C13.2916 40.7834 13.0436 40.1056 12.9633 39.3984C12.8831 38.6912 12.973 37.9751 13.2254 37.3096L10.0709 36.1081C9.62602 37.2795 9.46821 38.5403 9.6107 39.7852C9.75319 41.03 10.1918 42.2249 10.8899 43.2654L13.6867 41.3754ZM17.8379 48.2716C19.2149 49.1041 20.3242 49.7724 21.2489 50.2426C22.1759 50.7151 23.0647 51.0661 24.0052 51.1539L24.3202 47.7946C24.0052 47.7654 23.5664 47.6371 22.7789 47.2344C21.9892 46.8316 21.0014 46.2376 19.5794 45.3804L17.8379 48.2716ZM29.3872 40.9366C29.0114 42.5949 28.7459 43.7559 28.4849 44.6356C28.2217 45.5109 28.0057 45.9519 27.7964 46.2264L30.4852 48.2649C31.0567 47.5111 31.4144 46.6201 31.7182 45.6009C32.0197 44.5884 32.3122 43.2946 32.6789 41.6836L29.3872 40.9366ZM24.0052 51.1539C25.2421 51.2655 26.487 51.0587 27.6213 50.553C28.7556 50.0473 29.7415 49.2596 30.4852 48.2649L27.7942 46.2264C27.3979 46.7629 26.8707 47.1888 26.2629 47.4633C25.655 47.7379 24.9869 47.852 24.3224 47.7946L24.0074 51.1561L24.0052 51.1539ZM40.3919 7.96738L40.7137 8.16088C40.7992 8.21488 40.8509 8.25088 40.8824 8.27338C40.9477 8.31838 40.8554 8.26663 40.7654 8.12263L43.6094 6.30463C43.4088 6.00028 43.1513 5.73748 42.8512 5.53063C42.6352 5.37313 42.3697 5.21563 42.1312 5.07388L40.3919 7.96738ZM43.3844 9.74938C43.5194 9.50638 43.6679 9.23863 43.7782 8.99563C43.8974 8.73463 44.0279 8.37913 44.0482 7.94713L40.6754 7.79413C40.6844 7.62313 40.7362 7.53313 40.7047 7.60513L40.6124 7.78513L40.4324 8.11813L43.3844 9.74938ZM40.7654 8.12263C40.703 8.02481 40.6701 7.91006 40.6754 7.79413L44.0482 7.94713C44.0749 7.36748 43.9216 6.79376 43.6094 6.30463L40.7654 8.12263ZM38.4772 6.94813L38.6752 6.59713C38.7292 6.50038 38.7652 6.44413 38.7877 6.40813C38.8372 6.33388 38.7877 6.43288 38.6347 6.53413L36.7762 3.71713C36.3937 3.96913 36.1462 4.28638 35.9797 4.53613C35.8244 4.76788 35.6692 5.05363 35.5252 5.31463L38.4772 6.94813ZM40.3762 4.01638C40.1219 3.86338 39.8429 3.69238 39.5909 3.56863C39.2499 3.391 38.8764 3.2846 38.4929 3.25588L38.2904 6.62638C38.1104 6.61513 38.0159 6.55438 38.0947 6.59488C38.1329 6.61288 38.1914 6.64438 38.2859 6.70063C38.3827 6.75463 38.4907 6.82213 38.6347 6.90763L40.3762 4.01638ZM38.6347 6.53413C38.5327 6.60059 38.4119 6.63442 38.2904 6.62638L38.4929 3.25588C37.8859 3.21999 37.2835 3.38182 36.7762 3.71713L38.6347 6.53413Z"/>
</mask>
<path d="M22.6597 20.1556L24.3202 20.4414L22.6574 20.1556H22.6597ZM29.1442 47.2479L30.4874 48.2671L29.1419 47.2479H29.1442ZM39.5077 5.46763L38.6369 6.91213L39.5077 5.46538V5.46763ZM35.1742 9.31513L40.0162 12.2311L41.7577 9.33988L36.9157 6.42388L35.1742 9.31513ZM19.5817 45.3826L18.0854 44.4826L16.3439 47.3739L17.8402 48.2739L19.5817 45.3826ZM29.9474 38.4751L29.3894 40.9389L32.6812 41.6859L33.2392 39.2221L29.9474 38.4751ZM16.8142 33.2371L18.5804 31.5024L16.2134 29.0949L14.4494 30.8319L16.8142 33.2371ZM29.9654 12.7351L36.7874 9.38263L35.3002 6.35413L28.4782 9.70663L29.9654 12.7351ZM39.2039 10.9194L39.8339 18.7606L43.1954 18.4906L42.5677 10.6516L39.2039 10.9194ZM37.5209 8.68513L38.4794 6.95263L35.5274 5.31688L34.5667 7.05163L37.5209 8.68513ZM38.6369 6.90763L40.3919 7.96738L42.1334 5.07613L40.3784 4.01863L38.6369 6.91213V6.90763ZM40.4324 8.11813L39.4087 9.96763L42.3629 11.6034L43.3867 9.75388L40.4324 8.11813ZM39.8317 18.7606L39.8632 19.1566L43.2314 18.9429L43.1954 18.4906L39.8317 18.7606ZM38.4952 30.2919C38.6482 30.1569 38.7404 30.0781 38.8259 29.9994L36.5534 27.5019L36.2654 27.7584L38.4952 30.2919ZM39.8632 19.1544C40.0657 22.3471 38.8282 25.4296 36.5534 27.5019L38.8259 29.9994C41.8814 27.2139 43.4969 23.1256 43.2314 18.9429L39.8632 19.1566V19.1544ZM24.3202 20.4414L24.3877 20.0521L21.0734 19.4266C21.0509 19.5436 21.0284 19.6651 20.9947 19.8699L24.3202 20.4414ZM28.4782 9.70663C28.2982 9.79438 28.1879 9.84838 28.0844 9.90238L29.6257 12.9039L29.9654 12.7351L28.4782 9.70663ZM24.3899 20.0521C24.9794 16.9224 26.9279 14.2899 29.6257 12.9039L28.0844 9.90238C24.4259 11.7811 21.8474 15.3114 21.0734 19.4266L24.3899 20.0521ZM18.5804 31.5001L18.8819 31.2009L16.4879 28.8204L16.2134 29.0949L18.5804 31.5001ZM20.9924 19.8676C20.9706 19.9983 20.9481 20.1288 20.9249 20.2591L24.2437 20.8666C24.2662 20.7541 24.2842 20.6416 24.3179 20.4391L20.9947 19.8676H20.9924ZM18.8797 31.2009C21.6699 28.3757 23.5399 24.7723 24.2437 20.8644L20.9249 20.2591C20.3432 23.4962 18.7979 26.4792 16.4879 28.8204L18.8797 31.2009ZM33.2347 39.2199L33.3247 38.8351L30.0397 38.0521L29.9452 38.4751L33.2369 39.2199H33.2347ZM36.2632 27.7561L35.9459 28.0374L38.2049 30.5439L38.4929 30.2896L36.2654 27.7584L36.2632 27.7561ZM33.3247 38.8351C34.074 35.6409 35.7759 32.7495 38.2049 30.5439L35.9459 28.0374C33.0088 30.7005 30.95 34.1951 30.0419 38.0544L33.3247 38.8351ZM18.0832 44.4826C16.6634 43.6254 15.6757 43.0291 14.9444 42.5139C14.2199 42.0054 13.8824 41.6656 13.6867 41.3754L10.8899 43.2654C11.4209 44.0529 12.1454 44.6716 13.0027 45.2746C13.8532 45.8731 14.9647 46.5414 16.3417 47.3716L18.0832 44.4804V44.4826ZM14.4472 30.8274C13.2929 31.9636 12.3614 32.8749 11.6707 33.6601C10.9732 34.4476 10.4107 35.2216 10.0732 36.1081L13.2254 37.3096C13.3514 36.9766 13.6079 36.5626 14.1997 35.8944C14.7937 35.2194 15.6239 34.4049 16.8119 33.2349L14.4472 30.8274ZM13.6867 41.3754C13.2916 40.7834 13.0436 40.1056 12.9633 39.3984C12.8831 38.6912 12.973 37.9751 13.2254 37.3096L10.0709 36.1081C9.62602 37.2795 9.46821 38.5403 9.6107 39.7852C9.75319 41.03 10.1918 42.2249 10.8899 43.2654L13.6867 41.3754ZM17.8379 48.2716C19.2149 49.1041 20.3242 49.7724 21.2489 50.2426C22.1759 50.7151 23.0647 51.0661 24.0052 51.1539L24.3202 47.7946C24.0052 47.7654 23.5664 47.6371 22.7789 47.2344C21.9892 46.8316 21.0014 46.2376 19.5794 45.3804L17.8379 48.2716ZM29.3872 40.9366C29.0114 42.5949 28.7459 43.7559 28.4849 44.6356C28.2217 45.5109 28.0057 45.9519 27.7964 46.2264L30.4852 48.2649C31.0567 47.5111 31.4144 46.6201 31.7182 45.6009C32.0197 44.5884 32.3122 43.2946 32.6789 41.6836L29.3872 40.9366ZM24.0052 51.1539C25.2421 51.2655 26.487 51.0587 27.6213 50.553C28.7556 50.0473 29.7415 49.2596 30.4852 48.2649L27.7942 46.2264C27.3979 46.7629 26.8707 47.1888 26.2629 47.4633C25.655 47.7379 24.9869 47.852 24.3224 47.7946L24.0074 51.1561L24.0052 51.1539ZM40.3919 7.96738L40.7137 8.16088C40.7992 8.21488 40.8509 8.25088 40.8824 8.27338C40.9477 8.31838 40.8554 8.26663 40.7654 8.12263L43.6094 6.30463C43.4088 6.00028 43.1513 5.73748 42.8512 5.53063C42.6352 5.37313 42.3697 5.21563 42.1312 5.07388L40.3919 7.96738ZM43.3844 9.74938C43.5194 9.50638 43.6679 9.23863 43.7782 8.99563C43.8974 8.73463 44.0279 8.37913 44.0482 7.94713L40.6754 7.79413C40.6844 7.62313 40.7362 7.53313 40.7047 7.60513L40.6124 7.78513L40.4324 8.11813L43.3844 9.74938ZM40.7654 8.12263C40.703 8.02481 40.6701 7.91006 40.6754 7.79413L44.0482 7.94713C44.0749 7.36748 43.9216 6.79376 43.6094 6.30463L40.7654 8.12263ZM38.4772 6.94813L38.6752 6.59713C38.7292 6.50038 38.7652 6.44413 38.7877 6.40813C38.8372 6.33388 38.7877 6.43288 38.6347 6.53413L36.7762 3.71713C36.3937 3.96913 36.1462 4.28638 35.9797 4.53613C35.8244 4.76788 35.6692 5.05363 35.5252 5.31463L38.4772 6.94813ZM40.3762 4.01638C40.1219 3.86338 39.8429 3.69238 39.5909 3.56863C39.2499 3.391 38.8764 3.2846 38.4929 3.25588L38.2904 6.62638C38.1104 6.61513 38.0159 6.55438 38.0947 6.59488C38.1329 6.61288 38.1914 6.64438 38.2859 6.70063C38.3827 6.75463 38.4907 6.82213 38.6347 6.90763L40.3762 4.01638ZM38.6347 6.53413C38.5327 6.60059 38.4119 6.63442 38.2904 6.62638L38.4929 3.25588C37.8859 3.21999 37.2835 3.38182 36.7762 3.71713L38.6347 6.53413Z" fill="#909196"/>
<path d="M43.2314 18.9429L43.2631 19.4419L43.2001 18.4439L43.2314 18.9429ZM29.9654 12.7351L29.5168 12.9558L30.4142 12.5147L29.9654 12.7351ZM29.6257 12.9039L29.1809 13.1323L30.0706 12.6758L29.6257 12.9039ZM41.5524 19.124L43.2354 18.989L43.1555 17.9922L41.4725 18.1272L41.5524 19.124ZM41.5775 19.5477L43.2627 19.4419L43.2001 18.4439L41.5149 18.5496L41.5775 19.5477ZM37.0059 29.3553L38.1197 30.622L38.8707 29.9617L37.7569 28.695L37.0059 29.3553ZM37.3202 29.0875L38.4564 30.334L39.1954 29.6603L38.0592 28.4138L37.3202 29.0875ZM22.639 20.2307L24.2973 20.5435L24.4826 19.5608L22.8243 19.248L22.639 20.2307ZM28.772 11.4416L29.5168 12.9558L30.4141 12.5145L29.6694 11.0002L28.772 11.4416ZM28.4113 11.6313L29.1808 13.132L30.0706 12.6758L29.3011 11.175L28.4113 11.6313ZM17.7535 29.9481L16.57 28.7443L15.8569 29.4454L17.0404 30.6492L17.7535 29.9481ZM17.3324 30.3674L18.5294 31.5577L19.2345 30.8486L18.0375 29.6583L17.3324 30.3674ZM22.4976 21.0547L24.1558 21.3584L24.336 20.3748L22.6778 20.0711L22.4976 21.0547ZM31.4822 39.3386L33.1292 39.7099L33.3491 38.7344L31.7021 38.3631L31.4822 39.3386ZM31.8004 37.9595L30.1579 37.568L29.926 38.5408L31.5685 38.9323L31.8004 37.9595ZM36.7063 29.6276L37.8358 30.8809L38.5786 30.2114L37.4491 28.9581L36.7063 29.6276ZM17.6408 46.1872L18.5116 44.7405L17.6548 44.2248L16.784 45.6716L17.6408 46.1872ZM12.0093 41.9085L10.6121 42.8535L11.1723 43.6818L12.5695 42.7368L12.0093 41.9085ZM15.2761 32.3836L16.4573 33.5873L17.1711 32.8869L15.9898 31.6832L15.2761 32.3836ZM11.8292 36.2464L10.2542 35.6434L9.89666 36.5773L11.4717 37.1803L11.8292 36.2464ZM18.2827 46.5713L17.412 48.0158L18.2684 48.532L19.1391 47.0875L18.2827 46.5713ZM23.6671 49.4287L23.5096 51.1095L24.5052 51.2028L24.6627 49.522L23.6671 49.4287ZM31.1449 40.8248L29.5002 40.4513L29.2787 41.4265L30.9235 41.8L31.1449 40.8248ZM41.6933 6.78297L42.5641 5.33622L41.7073 4.82055L40.8365 6.2673L41.6933 6.78297ZM42.4564 7.63961L43.8807 6.73061L43.3427 5.88766L41.9184 6.79666L42.4564 7.63961ZM41.6686 9.37462L43.1446 10.1914L43.6288 9.3164L42.1528 8.49965L41.6686 9.37462ZM42.3878 7.37565L40.7003 7.29915L40.655 8.29812L42.3425 8.37462L42.3878 7.37565ZM37.2455 5.6984L35.7695 4.88165L35.2853 5.75662L36.7613 6.57337L37.2455 5.6984ZM37.2903 5.40548L38.2196 6.81398L39.0543 6.26328L38.125 4.85478L37.2903 5.40548ZM38.893 4.97562L38.9943 3.29037L37.9961 3.2304L37.8948 4.91565L38.893 4.97562ZM28.0294 9.92703L29.5166 12.9555L30.4142 12.5147L28.927 9.48623L28.0294 9.92703ZM39.8948 19.6556L43.2631 19.4419L43.1998 18.4439L39.8315 18.6576L39.8948 19.6556ZM39.1958 29.6629L36.9232 27.1654L36.1836 27.8384L38.4561 30.3359L39.1958 29.6629ZM27.6396 10.1308L29.1809 13.1323L30.0705 12.6755L28.5292 9.67399L27.6396 10.1308ZM35.5745 28.3721L37.8335 30.8786L38.5763 30.2091L36.3173 27.7026L35.5745 28.3721ZM13.4067 40.9611L10.61 42.8511L11.1699 43.6797L13.9666 41.7897L13.4067 40.9611ZM41.0347 8.54391L43.8787 6.72591L43.3401 5.88335L40.4961 7.70135L41.0347 8.54391ZM44.0708 7.44765L40.6981 7.29465L40.6528 8.29362L44.0255 8.44662L44.0708 7.44765ZM39.052 6.25879L37.1935 3.44178L36.3588 3.99248L38.2173 6.80948L39.052 6.25879ZM37.9938 3.2259L37.7913 6.5964L38.7895 6.65637L38.992 3.28587L37.9938 3.2259ZM43.1954 18.4906L44.1923 18.4113L44.1922 18.4108L43.1954 18.4906ZM43.2314 18.9429L44.2294 18.8795L44.2289 18.8715L44.2283 18.8635L43.2314 18.9429ZM38.4952 30.2919L37.7445 30.9526L38.406 31.7042L39.1568 31.0417L38.4952 30.2919ZM22.6597 20.1556L22.8293 19.1701L22.7451 19.1556H22.6597V20.1556ZM24.3202 20.4414L24.1508 21.4269L25.1349 21.5961L25.3055 20.6122L24.3202 20.4414ZM22.6574 20.1556V19.1556L22.4881 21.1412L22.6574 20.1556ZM24.3899 20.0521L24.2046 21.0348L25.1875 21.2202L25.3727 20.2372L24.3899 20.0521ZM29.9654 12.7351L29.5244 11.8376L29.5206 11.8395L29.9654 12.7351ZM29.6257 12.9039L29.1808 12.0082L29.1687 12.0144L29.6257 12.9039ZM33.2392 39.2221L34.2145 39.443L34.4353 38.4681L33.4605 38.2469L33.2392 39.2221ZM30.0419 38.0544L29.0685 37.8254L28.84 38.7964L29.8106 39.0272L30.0419 38.0544ZM18.0832 44.4826L17.5663 45.3387L19.0832 46.2546V44.4826H18.0832ZM16.8142 33.2371L16.1011 33.9382L16.8018 34.6509L17.5149 33.9506L16.8142 33.2371ZM17.8402 48.2739L17.3247 49.1308L18.1811 49.6459L18.6968 48.7898L17.8402 48.2739ZM24.0074 51.1561L23.3001 51.8631L24.8045 53.3682L25.0031 51.2494L24.0074 51.1561ZM29.3894 40.9389L28.4141 40.718L28.1933 41.6929L29.1681 41.9141L29.3894 40.9389ZM29.1442 47.2479L29.7487 46.4513L29.4806 46.2479H29.1442V47.2479ZM30.4874 48.2671L29.8836 49.0642L31.0919 47.4705L30.4874 48.2671ZM29.1419 47.2479V46.2479H26.1657L28.5381 48.045L29.1419 47.2479ZM43.3867 9.75388L44.2616 10.2382L44.7458 9.36337L43.8711 8.87903L43.3867 9.75388ZM39.5077 5.46763L40.3641 5.98389L40.5077 5.74572V5.46763H39.5077ZM38.6369 6.91213H37.6369V10.5081L39.4934 7.42839L38.6369 6.91213ZM39.5077 5.46538H40.5077V1.86466L38.6509 4.94971L39.5077 5.46538ZM35.1742 9.31513L34.3176 8.79917L33.8016 9.65584L34.6583 10.1718L35.1742 9.31513ZM40.0162 12.2311L39.5003 13.0878L40.3569 13.6036L40.8728 12.7471L40.0162 12.2311ZM41.7577 9.33988L42.6143 9.85585L43.1303 8.99917L42.2736 8.48323L41.7577 9.33988ZM36.9157 6.42388L37.4316 5.56723L36.575 5.05137L36.0591 5.90792L36.9157 6.42388ZM19.5817 45.3826L20.4383 45.8986L20.9546 45.0415L20.0971 44.5257L19.5817 45.3826ZM18.0854 44.4826L18.6009 43.6257L17.7445 43.1106L17.2288 43.9667L18.0854 44.4826ZM16.3439 47.3739L15.4873 46.8579L14.971 47.715L15.8285 48.2308L16.3439 47.3739ZM29.9474 38.4751L30.1687 37.4999L29.1931 37.2785L28.9721 38.2542L29.9474 38.4751ZM32.6812 41.6859L32.4599 42.6611L33.4355 42.8825L33.6565 41.9068L32.6812 41.6859ZM18.5804 31.5024L19.2811 32.2158L19.995 31.5147L19.2935 30.8013L18.5804 31.5024ZM14.4494 30.8319L13.7478 30.1193L13.0358 30.8204L13.7363 31.533L14.4494 30.8319ZM36.7874 9.38263L37.2285 10.2801L38.1257 9.83919L37.685 8.94183L36.7874 9.38263ZM35.3002 6.35413L36.1978 5.91333L35.7569 5.01548L34.8591 5.45665L35.3002 6.35413ZM28.4782 9.70663L28.9164 10.6055L28.9192 10.6041L28.4782 9.70663ZM39.2039 10.9194L39.1246 9.92254L38.127 10.0019L38.2071 10.9995L39.2039 10.9194ZM39.8339 18.7606L38.8371 18.8407L38.9172 19.8375L39.914 19.7574L39.8339 18.7606ZM42.5677 10.6516L43.5645 10.5718L43.4847 9.57548L42.4883 9.65479L42.5677 10.6516ZM37.5209 8.68513L37.037 9.56026L37.912 10.044L38.3959 9.16923L37.5209 8.68513ZM38.4794 6.95263L39.3544 7.43673L39.8382 6.5623L38.9641 6.07794L38.4794 6.95263ZM35.5274 5.31688L36.0121 4.44219L35.1372 3.9574L34.6526 4.8324L35.5274 5.31688ZM34.5667 7.05163L33.6919 6.56715L33.2071 7.44254L34.0828 7.92676L34.5667 7.05163ZM38.6369 6.90763L39.1538 6.0516L37.6369 5.13561V6.90763H38.6369ZM40.3919 7.96738L39.875 8.82342L39.8766 8.82435L40.3919 7.96738ZM42.1334 5.07613L42.99 5.5921L43.5059 4.73563L42.6495 4.21961L42.1334 5.07613ZM40.3784 4.01863L40.8945 3.16211L40.0376 2.64574L39.5216 3.50296L40.3784 4.01863ZM39.4087 9.96763L38.5338 9.48334L38.0495 10.3581L38.9243 10.8425L39.4087 9.96763ZM42.3629 11.6034L41.8785 12.4782L42.7535 12.9627L43.2378 12.0877L42.3629 11.6034ZM39.8317 18.7606L39.7517 17.7638L38.7556 17.8438L38.8348 18.8399L39.8317 18.7606ZM39.8632 19.1566L38.8663 19.2359L40.8632 19.1566H39.8632ZM38.8259 29.9994L38.1522 29.2604L38.1485 29.2638L38.8259 29.9994ZM36.5534 27.5019L37.2186 28.2487L37.2269 28.2411L36.5534 27.5019ZM39.8632 19.1544L40.8612 19.0911L38.8632 19.1544H39.8632ZM24.3877 20.0521L25.373 20.223L25.5413 19.2522L24.5731 19.0695L24.3877 20.0521ZM20.9947 19.8699L20.008 19.7072L19.8465 20.6872L20.8253 20.8554L20.9947 19.8699ZM28.0844 9.90238L28.5413 10.792L28.547 10.789L28.0844 9.90238ZM18.5804 31.5001L17.8677 32.2015L18.5721 32.9174L19.2849 32.2099L18.5804 31.5001ZM18.8819 31.2009L19.5864 31.9106L20.3008 31.2015L19.587 30.4918L18.8819 31.2009ZM20.9924 19.8676V18.8676H20.1456L20.0061 19.7029L20.9924 19.8676ZM24.2437 20.8666L24.0636 21.8503L25.0313 22.0274L25.2243 21.0627L24.2437 20.8666ZM24.3179 20.4391L25.3043 20.6035L25.4679 19.6222L24.4874 19.4536L24.3179 20.4391ZM20.9947 19.8676L21.1642 18.8821L21.08 18.8676H20.9947V19.8676ZM18.8797 31.2009L18.1742 31.9097L18.8858 32.6178L19.5912 31.9036L18.8797 31.2009ZM24.2437 20.8644L25.2278 21.0416L25.4047 20.0596L24.4231 19.8806L24.2437 20.8644ZM33.2347 39.2199L32.261 38.9921L31.9738 40.2199H33.2347V39.2199ZM30.0397 38.0521L30.2715 37.0794L29.2849 36.8442L29.0637 37.8341L30.0397 38.0521ZM29.9452 38.4751L28.9692 38.2571L28.7518 39.2304L29.7245 39.4505L29.9452 38.4751ZM33.2369 39.2199V40.2199L33.4576 38.2445L33.2369 39.2199ZM36.2632 27.7561L36.9703 27.049L36.3044 26.3832L35.5998 27.0078L36.2632 27.7561ZM35.9459 28.0374L35.2825 27.289L35.2742 27.2966L35.9459 28.0374ZM38.2049 30.5439L37.543 29.7941L37.5327 29.8035L38.2049 30.5439ZM38.4929 30.2896L39.1547 31.0393L39.9032 30.3785L39.2436 29.629L38.4929 30.2896ZM14.9444 42.5139L15.5204 41.6964L15.5189 41.6954L14.9444 42.5139ZM13.6867 41.3754L12.8549 41.9305L12.8576 41.9345L13.6867 41.3754ZM10.8899 43.2654L10.0595 43.8225L10.0608 43.8245L10.8899 43.2654ZM13.0027 45.2746L13.5782 44.4568L13.578 44.4567L13.0027 45.2746ZM16.3417 47.3716L15.8253 48.228L16.6821 48.7446L17.1983 47.8876L16.3417 47.3716ZM18.0832 44.4804H19.0832V40.8821L17.2266 43.9644L18.0832 44.4804ZM14.4472 30.8274L15.1606 30.1266L14.4591 29.4124L13.7457 30.1147L14.4472 30.8274ZM11.6707 33.6601L12.4193 34.3232L12.4215 34.3206L11.6707 33.6601ZM10.0732 36.1081L9.13862 35.7523L8.78296 36.6865L9.71702 37.0426L10.0732 36.1081ZM13.2254 37.3096L14.1604 37.6644L14.1607 37.6635L13.2254 37.3096ZM14.1997 35.8944L14.9483 36.5573L14.9504 36.555L14.1997 35.8944ZM16.8119 33.2349L17.5136 33.9474L18.2252 33.2466L17.5253 32.5341L16.8119 33.2349ZM10.0709 36.1081L10.4269 35.1736L9.4915 34.8174L9.13609 35.7531L10.0709 36.1081ZM17.8379 48.2716L16.9813 47.7557L16.4662 48.6109L17.3206 49.1274L17.8379 48.2716ZM21.2489 50.2426L21.7031 49.3517L21.7022 49.3513L21.2489 50.2426ZM24.3202 47.7946L25.3158 47.888L25.4093 46.8915L24.4126 46.7989L24.3202 47.7946ZM22.7789 47.2344L23.2343 46.3441L23.2332 46.3435L22.7789 47.2344ZM19.5794 45.3804L20.0957 44.524L19.239 44.0075L18.7228 44.8644L19.5794 45.3804ZM29.3872 40.9366L29.6085 39.9614L28.633 39.7401L28.4119 40.7156L29.3872 40.9366ZM28.4849 44.6356L29.4426 44.9237L29.4436 44.9201L28.4849 44.6356ZM27.7964 46.2264L27.0011 45.6201L26.3933 46.4175L27.1923 47.0233L27.7964 46.2264ZM31.7182 45.6009L32.6765 45.8865L32.6766 45.8863L31.7182 45.6009ZM32.6789 41.6836L33.654 41.9056L33.8761 40.9299L32.9002 40.7084L32.6789 41.6836ZM27.7942 46.2264L28.398 45.4293L27.5912 44.8181L26.9898 45.6323L27.7942 46.2264ZM24.3224 47.7946L24.4084 46.7983L23.4194 46.713L23.3268 47.7013L24.3224 47.7946ZM40.7137 8.16088L41.2477 7.31539L41.2384 7.30955L41.2291 7.30392L40.7137 8.16088ZM40.8824 8.27338L40.3012 9.08712L40.3079 9.09191L40.3147 9.0966L40.8824 8.27338ZM40.7654 8.12263L41.6135 7.59261L41.6084 7.58463L40.7654 8.12263ZM43.6094 6.30463L44.4524 5.76663L44.4484 5.7604L44.4443 5.75424L43.6094 6.30463ZM42.8512 5.53063L42.262 6.33864L42.2728 6.34649L42.2837 6.35404L42.8512 5.53063ZM42.1312 5.07388L42.6421 4.21425L41.7867 3.70587L41.2741 4.5587L42.1312 5.07388ZM43.3844 9.74938L42.9008 10.6246L43.774 11.1072L44.2586 10.235L43.3844 9.74938ZM43.7782 8.99563L42.8686 8.58006L42.8675 8.58246L43.7782 8.99563ZM44.0482 7.94713L45.0471 7.99396L45.0471 7.99313L44.0482 7.94713ZM40.6754 7.79413L39.6768 7.74157L39.6765 7.74814L40.6754 7.79413ZM40.7047 7.60513L41.5946 8.06122L41.6086 8.03399L41.6208 8.00595L40.7047 7.60513ZM40.6124 7.78513L41.4921 8.26065L41.4974 8.25099L41.5024 8.24122L40.6124 7.78513ZM38.4772 6.94813L37.993 7.82311L38.8608 8.30333L39.3482 7.43945L38.4772 6.94813ZM38.6752 6.59713L39.5462 7.08845L39.5484 7.0845L38.6752 6.59713ZM38.7877 6.40813L37.9556 5.85343L37.9475 5.86567L37.9397 5.87813L38.7877 6.40813ZM38.6347 6.53413L39.1806 7.37197L39.1865 7.36806L38.6347 6.53413ZM36.7762 3.71713L37.3263 4.55219L37.3276 4.55139L36.7762 3.71713ZM35.9797 4.53613L36.8105 5.09269L36.8117 5.09083L35.9797 4.53613ZM35.5252 5.31463L34.6496 4.83155L34.1671 5.70604L35.041 6.18961L35.5252 5.31463ZM40.3762 4.01638L41.2328 4.53235L41.749 3.67538L40.8918 3.15956L40.3762 4.01638ZM39.5909 3.56863L39.129 4.45552L39.1395 4.46101L39.1501 4.46624L39.5909 3.56863ZM38.4929 3.25588L38.5676 2.25867L38.5598 2.25809L38.552 2.25763L38.4929 3.25588ZM38.2904 6.62638L38.3565 5.62856L38.3528 5.62833L38.2904 6.62638ZM38.0947 6.59488L37.6373 7.48417L37.653 7.49221L37.6689 7.4997L38.0947 6.59488ZM38.2859 6.70063L37.7744 7.55992L37.7864 7.56705L37.7986 7.57383L38.2859 6.70063ZM38.6347 6.90763L38.1241 7.76749L38.9786 8.27481L39.4913 7.4236L38.6347 6.90763ZM22.4901 21.1411L24.1506 21.4269L24.4898 19.4559L22.8293 19.1701L22.4901 21.1411ZM24.4896 19.4558L22.8268 19.1701L22.4881 21.1412L24.1508 21.4269L24.4896 19.4558ZM22.6574 21.1556H22.6597V19.1556H22.6574V21.1556ZM28.5397 48.0445L29.883 49.0638L31.0919 47.4705L29.7487 46.4513L28.5397 48.0445ZM31.0913 47.47L29.7458 46.4508L28.5381 48.045L29.8836 49.0642L31.0913 47.47ZM29.1419 48.2479H29.1442V46.2479H29.1419V48.2479ZM38.6512 4.95137L37.7805 6.39587L39.4934 7.42839L40.3641 5.98389L38.6512 4.95137ZM39.4937 7.4278L40.3645 5.98105L38.6509 4.94971L37.7801 6.39646L39.4937 7.4278ZM38.5077 5.46538V5.46763H40.5077V5.46538H38.5077ZM34.6583 10.1718L39.5003 13.0878L40.5321 11.3745L35.6901 8.45848L34.6583 10.1718ZM40.8728 12.7471L42.6143 9.85585L40.9011 8.82392L39.1596 11.7152L40.8728 12.7471ZM42.2736 8.48323L37.4316 5.56723L36.3998 7.28053L41.2418 10.1965L42.2736 8.48323ZM36.0591 5.90792L34.3176 8.79917L36.0308 9.8311L37.7723 6.93985L36.0591 5.90792ZM20.0971 44.5257L18.6009 43.6257L17.57 45.3396L19.0662 46.2396L20.0971 44.5257ZM17.2288 43.9667L15.4873 46.8579L17.2005 47.8899L18.942 44.9986L17.2288 43.9667ZM15.8285 48.2308L17.3247 49.1308L18.3556 47.417L16.8594 46.517L15.8285 48.2308ZM18.6968 48.7898L20.4383 45.8986L18.7251 44.8667L16.9836 47.7579L18.6968 48.7898ZM28.9721 38.2542L28.4141 40.718L30.3647 41.1598L30.9227 38.696L28.9721 38.2542ZM29.1681 41.9141L32.4599 42.6611L32.9025 40.7107L29.6107 39.9637L29.1681 41.9141ZM33.6565 41.9068L34.2145 39.443L32.2639 39.0012L31.7059 41.465L33.6565 41.9068ZM33.4605 38.2469L30.1687 37.4999L29.7261 39.4503L33.0179 40.1973L33.4605 38.2469ZM17.5149 33.9506L19.2811 32.2158L17.8797 30.7889L16.1135 32.5237L17.5149 33.9506ZM19.2935 30.8013L16.9265 28.3938L15.5004 29.796L17.8674 32.2035L19.2935 30.8013ZM15.5118 28.3823L13.7478 30.1193L15.1511 31.5444L16.9151 29.8074L15.5118 28.3823ZM13.7363 31.533L16.1011 33.9382L17.5273 32.5361L15.1625 30.1308L13.7363 31.533ZM30.4065 13.6326L37.2285 10.2801L36.3464 8.48515L29.5244 11.8376L30.4065 13.6326ZM37.685 8.94183L36.1978 5.91333L34.4026 6.79493L35.8898 9.82343L37.685 8.94183ZM34.8591 5.45665L28.0371 8.80915L28.9192 10.6041L35.7412 7.25162L34.8591 5.45665ZM38.2071 10.9995L38.8371 18.8407L40.8307 18.6805L40.2007 10.8393L38.2071 10.9995ZM39.914 19.7574L43.2755 19.4874L43.1154 17.4938L39.7539 17.7638L39.914 19.7574ZM44.1922 18.4108L43.5645 10.5718L41.5709 10.7315L42.1986 18.5705L44.1922 18.4108ZM42.4883 9.65479L39.1246 9.92254L39.2833 11.9162L42.647 11.6485L42.4883 9.65479ZM38.3959 9.16923L39.3544 7.43673L37.6044 6.46853L36.6459 8.20103L38.3959 9.16923ZM38.9641 6.07794L36.0121 4.44219L35.0427 6.19157L37.9947 7.82732L38.9641 6.07794ZM34.6526 4.8324L33.6919 6.56715L35.4415 7.53612L36.4022 5.80137L34.6526 4.8324ZM34.0828 7.92676L37.037 9.56026L38.0048 7.81L35.0506 6.1765L34.0828 7.92676ZM38.12 7.76367L39.875 8.82342L40.9088 7.11135L39.1538 6.0516L38.12 7.76367ZM41.2485 8.48335L42.99 5.5921L41.2768 4.56017L39.5353 7.45142L41.2485 8.48335ZM42.6495 4.21961L40.8945 3.16211L39.8623 4.87515L41.6173 5.93265L42.6495 4.21961ZM39.5216 3.50296L37.7801 6.39646L39.4937 7.4278L41.2352 4.5343L39.5216 3.50296ZM39.6369 6.91213V6.90763H37.6369V6.91213H39.6369ZM39.5575 7.63385L38.5338 9.48334L40.2836 10.4519L41.3073 8.60242L39.5575 7.63385ZM38.9243 10.8425L41.8785 12.4782L42.8473 10.7285L39.8931 9.09278L38.9243 10.8425ZM43.2378 12.0877L44.2616 10.2382L42.5118 9.26959L41.488 11.1191L43.2378 12.0877ZM43.8711 8.87903L40.9168 7.24328L39.948 8.99298L42.9023 10.6287L43.8711 8.87903ZM38.8348 18.8399L38.8663 19.2359L40.86 19.0773L40.8285 18.6813L38.8348 18.8399ZM44.2283 18.8635L44.1923 18.4113L42.1986 18.57L42.2346 19.0222L44.2283 18.8635ZM43.1154 17.4938L39.7517 17.7638L39.9117 19.7574L43.2754 19.4874L43.1154 17.4938ZM39.1568 31.0417C39.2935 30.9211 39.4078 30.823 39.5034 30.7349L38.1485 29.2638C38.0731 29.3332 38.0029 29.3927 37.8336 29.542L39.1568 31.0417ZM35.8883 26.7551L35.6003 27.0116L36.9305 28.5051L37.2185 28.2486L35.8883 26.7551ZM35.5148 28.4191L37.7445 30.9526L39.2459 29.6312L37.0161 27.0977L35.5148 28.4191ZM38.8652 19.2177C39.049 22.1159 37.9242 24.9004 35.88 26.7626L37.2269 28.2411C39.7321 25.9589 41.0824 22.5783 40.8612 19.0911L38.8652 19.2177ZM39.4996 30.7384C42.7855 27.7428 44.5136 23.3566 44.2294 18.8795L42.2334 19.0062C42.4803 22.8946 40.9773 26.6849 38.1522 29.2604L39.4996 30.7384ZM40.8632 19.1566V19.1544H38.8632V19.1566H40.8632ZM25.3055 20.6122L25.373 20.223L23.4024 19.8813L23.3349 20.2705L25.3055 20.6122ZM24.5731 19.0695L21.2589 18.444L20.888 20.4093L24.2022 21.0348L24.5731 19.0695ZM20.0914 19.2378C20.0674 19.3625 20.0433 19.4928 20.008 19.7072L21.9814 20.0325C22.0135 19.8375 22.0344 19.7247 22.0554 19.6155L20.0914 19.2378ZM20.8253 20.8554L24.1508 21.4269L24.4896 19.4558L21.1641 18.8843L20.8253 20.8554ZM28.04 8.80776C27.8627 8.8942 27.7397 8.95433 27.6219 9.0158L28.547 10.789C28.6362 10.7424 28.7337 10.6946 28.9164 10.6055L28.04 8.80776ZM30.0705 13.7995L30.4103 13.6307L29.5206 11.8395L29.1808 12.0083L30.0705 13.7995ZM25.3727 20.2372C25.9071 17.3996 27.6695 15.0331 30.0827 13.7934L29.1687 12.0144C26.1863 13.5466 24.0517 16.4452 23.4072 19.867L25.3727 20.2372ZM27.6276 9.01282C23.6844 11.0378 20.9197 14.8342 20.0907 19.2418L22.0562 19.6115C22.7752 15.7886 25.1674 12.5245 28.5412 10.7919L27.6276 9.01282ZM20.8881 20.4093L24.2046 21.0348L24.5753 19.0695L21.2588 18.444L20.8881 20.4093ZM19.2849 32.2099L19.5864 31.9106L18.1775 30.4911L17.876 30.7904L19.2849 32.2099ZM19.587 30.4918L17.193 28.1113L15.7828 29.5295L18.1768 31.91L19.587 30.4918ZM15.7808 28.1133L15.5063 28.3878L16.9205 29.802L17.195 29.5275L15.7808 28.1133ZM15.5007 29.7963L17.8677 32.2015L19.2932 30.7987L16.9262 28.3935L15.5007 29.7963ZM20.0061 19.7029C19.9849 19.8301 19.963 19.9571 19.9404 20.084L21.9095 20.4342C21.9333 20.3004 21.9564 20.1664 21.9788 20.0323L20.0061 19.7029ZM20.7449 21.2428L24.0636 21.8503L24.4237 19.883L21.105 19.2755L20.7449 21.2428ZM25.2243 21.0627C25.2508 20.9298 25.2724 20.7948 25.3043 20.6035L23.3315 20.2747C23.2959 20.4885 23.2815 20.5784 23.2631 20.6705L25.2243 21.0627ZM24.4874 19.4536L21.1642 18.8821L20.8252 20.8532L24.1484 21.4247L24.4874 19.4536ZM20.9947 18.8676H20.9924V20.8676H20.9947V18.8676ZM19.5912 31.9036C22.5233 28.9348 24.4883 25.1482 25.2278 21.0416L23.2595 20.6871C22.5915 24.3964 20.8166 27.8166 18.1682 30.4982L19.5912 31.9036ZM24.4231 19.8806L21.1043 19.2754L20.7455 21.2429L24.0643 21.8482L24.4231 19.8806ZM19.9407 20.0823C19.3946 23.1209 17.9442 25.9207 15.7761 28.118L17.1998 29.5227C19.6516 27.0378 21.2918 23.8715 21.9092 20.436L19.9407 20.0823ZM15.7825 29.5292L18.1742 31.9097L19.5851 30.4921L17.1934 28.1116L15.7825 29.5292ZM34.2084 39.4477L34.2984 39.0629L32.351 38.6074L32.261 38.9921L34.2084 39.4477ZM33.5565 37.8624L30.2715 37.0794L29.8078 39.0249L33.0928 39.8079L33.5565 37.8624ZM29.0637 37.8341L28.9692 38.2571L30.9211 38.6932L31.0156 38.2702L29.0637 37.8341ZM29.7245 39.4505L33.0163 40.1952L33.4576 38.2445L30.1659 37.4998L29.7245 39.4505ZM33.2369 38.2199H33.2347V40.2199H33.2369V38.2199ZM35.5998 27.0078L35.2826 27.2891L36.6093 28.7857L36.9266 28.5044L35.5998 27.0078ZM38.8667 31.2936L39.1547 31.0393L37.8311 29.54L37.5431 29.7942L38.8667 31.2936ZM39.2436 29.629L37.0161 27.0978L35.5147 28.419L37.7422 30.9503L39.2436 29.629ZM36.9725 27.0513L36.9703 27.049L35.5561 28.4632L35.5583 28.4655L36.9725 27.0513ZM34.2983 39.0635C35.0013 36.0665 36.5981 33.3536 38.8772 31.2842L37.5327 29.8035C34.9537 32.1453 33.1467 35.2152 32.3511 38.6067L34.2983 39.0635ZM35.2742 27.2966C32.1869 30.0959 30.0229 33.7691 29.0685 37.8254L31.0153 38.2834C31.877 34.6212 33.8308 31.305 36.6176 28.7782L35.2742 27.2966ZM29.8106 39.0272L33.0933 39.808L33.5561 37.8623L30.2733 37.0815L29.8106 39.0272ZM18.6001 43.6266C17.1668 42.7612 16.2158 42.1864 15.5204 41.6964L14.3684 43.3313C15.1356 43.8719 16.16 44.4896 17.5663 45.3387L18.6001 43.6266ZM15.5189 41.6954C14.8351 41.2154 14.6119 40.9588 14.5158 40.8162L12.8576 41.9345C13.153 42.3725 13.6047 42.7953 14.3699 43.3324L15.5189 41.6954ZM10.0608 43.8245C10.6916 44.76 11.5308 45.4619 12.4273 46.0926L13.578 44.4567C12.7601 43.8814 12.1502 43.3458 11.7191 42.7063L10.0608 43.8245ZM12.4272 46.0924C13.3134 46.7161 14.461 47.4054 15.8253 48.228L16.858 46.5153C15.4684 45.6774 14.3929 45.0302 13.5782 44.4568L12.4272 46.0924ZM17.1983 47.8876L18.9398 44.9963L17.2266 43.9644L15.4851 46.8557L17.1983 47.8876ZM17.0832 44.4804V44.4826H19.0832V44.4804H17.0832ZM13.7457 30.1147C12.6035 31.239 11.6402 32.1807 10.9198 32.9997L12.4215 34.3206C13.0826 33.5691 13.9823 32.6882 15.1487 31.54L13.7457 30.1147ZM10.9221 32.9971C10.1914 33.8221 9.53853 34.7019 9.13862 35.7523L11.0077 36.4639C11.2828 35.7414 11.755 35.0732 12.4193 34.3232L10.9221 32.9971ZM9.71702 37.0426L12.8693 38.2441L13.5816 36.3752L10.4293 35.1737L9.71702 37.0426ZM14.1607 37.6635C14.2234 37.4978 14.3871 37.1911 14.9483 36.5573L13.451 35.2314C12.8287 35.9342 12.4794 36.4554 12.2901 36.9557L14.1607 37.6635ZM14.9504 36.555C15.5148 35.9137 16.3129 35.1299 17.5136 33.9474L16.1102 32.5224C14.935 33.6799 14.0726 34.5251 13.449 35.2338L14.9504 36.555ZM17.5253 32.5341L15.1606 30.1266L13.7338 31.5281L16.0985 33.9356L17.5253 32.5341ZM14.5184 40.8202C14.2117 40.3607 14.0192 39.8346 13.957 39.2857L11.9697 39.5111C12.0679 40.3766 12.3714 41.2061 12.8549 41.9305L14.5184 40.8202ZM13.957 39.2857C13.8947 38.7368 13.9644 38.1809 14.1604 37.6644L12.2905 36.9549C11.9815 37.7693 11.8715 38.6457 11.9697 39.5111L13.957 39.2857ZM13.5814 36.3751L10.4269 35.1736L9.71499 37.0426L12.8695 38.2441L13.5814 36.3751ZM9.13609 35.7531C8.63446 37.0737 8.45653 38.4953 8.61719 39.8989L10.6042 39.6715C10.4799 38.5853 10.6176 37.4852 11.0058 36.4632L9.13609 35.7531ZM8.61719 39.8989C8.7778 41.302 9.27219 42.649 10.0595 43.8225L11.7203 42.7082C11.1115 41.8008 10.7286 40.758 10.6042 39.6715L8.61719 39.8989ZM17.3206 49.1274C18.687 49.9535 19.8311 50.6435 20.7957 51.134L21.7022 49.3513C20.8173 48.9013 19.7429 48.2548 18.3553 47.4159L17.3206 49.1274ZM20.7948 51.1336C21.7644 51.6278 22.7859 52.0445 23.9123 52.1496L24.0981 50.1582C23.3434 50.0878 22.5875 49.8025 21.7031 49.3517L20.7948 51.1336ZM25.0008 51.2472L25.3158 47.888L23.3245 47.7013L23.0095 51.0605L25.0008 51.2472ZM24.4126 46.7989C24.2849 46.7871 23.9799 46.7254 23.2343 46.3441L22.3236 48.1247C23.153 48.5489 23.7254 48.7437 24.2277 48.7904L24.4126 46.7989ZM23.2332 46.3435C22.4826 45.9607 21.5304 45.3889 20.0957 44.524L19.0631 46.2368C20.4725 47.0864 21.4958 47.7025 22.3246 48.1252L23.2332 46.3435ZM18.7228 44.8644L16.9813 47.7557L18.6945 48.7876L20.436 45.8964L18.7228 44.8644ZM28.4119 40.7156C28.0334 42.3861 27.7758 43.5101 27.5262 44.3512L29.4436 44.9201C29.7161 44.0017 29.9895 42.8036 30.3625 41.1576L28.4119 40.7156ZM27.5273 44.3476C27.275 45.1865 27.1005 45.4898 27.0011 45.6201L28.5917 46.8326C28.9108 46.414 29.1684 45.8352 29.4426 44.9237L27.5273 44.3476ZM27.1923 47.0233L29.881 49.0618L31.0893 47.468L28.4006 45.4295L27.1923 47.0233ZM31.282 48.8691C31.9604 47.9744 32.3597 46.9495 32.6765 45.8865L30.7598 45.3153C30.4691 46.2908 30.153 47.0479 29.6883 47.6607L31.282 48.8691ZM32.6766 45.8863C32.9897 44.8348 33.2904 43.5027 33.654 41.9056L31.7039 41.4617C31.334 43.0866 31.0497 44.342 30.7598 45.3155L32.6766 45.8863ZM32.9002 40.7084L29.6085 39.9614L29.1659 41.9118L32.4576 42.6588L32.9002 40.7084ZM23.9153 52.1498C25.3222 52.2768 26.7382 52.0415 28.0285 51.4663L27.2141 49.6396C26.2357 50.0758 25.162 50.2542 24.0951 50.1579L23.9153 52.1498ZM28.0285 51.4663C29.3187 50.8911 30.4402 49.9951 31.2861 48.8637L29.6843 47.6661C29.0428 48.524 28.1924 49.2034 27.2141 49.6396L28.0285 51.4663ZM31.089 47.4678L28.398 45.4293L27.1903 47.0235L29.8813 49.062L31.089 47.4678ZM26.9898 45.6323C26.6952 46.0312 26.3031 46.3479 25.8512 46.552L26.6745 48.3747C27.4382 48.0297 28.1007 47.4946 28.5986 46.8205L26.9898 45.6323ZM25.8512 46.552C25.3992 46.7562 24.9025 46.841 24.4084 46.7983L24.2365 48.7909C25.0714 48.863 25.9108 48.7197 26.6745 48.3747L25.8512 46.552ZM23.3268 47.7013L23.0118 51.0628L25.0031 51.2494L25.3181 47.8879L23.3268 47.7013ZM24.7147 50.4492L24.7125 50.447L23.2979 51.8608L23.3001 51.8631L24.7147 50.4492ZM39.8766 8.82435L40.1983 9.01785L41.2291 7.30392L40.9073 7.11042L39.8766 8.82435ZM40.1797 9.00637C40.2481 9.0496 40.2841 9.07493 40.3012 9.08712L41.4637 7.45965C41.4177 7.42683 41.3502 7.38017 41.2477 7.31539L40.1797 9.00637ZM40.3147 9.0966C40.3142 9.09628 40.3116 9.09443 40.307 9.09109C40.306 9.0903 40.3049 9.08953 40.304 9.08882C40.303 9.08812 40.3023 9.08756 40.3025 9.08774C40.3026 9.08777 40.3029 9.08798 40.3031 9.0882C40.3034 9.08841 40.304 9.08887 40.3048 9.08944C40.3055 9.08997 40.3069 9.091 40.3086 9.09229C40.3101 9.09338 40.3135 9.09592 40.3179 9.09909C40.3199 9.10053 40.3325 9.10972 40.349 9.12073C40.3544 9.12431 40.3791 9.14093 40.4122 9.15964C40.4325 9.17079 40.4911 9.19973 40.5299 9.21637C40.6221 9.24846 41.0532 9.27801 41.3726 9.17275C41.7922 8.74931 41.8532 7.97322 41.7744 7.79599C41.7395 7.739 41.6809 7.65904 41.6602 7.63429C41.6282 7.59744 41.6003 7.57094 41.5963 7.56715C41.58 7.55155 41.5666 7.53979 41.565 7.53837C41.5464 7.52202 41.5682 7.54118 41.5776 7.55028C41.5961 7.5682 41.6064 7.58137 41.6134 7.59263L39.9174 8.65263C40.0145 8.80789 40.1159 8.91894 40.1867 8.98748C40.2223 9.0219 40.2605 9.05456 40.2437 9.03976C40.2421 9.03839 40.2287 9.02666 40.2125 9.01109C40.2085 9.0073 40.1806 8.98081 40.1486 8.94397C40.1279 8.91922 40.0693 8.83927 40.0345 8.78228C39.9556 8.60505 40.0166 7.82896 40.4362 7.40552C40.7556 7.30027 41.1867 7.32982 41.2789 7.36191C41.3177 7.37854 41.3763 7.40748 41.3966 7.41863C41.4297 7.43734 41.4544 7.45394 41.4597 7.45752C41.4762 7.4685 41.4888 7.47766 41.4907 7.47905C41.5001 7.48585 41.5102 7.49347 41.5046 7.4893C41.503 7.48805 41.4985 7.48472 41.4926 7.48037C41.481 7.47181 41.4669 7.46174 41.4502 7.45017L40.3147 9.0966ZM44.4443 5.75424C44.1729 5.34253 43.8247 4.98703 43.4186 4.70722L42.2837 6.35404C42.478 6.48793 42.6447 6.65804 42.7745 6.85503L44.4443 5.75424ZM43.4404 4.72262C43.1789 4.532 42.8698 4.34957 42.6421 4.21425L41.6203 5.93351C41.8696 6.08169 42.0914 6.21426 42.262 6.33864L43.4404 4.72262ZM41.2741 4.5587L39.5348 7.4522L41.249 8.48256L42.9883 5.58906L41.2741 4.5587ZM44.2586 10.235C44.3891 10.0001 44.5587 9.69565 44.6888 9.4088L42.8675 8.58246C42.7772 8.78161 42.6498 9.01268 42.5103 9.26374L44.2586 10.235ZM44.6877 9.41121C44.835 9.08887 45.0186 8.60226 45.0471 7.99396L43.0493 7.90031C43.0373 8.15601 42.9599 8.38039 42.8686 8.58006L44.6877 9.41121ZM41.674 7.84669C41.6738 7.85055 41.673 7.86183 41.6656 7.88732C41.6636 7.89409 41.6607 7.90362 41.6564 7.91593C41.6544 7.92174 41.6512 7.93084 41.6467 7.94234C41.6447 7.9477 41.6409 7.95737 41.6358 7.96951C41.6333 7.97542 41.6289 7.9856 41.6231 7.99817C41.6201 8.00466 41.6054 8.03704 41.5829 8.07646C41.5767 8.08719 41.5412 8.15052 41.4823 8.22109C41.4621 8.24531 41.374 8.35193 41.2242 8.44066C41.1387 8.48582 40.9125 8.56041 40.7716 8.57854C40.5846 8.57166 40.2255 8.45233 40.0671 8.34211C39.9588 8.23486 39.817 8.02061 39.7757 7.92397C39.7537 7.85659 39.7275 7.73931 39.7208 7.6904C39.7103 7.59503 39.7162 7.51989 39.7187 7.49165C39.7244 7.42726 39.7353 7.37788 39.7384 7.36416C39.7465 7.32717 39.7551 7.29888 39.7573 7.29152C39.761 7.27953 39.7641 7.26996 39.766 7.26427C39.7727 7.24414 39.7784 7.2294 39.78 7.22525C39.7848 7.21279 39.788 7.20545 39.7885 7.20431L41.6208 8.00595C41.6292 7.98681 41.6377 7.96654 41.6457 7.94588C41.6488 7.93764 41.6556 7.91999 41.6629 7.8981C41.665 7.89197 41.6682 7.88203 41.6719 7.86975C41.6742 7.86209 41.6829 7.83356 41.6911 7.79642C41.6941 7.78263 41.7051 7.73318 41.7108 7.66875C41.7133 7.64049 41.7192 7.56533 41.7086 7.46995C41.702 7.42104 41.6758 7.30375 41.6538 7.23636C41.6125 7.13972 41.4706 6.92547 41.3624 6.81821C41.2039 6.70799 40.8448 6.58866 40.6578 6.58178C40.517 6.59991 40.2907 6.6745 40.2053 6.71967C40.0554 6.80839 39.9673 6.91503 39.9471 6.93926C39.8882 7.00986 39.8526 7.07323 39.8465 7.08402C39.8239 7.12356 39.809 7.15613 39.8059 7.16289C39.8 7.17572 39.7955 7.18623 39.7928 7.19254C39.7874 7.20547 39.7832 7.21621 39.7806 7.2229C39.7751 7.23707 39.7705 7.2499 39.7669 7.26048C39.7593 7.28231 39.7519 7.30548 39.7449 7.32969C39.7172 7.42494 39.686 7.56672 39.6768 7.74157L41.674 7.84669ZM39.8147 7.14904L39.7225 7.32904L41.5024 8.24122L41.5946 8.06122L39.8147 7.14904ZM39.7327 7.30961L39.5527 7.64261L41.3121 8.59365L41.4921 8.26065L39.7327 7.30961ZM39.9488 8.99339L42.9008 10.6246L43.8681 8.87413L40.9161 7.24288L39.9488 8.99339ZM41.6084 7.58463C41.6497 7.64939 41.6791 7.73693 41.6744 7.84013L39.6765 7.74814C39.6611 8.0832 39.7563 8.40023 39.9225 8.66064L41.6084 7.58463ZM45.0471 7.99313C45.0833 7.20738 44.8756 6.42967 44.4524 5.76663L42.7665 6.84264C42.9677 7.15785 43.0664 7.52758 43.0492 7.90114L45.0471 7.99313ZM39.3482 7.43945L39.5462 7.08845L37.8042 6.10581L37.6062 6.45682L39.3482 7.43945ZM39.5484 7.0845C39.5889 7.0119 39.6128 6.97476 39.6357 6.93813L37.9397 5.87813C37.9176 5.91351 37.8695 5.98886 37.802 6.10977L39.5484 7.0845ZM39.6197 6.96283C39.6192 6.9636 39.6151 6.96972 39.6076 6.97994C39.6046 6.98414 39.597 6.99432 39.5864 7.00764C39.5832 7.01159 39.569 7.02948 39.5492 7.05142C39.5475 7.05334 39.5099 7.09627 39.4558 7.14246C39.4397 7.15626 39.4083 7.18223 39.366 7.21087C39.34 7.22844 39.2338 7.3006 39.0778 7.34463C38.95 7.3807 38.3888 7.49121 38.0069 6.98317C37.9201 6.8458 37.8273 6.58671 37.8104 6.47461C37.8063 6.3984 37.8125 6.26963 37.8198 6.21748C37.8366 6.11738 37.8651 6.04293 37.8756 6.01611C37.8895 5.98082 37.9027 5.95328 37.9106 5.93731C37.9265 5.9054 37.9407 5.88122 37.9471 5.87041C37.9611 5.84697 37.973 5.82929 37.9775 5.82259C37.9883 5.80664 37.9971 5.79462 38.0009 5.78953C38.0098 5.77742 38.0171 5.76827 38.0214 5.76291C38.0307 5.75121 38.0383 5.74248 38.0438 5.73635C38.0649 5.71293 38.0771 5.70396 38.0828 5.7002L39.1865 7.36806C39.3452 7.26305 39.4587 7.15396 39.5304 7.07429C39.5486 7.0541 39.5656 7.03404 39.5814 7.01444C39.5889 7.00512 39.5985 6.99287 39.609 6.97859C39.6136 6.97242 39.623 6.95954 39.6342 6.94299C39.6389 6.93599 39.651 6.91807 39.6651 6.89445C39.6716 6.88356 39.6858 6.8593 39.7017 6.82733C39.7096 6.81133 39.7228 6.78377 39.7367 6.74846C39.7473 6.72162 39.7758 6.64715 39.7925 6.54703C39.7998 6.49488 39.806 6.36611 39.8019 6.28989C39.785 6.17778 39.6922 5.91869 39.6055 5.78132C39.2235 5.27328 38.6623 5.38378 38.5345 5.41985C38.3785 5.46388 38.2724 5.53605 38.2463 5.55363C38.2039 5.58228 38.1726 5.60827 38.1564 5.62209C38.1023 5.66836 38.0645 5.71143 38.0626 5.71356C38.0425 5.73591 38.0277 5.75447 38.0237 5.75938C38.0116 5.77462 38.0017 5.78781 37.9956 5.79621C37.9819 5.81483 37.9685 5.83411 37.9556 5.85343L39.6197 6.96283ZM36.226 2.88207C35.6863 3.23766 35.3507 3.67689 35.1476 3.98143L36.8117 5.09083C36.9417 4.89587 37.1011 4.7006 37.3263 4.55219L36.226 2.88207ZM35.1489 3.97957C34.9639 4.25568 34.7847 4.5867 34.6496 4.83155L36.4008 5.79771C36.5537 5.52056 36.685 5.28009 36.8105 5.09269L35.1489 3.97957ZM35.041 6.18961L37.993 7.82311L38.9613 6.07316L36.0093 4.43966L35.041 6.18961ZM40.8918 3.15956C40.6548 3.01696 40.3316 2.81826 40.0317 2.67102L39.1501 4.46624C39.3543 4.5665 39.589 4.7098 39.8606 4.8732L40.8918 3.15956ZM40.0529 2.68174C39.5916 2.44146 39.0863 2.29752 38.5676 2.25867L38.4183 4.25309C38.6664 4.27167 38.9082 4.34055 39.129 4.45552L40.0529 2.68174ZM38.3528 5.62833C38.3622 5.62892 38.3756 5.63094 38.3984 5.6382C38.4046 5.64017 38.4114 5.64248 38.4187 5.64516C38.4224 5.64652 38.4256 5.64774 38.4278 5.64859C38.4282 5.64876 38.4286 5.64888 38.4285 5.64886C38.4285 5.64885 38.4285 5.64884 38.4284 5.64881C38.4283 5.64879 38.4282 5.64874 38.4281 5.64869C38.4279 5.64861 38.4273 5.64841 38.4267 5.64816C38.4263 5.64799 38.4221 5.6464 38.417 5.6445C38.4145 5.64356 38.4088 5.64144 38.4015 5.63885C38.3987 5.63783 38.3769 5.63001 38.3489 5.62177C38.3418 5.61967 38.2948 5.60551 38.2335 5.59514C38.1934 5.58919 38.0718 5.58114 37.9905 5.58404C37.7835 5.62206 37.2256 6.0403 37.0692 6.51116C37.0984 6.83095 37.295 7.21709 37.3725 7.30091C37.4109 7.3361 37.4744 7.38681 37.4981 7.40371C37.5378 7.43123 37.571 7.44967 37.5785 7.45385C37.6008 7.46637 37.619 7.4753 37.622 7.47682C37.6285 7.48002 37.6336 7.48247 37.6359 7.48358C37.6406 7.48583 37.6444 7.48761 37.645 7.48786C37.6456 7.48816 37.6461 7.4884 37.6464 7.48853C37.6466 7.48864 37.6469 7.48877 37.6469 7.48879C37.6472 7.48891 37.6466 7.4886 37.6457 7.4882C37.6448 7.48778 37.6438 7.48733 37.6429 7.48686C37.6386 7.48484 37.6367 7.48385 37.6373 7.48417L38.552 5.70559C38.533 5.69579 38.5168 5.68783 38.5033 5.68143C38.4966 5.6782 38.4914 5.6758 38.4892 5.67478C38.4853 5.67298 38.4919 5.676 38.498 5.67894C38.5002 5.68 38.5052 5.6824 38.5116 5.68556C38.5146 5.68705 38.5327 5.69596 38.555 5.70845C38.5624 5.71262 38.5956 5.73106 38.6354 5.75856C38.6591 5.77546 38.7225 5.82617 38.7609 5.86135C38.8384 5.94518 39.035 6.33131 39.0643 6.6511C38.9078 7.12196 38.3499 7.5402 38.1429 7.57822C38.0616 7.58112 37.94 7.57307 37.8999 7.56712C37.8386 7.55676 37.7917 7.54259 37.7846 7.5405C37.7566 7.53227 37.7349 7.52447 37.7321 7.52348C37.7249 7.52092 37.7193 7.51882 37.7169 7.51793C37.712 7.51611 37.7082 7.51463 37.7081 7.5146C37.7075 7.51438 37.7068 7.51409 37.7076 7.51442C37.7081 7.51459 37.709 7.51494 37.7101 7.51536C37.7149 7.51722 37.7218 7.51987 37.7304 7.52301C37.7474 7.52925 37.7683 7.53652 37.7926 7.54425C37.888 7.57458 38.0387 7.6126 38.2281 7.62443L38.3528 5.62833ZM37.6689 7.4997C37.6636 7.49723 37.6685 7.49929 37.6876 7.5098C37.7062 7.52002 37.7342 7.53594 37.7744 7.55992L38.7974 5.84134C38.6936 5.77957 38.6026 5.7287 38.5205 5.69006L37.6689 7.4997ZM37.7986 7.57383C37.881 7.61983 37.9514 7.66489 38.1241 7.76749L39.1452 6.04778C39.03 5.97937 38.8844 5.88943 38.7733 5.82743L37.7986 7.57383ZM39.4913 7.4236L41.2328 4.53235L39.5196 3.50042L37.7781 6.39167L39.4913 7.4236ZM38.0887 5.69632C38.1573 5.65165 38.2495 5.62148 38.3565 5.62857L38.2244 7.6242C38.5743 7.64736 38.9081 7.54953 39.1806 7.37195L38.0887 5.69632ZM38.552 2.25763C37.729 2.20897 36.9125 2.42835 36.2248 2.88287L37.3276 4.55139C37.6545 4.3353 38.0427 4.23101 38.4339 4.25414L38.552 2.25763Z" fill="black" mask="url(#path-1-inside-1_81_248)"/>
<path d="M22.5 21.3751L25.767 19.7416C26.8069 19.2211 27.9742 19.0095 29.1306 19.132C30.287 19.2544 31.3841 19.7057 32.292 20.4323C33.085 21.0668 34.0243 21.4927 35.0241 21.6711C36.0239 21.8496 37.0525 21.7749 38.016 21.4538L41.625 20.2501" fill="#909196"/>
<path d="M22.5 21.3751L25.767 19.7416C26.8069 19.2211 27.9742 19.0095 29.1306 19.132C30.287 19.2544 31.3841 19.7057 32.292 20.4323C33.085 21.0668 34.0243 21.4927 35.0241 21.6711C36.0239 21.8496 37.0525 21.7749 38.016 21.4538L41.625 20.2501" stroke="black" stroke-width="2.875" stroke-linecap="round"/>
</svg>
