<svg width="50" height="50" viewBox="0 0 50 50" fill="none" xmlns="http://www.w3.org/2000/svg">
<g clip-path="url(#clip0_339_606)">
<path fill-rule="evenodd" clip-rule="evenodd" d="M21.6749 46.8337L22.2478 45.8649C23.1645 44.3128 23.6228 43.5378 24.3562 43.1045C25.0874 42.6732 26.0437 42.642 27.9499 42.5795C29.7395 42.5232 30.9416 42.367 31.9708 41.942C33.0428 41.4977 34.0168 40.8466 34.8372 40.0259C35.6575 39.2052 36.3082 38.2309 36.752 37.1587C37.4249 35.5357 37.4249 33.4774 37.4249 29.3607V27.5941C37.4249 21.8087 37.4249 18.917 36.1228 16.792C35.3937 15.6045 34.3937 14.6045 33.2062 13.8753C31.0812 12.5732 28.1895 12.5732 22.4041 12.5732H17.1041C11.3187 12.5732 8.427 12.5732 6.302 13.8753C5.1145 14.6045 4.1145 15.6045 3.38534 16.792C2.08325 18.917 2.08325 21.8087 2.08325 27.5941V29.3607C2.08325 33.4774 2.08325 35.5357 2.75617 37.1607C3.6529 39.3254 5.37274 41.0453 7.53742 41.942C8.56659 42.367 9.76658 42.5253 11.5583 42.5795C13.4666 42.642 14.4208 42.6732 15.152 43.1045C15.8812 43.5378 16.3416 44.3128 17.2603 45.8649L17.8333 46.8337C18.6874 48.2753 20.8208 48.2753 21.6749 46.8337ZM27.4853 30.2441C28.071 30.2441 28.6327 30.0114 29.0469 29.5973C29.461 29.1831 29.6937 28.6214 29.6937 28.0357C29.6937 27.4501 29.461 26.8884 29.0469 26.4742C28.6327 26.0601 28.071 25.8274 27.4853 25.8274C26.8996 25.8274 26.338 26.0601 25.9238 26.4742C25.5097 26.8884 25.277 27.4501 25.277 28.0357C25.277 28.6214 25.5097 29.1831 25.9238 29.5973C26.338 30.0114 26.8996 30.2441 27.4853 30.2441ZM21.9645 28.0357C21.9645 28.3259 21.9074 28.6132 21.7963 28.8812C21.6853 29.1493 21.5225 29.3928 21.3174 29.598C21.1122 29.8032 20.8687 29.9659 20.6006 30.0769C20.3326 30.188 20.0453 30.2451 19.7551 30.2451C19.465 30.2451 19.1777 30.188 18.9096 30.0769C18.6416 29.9659 18.398 29.8032 18.1929 29.598C17.9877 29.3928 17.825 29.1493 17.7139 28.8812C17.6029 28.6132 17.5458 28.3259 17.5458 28.0357C17.5458 27.4501 17.7784 26.8884 18.1926 26.4742C18.6067 26.0601 19.1684 25.8274 19.7541 25.8274C20.3398 25.8274 20.9015 26.0601 21.3156 26.4742C21.7298 26.8884 21.9624 27.4501 21.9624 28.0357H21.9645ZM12.0228 30.2441C12.6085 30.2441 13.1702 30.0114 13.5844 29.5973C13.9985 29.1831 14.2312 28.6214 14.2312 28.0357C14.2312 27.4501 13.9985 26.8884 13.5844 26.4742C13.1702 26.0601 12.6085 25.8274 12.0228 25.8274C11.4371 25.8274 10.8755 26.0601 10.4613 26.4742C10.0472 26.8884 9.8145 27.4501 9.8145 28.0357C9.8145 28.6214 10.0472 29.1831 10.4613 29.5973C10.8755 30.0114 11.4371 30.2441 12.0228 30.2441Z" fill="#204E95"/>
<path opacity="0.5" d="M32.2625 2.0835C34.9021 2.0835 37 2.0835 38.6833 2.24391C40.4104 2.4085 41.8708 2.75225 43.1687 3.54808C44.5061 4.36756 45.6305 5.49196 46.45 6.82933C47.2479 8.12933 47.5916 9.58975 47.7562 11.3147C47.9146 12.9981 47.9146 15.0981 47.9146 17.7356V19.5397C47.9146 21.4168 47.9146 22.9127 47.8312 24.1231C47.7479 25.3627 47.5708 26.4272 47.1583 27.4231C46.6461 28.6596 45.8893 29.7799 44.9335 30.7168C43.9776 31.6537 42.8424 32.3878 41.5958 32.8752C41.3021 32.9877 41.05 33.0835 40.8291 33.1564H37.3916C37.425 32.1168 37.425 30.8793 37.425 29.3606V27.5939C37.425 21.8085 37.425 18.9168 36.1229 16.7918C35.3937 15.6043 34.3937 14.6043 33.2062 13.8752C31.0812 12.5731 28.1896 12.5731 22.4041 12.5731H17.1042C15.05 12.5731 13.3625 12.5731 11.9417 12.6314V9.19391C12.0104 8.95641 12.1042 8.68558 12.2125 8.36891C12.4 7.82725 12.6354 7.31683 12.9333 6.82933C13.7534 5.49177 14.8786 4.36736 16.2167 3.54808C17.5167 2.75225 18.975 2.4085 20.7021 2.24391C22.3854 2.0835 24.4833 2.0835 27.1229 2.0835H32.2625Z" fill="#2EA324"/>
<path d="M43.8141 40.3127L42.9891 41.156C42.3291 41.816 41.9166 42.3752 41.9166 43.7502H40.0833V43.2918C40.0833 42.2743 40.4958 41.3577 41.1558 40.6977L42.2924 39.5427C42.6316 39.2127 42.8333 38.7543 42.8333 38.2502C42.8333 37.7639 42.6401 37.2976 42.2963 36.9538C41.9525 36.61 41.4861 36.4168 40.9999 36.4168C40.5137 36.4168 40.0474 36.61 39.7036 36.9538C39.3597 37.2976 39.1666 37.7639 39.1666 38.2502H37.3333C37.3333 37.2777 37.7196 36.3451 38.4072 35.6574C39.0948 34.9698 40.0275 34.5835 40.9999 34.5835C41.9724 34.5835 42.905 34.9698 43.5926 35.6574C44.2803 36.3451 44.6666 37.2777 44.6666 38.2502C44.6653 39.0231 44.3589 39.7643 43.8141 40.3127ZM41.9166 47.4168H40.0833V45.5835H41.9166M40.9999 31.8335C39.7961 31.8335 38.6041 32.0706 37.492 32.5313C36.3798 32.9919 35.3693 33.6671 34.5181 34.5184C32.799 36.2374 31.8333 38.569 31.8333 41.0002C31.8333 43.4313 32.799 45.7629 34.5181 47.482C35.3693 48.3332 36.3798 49.0084 37.492 49.4691C38.6041 49.9297 39.7961 50.1668 40.9999 50.1668C43.4311 50.1668 45.7626 49.2011 47.4817 47.482C49.2008 45.7629 50.1666 43.4313 50.1666 41.0002C50.1666 35.931 46.0416 31.8335 40.9999 31.8335Z" fill="black"/>
</g>
<defs>
<clipPath id="clip0_339_606">
<rect width="50" height="50" fill="white"/>
</clipPath>
</defs>
</svg>
