<svg width="94" height="94" viewBox="0 0 94 94" fill="none" xmlns="http://www.w3.org/2000/svg">
<circle cx="47" cy="47" r="47" fill="white"/>
<path opacity="0.5" d="M47 91C71.3005 91 90.9999 71.3005 90.9999 47C90.9999 22.6995 71.3005 3.00001 47 3.00001C22.6994 3.00001 2.99995 22.6995 2.99995 47C2.99995 71.3005 22.6994 91 47 91Z" fill="url(#paint0_linear_469_170)"/>
<path d="M31.93 35.7668C31.1072 26.5972 24.0364 18.0524 20.6 14.9284L18.708 13.3004C26.6262 6.63346 36.6488 2.98449 47 3.00005C56.7416 3.00005 65.744 6.16805 73.0304 11.5184C74.06 14.6468 72.0976 21.1808 70.0384 24.3048C69.2904 25.4356 67.6008 26.8436 65.744 28.1768C61.564 31.182 56.284 32.6648 53.6 38.2C52.9291 39.5936 52.799 41.1865 53.2348 42.6704C53.4988 43.6384 53.6748 44.69 53.6748 45.7152C53.6836 49.0372 50.322 51.4352 47 51.4C38.3584 51.3076 32.7 44.3424 31.93 35.7668ZM53.3228 74.6144C57.67 66.4216 72.1592 66.4216 72.1592 66.4216C87.26 66.2632 89.3016 57.0936 90.6656 52.4604C89.4626 62.0574 85.1327 70.9912 78.345 77.8816C71.5573 84.7719 62.6894 89.2352 53.1116 90.582C51.6904 87.59 50.0096 80.858 53.3228 74.6144Z" fill="#3CB03D"/>
<rect x="1.5" y="1.5" width="91" height="91" rx="45.5" stroke="url(#paint1_linear_469_170)" stroke-width="3"/>
<defs>
<linearGradient id="paint0_linear_469_170" x1="47" y1="3.00001" x2="47" y2="91" gradientUnits="userSpaceOnUse">
<stop stop-color="#2F36D3"/>
<stop offset="0.180208" stop-color="#5136F4"/>
<stop offset="0.482292" stop-color="#36F46B"/>
<stop offset="1" stop-color="#2F8ED3"/>
</linearGradient>
<linearGradient id="paint1_linear_469_170" x1="47" y1="0" x2="47" y2="94" gradientUnits="userSpaceOnUse">
<stop stop-color="#2F36D3"/>
<stop offset="0.180208" stop-color="#5136F4"/>
<stop offset="0.482292" stop-color="#36F46B"/>
<stop offset="1" stop-color="#2F8ED3"/>
</linearGradient>
</defs>
</svg>
