<svg width="64" height="20" viewBox="0 0 64 20" fill="none" xmlns="http://www.w3.org/2000/svg">
<path d="M12.792 14.429C12.792 15.5293 12.5254 16.4857 11.9922 17.2982C11.459 18.1107 10.6803 18.737 9.65625 19.1771C8.64062 19.6172 7.40495 19.8372 5.94922 19.8372C5.30599 19.8372 4.67546 19.7949 4.05762 19.7103C3.44824 19.6257 2.86003 19.5029 2.29297 19.3421C1.73438 19.1729 1.20117 18.9655 0.693359 18.7201V15.0638C1.57357 15.4531 2.48763 15.8044 3.43555 16.1175C4.38346 16.4307 5.32292 16.5872 6.25391 16.5872C6.89714 16.5872 7.41341 16.5026 7.80273 16.3333C8.20052 16.1641 8.48828 15.9313 8.66602 15.6351C8.84375 15.3389 8.93262 15.0003 8.93262 14.6195C8.93262 14.154 8.77604 13.7562 8.46289 13.4261C8.14974 13.096 7.7181 12.7871 7.16797 12.4994C6.6263 12.2116 6.0127 11.9027 5.32715 11.5726C4.89551 11.3695 4.42578 11.124 3.91797 10.8363C3.41016 10.54 2.92773 10.1803 2.4707 9.75716C2.01367 9.33399 1.63704 8.82194 1.34082 8.22103C1.05306 7.61166 0.90918 6.88379 0.90918 6.03744C0.90918 4.92871 1.16309 3.9808 1.6709 3.19369C2.17871 2.40658 2.90234 1.80567 3.8418 1.39095C4.78971 0.967776 5.9069 0.756187 7.19336 0.756187C8.1582 0.756187 9.0765 0.870445 9.94824 1.09896C10.8285 1.31901 11.7467 1.64063 12.7031 2.0638L11.4336 5.12337C10.5788 4.77637 9.81283 4.50977 9.13574 4.32357C8.45866 4.12891 7.76888 4.03158 7.06641 4.03158C6.57552 4.03158 6.15658 4.11198 5.80957 4.27279C5.46257 4.42513 5.2002 4.64518 5.02246 4.93295C4.84473 5.21224 4.75586 5.53809 4.75586 5.91048C4.75586 6.35059 4.88281 6.72298 5.13672 7.02767C5.39909 7.3239 5.78841 7.61166 6.30469 7.89095C6.82943 8.17025 7.48112 8.4961 8.25977 8.86849C9.20768 9.31706 10.016 9.78679 10.6846 10.2777C11.3617 10.7601 11.8822 11.3314 12.2461 11.9915C12.61 12.6432 12.792 13.4557 12.792 14.429ZM21.8311 16.7523C22.2542 16.7523 22.6647 16.71 23.0625 16.6253C23.4688 16.5407 23.8708 16.4349 24.2686 16.3079V19.1898C23.8538 19.376 23.3376 19.5283 22.7197 19.6468C22.1104 19.7738 21.4417 19.8372 20.7139 19.8372C19.8675 19.8372 19.1058 19.7018 18.4287 19.431C17.7601 19.1517 17.2311 18.6735 16.8418 17.9964C16.4609 17.3109 16.2705 16.3587 16.2705 15.14V8.2972H14.417V6.65951L16.5498 5.36459L17.667 2.36849H20.1426V5.38998H24.1162V8.2972H20.1426V15.14C20.1426 15.6816 20.2949 16.0879 20.5996 16.3587C20.9128 16.6211 21.3232 16.7523 21.8311 16.7523ZM32.9648 5.09798C34.8691 5.09798 36.3291 5.5127 37.3447 6.34212C38.3604 7.17155 38.8682 8.43262 38.8682 10.1253V19.5833H36.1641L35.415 17.6536H35.3135C34.9072 18.1615 34.4925 18.5762 34.0693 18.8978C33.6462 19.2194 33.1595 19.4564 32.6094 19.6087C32.0592 19.7611 31.3906 19.8372 30.6035 19.8372C29.7656 19.8372 29.0124 19.6764 28.3438 19.3548C27.6836 19.0332 27.1631 18.5423 26.7822 17.8822C26.4014 17.2135 26.2109 16.3672 26.2109 15.3431C26.2109 13.8366 26.7399 12.7279 27.7979 12.0169C28.8558 11.2975 30.4427 10.8997 32.5586 10.8236L35.0215 10.7474V10.1253C35.0215 9.38054 34.8268 8.83464 34.4375 8.48763C34.0482 8.14063 33.5065 7.96712 32.8125 7.96712C32.127 7.96712 31.4541 8.06446 30.7939 8.25912C30.1338 8.45378 29.4736 8.69922 28.8135 8.99545L27.5312 6.38021C28.2845 5.98242 29.1266 5.66927 30.0576 5.44076C30.9971 5.21224 31.9661 5.09798 32.9648 5.09798ZM35.0215 13.0072L33.5234 13.0579C32.2708 13.0918 31.3991 13.3161 30.9082 13.7308C30.4258 14.1455 30.1846 14.6914 30.1846 15.3685C30.1846 15.9609 30.3581 16.3841 30.7051 16.638C31.0521 16.8835 31.5049 17.0062 32.0635 17.0062C32.8929 17.0062 33.5911 16.7607 34.1582 16.2699C34.7337 15.779 35.0215 15.0807 35.0215 14.1751V13.0072ZM50.7891 5.12337C50.9837 5.12337 51.208 5.13607 51.4619 5.16146C51.7243 5.17839 51.9359 5.20378 52.0967 5.23763L51.8047 8.86849C51.6777 8.82617 51.4958 8.79655 51.2588 8.77962C51.0303 8.75423 50.8314 8.74154 50.6621 8.74154C50.1628 8.74154 49.6761 8.80502 49.2021 8.93197C48.7367 9.05892 48.3177 9.26628 47.9453 9.55404C47.5729 9.83334 47.2767 10.2057 47.0566 10.6712C46.8451 11.1283 46.7393 11.6911 46.7393 12.3597V19.5833H42.8672V5.38998H45.7998L46.3711 7.7767H46.5615C46.8408 7.29427 47.1878 6.85417 47.6025 6.45638C48.0257 6.05013 48.5039 5.72852 49.0371 5.49154C49.5788 5.2461 50.1628 5.12337 50.7891 5.12337ZM60.6533 16.7523C61.0765 16.7523 61.487 16.71 61.8848 16.6253C62.291 16.5407 62.693 16.4349 63.0908 16.3079V19.1898C62.6761 19.376 62.1598 19.5283 61.542 19.6468C60.9326 19.7738 60.264 19.8372 59.5361 19.8372C58.6898 19.8372 57.9281 19.7018 57.251 19.431C56.5824 19.1517 56.0534 18.6735 55.6641 17.9964C55.2832 17.3109 55.0928 16.3587 55.0928 15.14V8.2972H53.2393V6.65951L55.3721 5.36459L56.4893 2.36849H58.9648V5.38998H62.9385V8.2972H58.9648V15.14C58.9648 15.6816 59.1172 16.0879 59.4219 16.3587C59.735 16.6211 60.1455 16.7523 60.6533 16.7523Z" fill="#204E95"/>
<path d="M9.65625 19.1771L9.01464 17.6841L9.01014 17.6861L9.65625 19.1771ZM4.05762 19.7103L3.83407 21.3198L3.83707 21.3203L4.05762 19.7103ZM2.29297 19.3421L1.82171 20.8973L1.83563 20.9015L1.84963 20.9055L2.29297 19.3421ZM0.693359 18.7201H-0.931641V19.7395L-0.0137897 20.1831L0.693359 18.7201ZM0.693359 15.0638L1.35068 13.5777L-0.931641 12.5682V15.0638H0.693359ZM3.43555 16.1175L2.92581 17.6605L3.43555 16.1175ZM7.80273 16.3333L7.16644 14.838L7.1548 14.8431L7.80273 16.3333ZM7.16797 12.4994L6.40558 13.9344L6.41479 13.9393L7.16797 12.4994ZM5.32715 11.5726L6.0321 10.1085L6.0256 10.1053L6.01907 10.1023L5.32715 11.5726ZM3.91797 10.8363L3.09918 12.2399L3.10797 12.245L3.11682 12.2501L3.91797 10.8363ZM1.34082 8.22103L-0.128584 8.91492L-0.122749 8.92727L-0.116706 8.93953L1.34082 8.22103ZM3.8418 1.39095L4.49805 2.87756L4.50423 2.8748L3.8418 1.39095ZM9.94824 1.09896L9.53619 2.67085L9.54514 2.6732L9.55412 2.67544L9.94824 1.09896ZM12.7031 2.0638L14.204 2.68659L14.8125 1.22019L13.3607 0.577778L12.7031 2.0638ZM11.4336 5.12337L10.8224 6.62905L12.3165 7.23557L12.9345 5.74616L11.4336 5.12337ZM9.13574 4.32357L8.68674 5.88531L8.69579 5.88791L8.70486 5.8904L9.13574 4.32357ZM5.80957 4.27279L6.4628 5.76071L6.47788 5.75409L6.49282 5.74717L5.80957 4.27279ZM5.02246 4.93295L6.39341 5.80537L6.39927 5.79616L6.40501 5.78687L5.02246 4.93295ZM5.13672 7.02767L3.88836 8.06797L3.90403 8.08678L3.92026 8.1051L5.13672 7.02767ZM6.30469 7.89095L5.53146 9.32024L5.54118 9.32542L6.30469 7.89095ZM8.25977 8.86849L7.55864 10.3345L7.56469 10.3373L8.25977 8.86849ZM10.6846 10.2777L9.72289 11.5876L9.73221 11.5944L9.74162 11.6011L10.6846 10.2777ZM12.2461 11.9915L10.823 12.7761L10.8273 12.7838L12.2461 11.9915ZM11.167 14.429C11.167 15.2557 10.9707 15.8929 10.6336 16.4066L13.3508 18.1897C14.08 17.0785 14.417 15.8029 14.417 14.429H11.167ZM10.6336 16.4066C10.2999 16.9151 9.79017 17.3508 9.01464 17.6841L10.2979 20.6701C11.5705 20.1231 12.618 19.3063 13.3508 18.1897L10.6336 16.4066ZM9.01014 17.6861C8.25184 18.0147 7.24936 18.2122 5.94922 18.2122V21.4622C7.56053 21.4622 9.02941 21.2197 10.3024 20.6681L9.01014 17.6861ZM5.94922 18.2122C5.37745 18.2122 4.82066 18.1746 4.27816 18.1003L3.83707 21.3203C4.53025 21.4152 5.23453 21.4622 5.94922 21.4622V18.2122ZM4.28117 18.1007C3.74281 18.026 3.22819 17.9183 2.73631 17.7788L1.84963 20.9055C2.49186 21.0876 3.15368 21.2253 3.83407 21.3198L4.28117 18.1007ZM2.76423 17.787C2.28373 17.6414 1.82961 17.4644 1.40051 17.257L-0.0137897 20.1831C0.572734 20.4666 1.18502 20.7044 1.82171 20.8973L2.76423 17.787ZM2.31836 18.7201V15.0638H-0.931641V18.7201H2.31836ZM0.0360371 16.5499C0.96624 16.9614 1.92966 17.3314 2.92581 17.6605L3.94528 14.5745C3.0456 14.2773 2.1809 13.9449 1.35068 13.5777L0.0360371 16.5499ZM2.92581 17.6605C4.02628 18.024 5.13761 18.2122 6.25391 18.2122V14.9622C5.50822 14.9622 4.74065 14.8373 3.94528 14.5745L2.92581 17.6605ZM6.25391 18.2122C7.01624 18.2122 7.77936 18.1154 8.45066 17.8236L7.1548 14.8431C7.04746 14.8898 6.77803 14.9622 6.25391 14.9622V18.2122ZM8.43901 17.8286C9.07222 17.5591 9.66512 17.1284 10.0594 16.4711L7.27259 14.799C7.28837 14.7727 7.30157 14.763 7.29498 14.7684C7.28599 14.7756 7.24934 14.8028 7.16646 14.8381L8.43901 17.8286ZM10.0594 16.4711C10.4039 15.897 10.5576 15.2638 10.5576 14.6195H7.30762C7.30762 14.7369 7.28356 14.7808 7.27259 14.799L10.0594 16.4711ZM10.5576 14.6195C10.5576 13.7485 10.2486 12.9473 9.64177 12.3077L7.28401 14.5445C7.29639 14.5576 7.30166 14.5654 7.30303 14.5675C7.30428 14.5694 7.30382 14.569 7.30311 14.5672C7.30241 14.5654 7.3032 14.5667 7.30435 14.573C7.30554 14.5796 7.30762 14.5945 7.30762 14.6195H10.5576ZM9.64177 12.3077C9.16962 11.81 8.57616 11.4021 7.92115 11.0594L6.41479 13.9393C6.86003 14.1722 7.12986 14.382 7.28401 14.5445L9.64177 12.3077ZM7.93035 11.0643C7.36588 10.7644 6.7326 10.4457 6.0321 10.1085L4.6222 13.0367C5.29279 13.3596 5.88672 13.6588 6.40559 13.9344L7.93035 11.0643ZM6.01907 10.1023C5.63163 9.91994 5.19879 9.69429 4.71911 9.42248L3.11682 12.2501C3.65278 12.5538 4.15939 12.819 4.63523 13.0429L6.01907 10.1023ZM4.73676 9.43262C4.33735 9.19963 3.94984 8.91212 3.57474 8.5648L1.36667 10.9495C1.90563 11.4486 2.48297 11.8804 3.09918 12.2399L4.73676 9.43262ZM3.57474 8.5648C3.27422 8.28654 3.01339 7.93877 2.79835 7.50253L-0.116706 8.93953C0.260697 9.70512 0.753125 10.3814 1.36667 10.9495L3.57474 8.5648ZM2.81022 7.52715C2.64767 7.1829 2.53418 6.70351 2.53418 6.03744H-0.71582C-0.71582 7.06407 -0.541546 8.04041 -0.128584 8.91492L2.81022 7.52715ZM2.53418 6.03744C2.53418 5.18292 2.72703 4.55413 3.03638 4.07464L0.305416 2.31273C-0.400862 3.40746 -0.71582 4.67451 -0.71582 6.03744H2.53418ZM3.03638 4.07464C3.35555 3.57993 3.81997 3.17688 4.49804 2.87755L3.18555 -0.0956429C1.98472 0.434456 1.00187 1.23323 0.305416 2.31273L3.03638 4.07464ZM4.50423 2.8748C5.20012 2.56414 6.08206 2.38119 7.19336 2.38119V-0.868813C5.73174 -0.868813 4.37931 -0.628586 3.17936 -0.092896L4.50423 2.8748ZM7.19336 2.38119C8.02891 2.38119 8.80809 2.47999 9.53619 2.67085L10.3603 -0.47293C9.3449 -0.739099 8.28749 -0.868813 7.19336 -0.868813V2.38119ZM9.55412 2.67544C10.3317 2.86983 11.1617 3.15873 12.0456 3.54983L13.3607 0.577778C12.3318 0.122525 11.3252 -0.231807 10.3424 -0.477521L9.55412 2.67544ZM11.2022 1.44102L9.93267 4.50059L12.9345 5.74616L14.204 2.68659L11.2022 1.44102ZM12.0448 3.6177C11.1482 3.25374 10.3205 2.96405 9.56662 2.75674L8.70486 5.8904C9.30516 6.05549 10.0093 6.299 10.8224 6.62905L12.0448 3.6177ZM9.58474 2.76183C8.76211 2.52533 7.92121 2.40658 7.06641 2.40658V5.65658C7.61655 5.65658 8.1552 5.73249 8.68674 5.88531L9.58474 2.76183ZM7.06641 2.40658C6.40401 2.40658 5.7391 2.51444 5.12632 2.79841L6.49282 5.74717C6.57406 5.70952 6.74704 5.65658 7.06641 5.65658V2.40658ZM5.15634 2.78487C4.54537 3.0531 4.01133 3.47767 3.63991 4.07902L6.40501 5.78687C6.40395 5.78858 6.40207 5.79127 6.39963 5.79408C6.3972 5.79688 6.39587 5.79791 6.39678 5.79715C6.39797 5.79615 6.41561 5.78143 6.4628 5.76071L5.15634 2.78487ZM3.65151 4.06052C3.28773 4.63217 3.13086 5.26879 3.13086 5.91048H6.38086C6.38086 5.85409 6.38749 5.8245 6.39025 5.81437C6.39172 5.80899 6.39276 5.80661 6.3929 5.80629C6.39303 5.80601 6.39307 5.8059 6.39341 5.80537L3.65151 4.06052ZM3.13086 5.91048C3.13086 6.68625 3.36405 7.43881 3.88836 8.06797L6.38508 5.98737C6.38354 5.98553 6.38454 5.98648 6.3864 5.98979C6.38828 5.99312 6.38915 5.99552 6.38915 5.99551C6.3891 5.99536 6.38718 5.98979 6.38518 5.977C6.38315 5.964 6.38086 5.94234 6.38086 5.91048H3.13086ZM3.92026 8.1051C4.35397 8.59477 4.92106 8.98998 5.53148 9.32021L7.07789 6.46169C6.65576 6.23333 6.44421 6.05302 6.35317 5.95024L3.92026 8.1051ZM5.54118 9.32542C6.09338 9.61933 6.76745 9.95606 7.55865 10.3345L8.96088 7.40252C8.19479 7.03613 7.56548 6.72117 7.06819 6.45649L5.54118 9.32542ZM7.56469 10.3373C8.44219 10.7526 9.15636 11.1716 9.72289 11.5876L11.6463 8.96779C10.8755 8.40195 9.97318 7.88154 8.95484 7.39965L7.56469 10.3373ZM9.74162 11.6011C10.2409 11.9569 10.5884 12.3504 10.823 12.7761L13.6692 11.207C13.176 10.3124 12.4824 9.56332 11.6275 8.95424L9.74162 11.6011ZM10.8273 12.7838C11.021 13.1307 11.167 13.6512 11.167 14.429H14.417C14.417 13.2603 14.199 12.1558 13.6649 11.1992L10.8273 12.7838ZM23.0625 16.6253L22.7311 15.0345L22.7243 15.0359L23.0625 16.6253ZM24.2686 16.3079H25.8936V14.0836L23.7745 14.7599L24.2686 16.3079ZM24.2686 19.1898L24.9341 20.6722L25.8936 20.2415V19.1898H24.2686ZM22.7197 19.6468L22.4137 18.0509L22.401 18.0533L22.3883 18.056L22.7197 19.6468ZM18.4287 19.431L17.8024 20.9304L17.8137 20.9352L17.8252 20.9398L18.4287 19.431ZM16.8418 17.9964L15.4213 18.7856L15.4271 18.7961L15.4331 18.8064L16.8418 17.9964ZM16.2705 8.2972H17.8955V6.6722H16.2705V8.2972ZM14.417 8.2972H12.792V9.9222H14.417V8.2972ZM14.417 6.65951L13.5737 5.27048L12.792 5.74506V6.65951H14.417ZM16.5498 5.36459L17.3931 6.75362L17.8753 6.46087L18.0724 5.93233L16.5498 5.36459ZM17.667 2.36849V0.743492H16.5386L16.1444 1.80075L17.667 2.36849ZM20.1426 2.36849H21.7676V0.743492H20.1426V2.36849ZM20.1426 5.38998H18.5176V7.01498H20.1426V5.38998ZM24.1162 5.38998H25.7412V3.76498H24.1162V5.38998ZM24.1162 8.2972V9.9222H25.7412V8.2972H24.1162ZM20.1426 8.2972V6.6722H18.5176V8.2972H20.1426ZM20.5996 16.3587L19.52 17.5733L19.5378 17.5891L19.556 17.6043L20.5996 16.3587ZM21.8311 18.3773C22.3633 18.3773 22.8873 18.324 23.4007 18.2148L22.7243 15.0359C22.4421 15.0959 22.1452 15.1273 21.8311 15.1273V18.3773ZM23.3939 18.2162C23.8554 18.12 24.3117 17.9999 24.7626 17.856L23.7745 14.7599C23.4298 14.8699 23.0821 14.9614 22.7311 15.0345L23.3939 18.2162ZM22.6436 16.3079V19.1898H25.8936V16.3079H22.6436ZM23.603 17.7073C23.3377 17.8264 22.9512 17.9478 22.4137 18.0509L23.0258 21.2427C23.7239 21.1088 24.37 20.9255 24.9341 20.6722L23.603 17.7073ZM22.3883 18.056C21.9044 18.1568 21.3486 18.2122 20.7139 18.2122V21.4622C21.5349 21.4622 22.3163 21.3908 23.0512 21.2377L22.3883 18.056ZM20.7139 18.2122C20.0415 18.2122 19.4891 18.105 19.0322 17.9222L17.8252 20.9398C18.7225 21.2987 19.6935 21.4622 20.7139 21.4622V18.2122ZM19.0551 17.9316C18.7422 17.8009 18.4766 17.5796 18.2505 17.1864L15.4331 18.8064C15.9856 19.7674 16.778 20.5025 17.8024 20.9304L19.0551 17.9316ZM18.2623 17.2073C18.07 16.861 17.8955 16.2218 17.8955 15.14H14.6455C14.6455 16.4957 14.8519 17.7607 15.4213 18.7856L18.2623 17.2073ZM17.8955 15.14V8.2972H14.6455V15.14H17.8955ZM16.2705 6.6722H14.417V9.9222H16.2705V6.6722ZM16.042 8.2972V6.65951H12.792V8.2972H16.042ZM15.2603 8.04854L17.3931 6.75362L15.7065 3.97556L13.5737 5.27048L15.2603 8.04854ZM18.0724 5.93233L19.1896 2.93624L16.1444 1.80075L15.0272 4.79684L18.0724 5.93233ZM17.667 3.99349H20.1426V0.743492H17.667V3.99349ZM18.5176 2.36849V5.38998H21.7676V2.36849H18.5176ZM20.1426 7.01498H24.1162V3.76498H20.1426V7.01498ZM22.4912 5.38998V8.2972H25.7412V5.38998H22.4912ZM24.1162 6.6722H20.1426V9.9222H24.1162V6.6722ZM18.5176 8.2972V15.14H21.7676V8.2972H18.5176ZM18.5176 15.14C18.5176 15.985 18.764 16.9013 19.52 17.5733L21.6792 15.1442C21.7047 15.1669 21.7278 15.1934 21.7465 15.2211C21.765 15.2484 21.7745 15.27 21.7784 15.2803C21.7853 15.2987 21.7676 15.2625 21.7676 15.14H18.5176ZM19.556 17.6043C20.2275 18.1669 21.0373 18.3773 21.8311 18.3773V15.1273C21.7159 15.1273 21.6568 15.1123 21.637 15.106C21.6215 15.101 21.6294 15.1016 21.6432 15.1131L19.556 17.6043ZM37.3447 6.34212L38.3726 5.08351L37.3447 6.34212ZM38.8682 19.5833V21.2083H40.4932V19.5833H38.8682ZM36.1641 19.5833L34.6492 20.1713L35.0517 21.2083H36.1641V19.5833ZM35.415 17.6536L36.9299 17.0656L36.5274 16.0286H35.415V17.6536ZM35.3135 17.6536V16.0286H34.5325L34.0446 16.6385L35.3135 17.6536ZM28.3438 19.3548L27.632 20.8157L27.6394 20.8192L28.3438 19.3548ZM26.7822 17.8822L25.3702 18.6865L25.3747 18.6942L26.7822 17.8822ZM27.7979 12.0169L28.7042 13.3657L28.7116 13.3607L27.7979 12.0169ZM32.5586 10.8236L32.5084 9.19933L32.5001 9.19962L32.5586 10.8236ZM35.0215 10.7474L35.0717 12.3716L36.6465 12.3229V10.7474H35.0215ZM28.8135 8.99545L27.3544 9.71081L28.0458 11.121L29.4787 10.478L28.8135 8.99545ZM27.5312 6.38021L26.7724 4.94327L25.378 5.67966L26.0722 7.09558L27.5312 6.38021ZM30.0576 5.44076L29.6735 3.86179L29.6703 3.8626L30.0576 5.44076ZM35.0215 13.0072H36.6465V11.3261L34.9664 11.3831L35.0215 13.0072ZM33.5234 13.0579L33.5673 14.6824L33.5785 14.682L33.5234 13.0579ZM30.9082 13.7308L29.8595 12.4894L29.8489 12.4985L30.9082 13.7308ZM30.7051 16.638L29.7455 17.9494L29.756 17.9572L29.7667 17.9647L30.7051 16.638ZM34.1582 16.2699L33.1036 15.0335L33.0946 15.0413L34.1582 16.2699ZM32.9648 6.72298C34.6593 6.72298 35.6975 7.09492 36.3169 7.60074L38.3726 5.08351C36.9607 3.93048 35.079 3.47298 32.9648 3.47298V6.72298ZM36.3169 7.60074C36.85 8.03612 37.2432 8.76717 37.2432 10.1253H40.4932C40.4932 8.09807 39.8707 6.30699 38.3726 5.08351L36.3169 7.60074ZM37.2432 10.1253V19.5833H40.4932V10.1253H37.2432ZM38.8682 17.9583H36.1641V21.2083H38.8682V17.9583ZM37.6789 18.9953L36.9299 17.0656L33.9002 18.2417L34.6492 20.1713L37.6789 18.9953ZM35.415 16.0286H35.3135V19.2786H35.415V16.0286ZM34.0446 16.6385C33.7039 17.0643 33.3824 17.3788 33.0861 17.604L35.0526 20.1916C35.6026 19.7735 36.1105 19.2586 36.5824 18.6688L34.0446 16.6385ZM33.0861 17.604C32.839 17.7918 32.5418 17.9413 32.1757 18.0427L33.0431 21.1748C33.7772 20.9715 34.4533 20.647 35.0526 20.1916L33.0861 17.604ZM32.1757 18.0427C31.8088 18.1443 31.2952 18.2122 30.6035 18.2122V21.4622C31.4861 21.4622 32.3097 21.3779 33.0431 21.1748L32.1757 18.0427ZM30.6035 18.2122C29.9778 18.2122 29.4701 18.0934 29.0481 17.8904L27.6394 20.8192C28.5546 21.2595 29.5535 21.4622 30.6035 21.4622V18.2122ZM29.0555 17.894C28.6983 17.7199 28.4151 17.4607 28.1898 17.0701L25.3747 18.6942C25.9111 19.6239 26.6689 20.3465 27.632 20.8157L29.0555 17.894ZM28.1942 17.0779C27.9917 16.7223 27.8359 16.1753 27.8359 15.3431H24.5859C24.5859 16.5591 24.8111 17.7048 25.3702 18.6865L28.1942 17.0779ZM27.8359 15.3431C27.8359 14.2643 28.1821 13.7165 28.7042 13.3657L26.8915 10.6682C25.2977 11.7392 24.5859 13.4089 24.5859 15.3431H27.8359ZM28.7116 13.3607C29.4006 12.8922 30.6275 12.5191 32.6171 12.4475L32.5001 9.19962C30.2579 9.28034 28.311 9.70287 26.8841 10.6732L28.7116 13.3607ZM32.6088 12.4478L35.0717 12.3716L34.9713 9.12318L32.5084 9.19935L32.6088 12.4478ZM36.6465 10.7474V10.1253H33.3965V10.7474H36.6465ZM36.6465 10.1253C36.6465 9.12068 36.3813 8.0434 35.5187 7.27455L33.3563 9.70072C33.3257 9.67346 33.3287 9.65762 33.3449 9.70311C33.3648 9.75897 33.3965 9.88853 33.3965 10.1253H36.6465ZM35.5187 7.27455C34.7449 6.58486 33.7712 6.34212 32.8125 6.34212V9.59212C33.2418 9.59212 33.3514 9.6964 33.3563 9.70072L35.5187 7.27455ZM32.8125 6.34212C31.9707 6.34212 31.1431 6.46198 30.3343 6.70047L31.2535 9.81777C31.7651 9.66693 32.2832 9.59212 32.8125 9.59212V6.34212ZM30.3343 6.70047C29.6005 6.91685 28.8717 7.1882 28.1482 7.51286L29.4787 10.478C30.0755 10.2102 30.6671 9.99071 31.2535 9.81777L30.3343 6.70047ZM30.2725 8.28008L28.9903 5.66484L26.0722 7.09558L27.3544 9.71081L30.2725 8.28008ZM28.2901 7.81715C28.9121 7.48865 29.6273 7.21962 30.445 7.01891L29.6703 3.8626C28.626 4.11892 27.6569 4.4762 26.7724 4.94327L28.2901 7.81715ZM30.4417 7.01972C31.2513 6.82278 32.0913 6.72298 32.9648 6.72298V3.47298C31.841 3.47298 30.7428 3.6017 29.6735 3.8618L30.4417 7.01972ZM34.9664 11.3831L33.4684 11.4339L33.5785 14.682L35.0765 14.6312L34.9664 11.3831ZM33.4795 11.4335C32.1571 11.4693 30.7973 11.6972 29.8595 12.4895L31.9569 14.9721C31.9561 14.9728 32.0471 14.8994 32.3351 14.8253C32.617 14.7528 33.0193 14.6972 33.5673 14.6824L33.4795 11.4335ZM29.8489 12.4985C28.9819 13.2438 28.5596 14.2525 28.5596 15.3685H31.8096C31.8096 15.1303 31.8697 15.0472 31.9675 14.9631L29.8489 12.4985ZM28.5596 15.3685C28.5596 16.2684 28.8352 17.2834 29.7455 17.9494L31.6647 15.3266C31.7013 15.3534 31.7363 15.3872 31.7657 15.4255C31.7947 15.4632 31.8107 15.4954 31.8182 15.5138C31.8316 15.5463 31.8096 15.5129 31.8096 15.3685H28.5596ZM29.7667 17.9647C30.4627 18.457 31.2735 18.6312 32.0635 18.6312V15.3812C31.9013 15.3812 31.7945 15.3632 31.73 15.3457C31.6685 15.3291 31.646 15.3132 31.6435 15.3113L29.7667 17.9647ZM32.0635 18.6312C33.2391 18.6312 34.3274 18.2727 35.2218 17.4985L33.0946 15.0413C32.8549 15.2488 32.5467 15.3812 32.0635 15.3812V18.6312ZM35.2127 17.5062C36.222 16.6454 36.6465 15.4533 36.6465 14.1751H33.3965C33.3965 14.7081 33.2455 14.9126 33.1037 15.0335L35.2127 17.5062ZM36.6465 14.1751V13.0072H33.3965V14.1751H36.6465ZM51.4619 5.16146L51.3002 6.7784L51.3287 6.78125L51.3573 6.78309L51.4619 5.16146ZM52.0967 5.23763L53.7165 5.36789L53.8311 3.94215L52.4314 3.64749L52.0967 5.23763ZM51.8047 8.86849L51.2908 10.4101L53.2582 11.0659L53.4245 8.99875L51.8047 8.86849ZM51.2588 8.77962L51.0793 10.3947L51.1111 10.3982L51.143 10.4005L51.2588 8.77962ZM49.2021 8.93197L48.7817 7.36229L48.7746 7.36423L49.2021 8.93197ZM47.9453 9.55404L48.9203 10.854L48.9297 10.847L48.9389 10.8399L47.9453 9.55404ZM47.0566 10.6712L45.5875 9.97671L45.582 9.98853L47.0566 10.6712ZM46.7393 19.5833V21.2083H48.3643V19.5833H46.7393ZM42.8672 19.5833H41.2422V21.2083H42.8672V19.5833ZM42.8672 5.38998V3.76498H41.2422V5.38998H42.8672ZM45.7998 5.38998L47.3802 5.0117L47.0817 3.76498H45.7998V5.38998ZM46.3711 7.7767L44.7907 8.15497L45.0892 9.4017H46.3711V7.7767ZM46.5615 7.7767V9.4017H47.4984L47.9678 8.59088L46.5615 7.7767ZM47.6025 6.45638L48.7274 7.62912L48.7279 7.62864L47.6025 6.45638ZM49.0371 5.49154L49.6971 6.97652L49.7078 6.97168L49.0371 5.49154ZM50.7891 6.74837C50.9162 6.74837 51.0846 6.75683 51.3002 6.7784L51.6236 3.54453C51.3314 3.51531 51.0513 3.49837 50.7891 3.49837V6.74837ZM51.3573 6.78309C51.5823 6.7976 51.7081 6.81644 51.7619 6.82778L52.4314 3.64749C52.1637 3.59112 51.8663 3.55917 51.5665 3.53983L51.3573 6.78309ZM50.4769 5.10737L50.1849 8.73823L53.4245 8.99875L53.7165 5.36789L50.4769 5.10737ZM52.3186 7.32688C52.0001 7.22073 51.6598 7.17913 51.3746 7.15875L51.143 10.4005C51.2259 10.4064 51.2805 10.4133 51.3119 10.4184C51.327 10.4209 51.3327 10.4223 51.3306 10.4218C51.3288 10.4214 51.3146 10.418 51.2908 10.4101L52.3186 7.32688ZM51.4382 7.16456C51.1697 7.13472 50.9082 7.11654 50.6621 7.11654V10.3665C50.7546 10.3665 50.8909 10.3737 51.0793 10.3947L51.4382 7.16456ZM50.6621 7.11654C50.0233 7.11654 49.3952 7.19797 48.7817 7.3623L49.6226 10.5016C49.957 10.4121 50.3022 10.3665 50.6621 10.3665V7.11654ZM48.7746 7.36423C48.1091 7.54573 47.4968 7.847 46.9517 8.2682L48.9389 10.8399C49.1386 10.6856 49.3642 10.5721 49.6297 10.4997L48.7746 7.36423ZM46.9703 8.25404C46.3647 8.70826 45.9084 9.29803 45.5875 9.97673L48.5258 11.3657C48.645 11.1134 48.7812 10.9584 48.9203 10.854L46.9703 8.25404ZM45.582 9.98853C45.2445 10.7175 45.1143 11.5289 45.1143 12.3597H48.3643C48.3643 11.8533 48.4456 11.539 48.5313 11.3539L45.582 9.98853ZM45.1143 12.3597V19.5833H48.3643V12.3597H45.1143ZM46.7393 17.9583H42.8672V21.2083H46.7393V17.9583ZM44.4922 19.5833V5.38998H41.2422V19.5833H44.4922ZM42.8672 7.01498H45.7998V3.76498H42.8672V7.01498ZM44.2194 5.76825L44.7907 8.15497L47.9515 7.39842L47.3802 5.0117L44.2194 5.76825ZM46.3711 9.4017H46.5615V6.1517H46.3711V9.4017ZM47.9678 8.59088C48.1683 8.24465 48.4195 7.92449 48.7274 7.62912L46.4777 5.28365C45.9562 5.78385 45.5134 6.3439 45.1552 6.96251L47.9678 8.59088ZM48.7279 7.62864C49.016 7.35208 49.3369 7.13657 49.6971 6.97648L48.3771 4.0066C47.6709 4.32047 47.0355 4.74818 46.4772 5.28413L48.7279 7.62864ZM49.7078 6.97168C50.0276 6.82676 50.3815 6.74837 50.7891 6.74837V3.49837C49.944 3.49837 49.1299 3.66543 48.3664 4.0114L49.7078 6.97168ZM61.8848 16.6253L61.5533 15.0345L61.5466 15.0359L61.8848 16.6253ZM63.0908 16.3079H64.7158V14.0836L62.5968 14.7599L63.0908 16.3079ZM63.0908 19.1898L63.7564 20.6722L64.7158 20.2415V19.1898H63.0908ZM61.542 19.6468L61.2359 18.0509L61.2232 18.0533L61.2106 18.056L61.542 19.6468ZM57.251 19.431L56.6246 20.9304L56.636 20.9352L56.6475 20.9398L57.251 19.431ZM55.6641 17.9964L54.2436 18.7856L54.2494 18.7961L54.2553 18.8064L55.6641 17.9964ZM55.0928 8.2972H56.7178V6.6722H55.0928V8.2972ZM53.2393 8.2972H51.6143V9.9222H53.2393V8.2972ZM53.2393 6.65951L52.3959 5.27048L51.6143 5.74506V6.65951H53.2393ZM55.3721 5.36459L56.2154 6.75362L56.6976 6.46087L56.8947 5.93233L55.3721 5.36459ZM56.4893 2.36849V0.743492H55.3609L54.9667 1.80075L56.4893 2.36849ZM58.9648 2.36849H60.5898V0.743492H58.9648V2.36849ZM58.9648 5.38998H57.3398V7.01498H58.9648V5.38998ZM62.9385 5.38998H64.5635V3.76498H62.9385V5.38998ZM62.9385 8.2972V9.9222H64.5635V8.2972H62.9385ZM58.9648 8.2972V6.6722H57.3398V8.2972H58.9648ZM59.4219 16.3587L58.3423 17.5733L58.36 17.5891L58.3783 17.6043L59.4219 16.3587ZM60.6533 18.3773C61.1856 18.3773 61.7096 18.324 62.2229 18.2148L61.5466 15.0359C61.2644 15.0959 60.9674 15.1273 60.6533 15.1273V18.3773ZM62.2162 18.2162C62.6777 18.12 63.134 17.9999 63.5849 17.856L62.5968 14.7599C62.2521 14.8699 61.9043 14.9614 61.5533 15.0345L62.2162 18.2162ZM61.4658 16.3079V19.1898H64.7158V16.3079H61.4658ZM62.4252 17.7073C62.16 17.8264 61.7735 17.9478 61.2359 18.0509L61.8481 21.2427C62.5462 21.1088 63.1923 20.9255 63.7564 20.6722L62.4252 17.7073ZM61.2106 18.056C60.7267 18.1568 60.1708 18.2122 59.5361 18.2122V21.4622C60.3571 21.4622 61.1385 21.3908 61.8734 21.2377L61.2106 18.056ZM59.5361 18.2122C58.8638 18.2122 58.3114 18.105 57.8545 17.9222L56.6475 20.9398C57.5447 21.2987 58.5158 21.4622 59.5361 21.4622V18.2122ZM57.8773 17.9316C57.5644 17.8009 57.2989 17.5796 57.0728 17.1864L54.2553 18.8064C54.8079 19.7674 55.6003 20.5025 56.6246 20.9304L57.8773 17.9316ZM57.0846 17.2073C56.8922 16.861 56.7178 16.2218 56.7178 15.14H53.4678C53.4678 16.4957 53.6742 17.7607 54.2436 18.7856L57.0846 17.2073ZM56.7178 15.14V8.2972H53.4678V15.14H56.7178ZM55.0928 6.6722H53.2393V9.9222H55.0928V6.6722ZM54.8643 8.2972V6.65951H51.6143V8.2972H54.8643ZM54.0826 8.04854L56.2154 6.75362L54.5287 3.97556L52.3959 5.27048L54.0826 8.04854ZM56.8947 5.93233L58.0119 2.93624L54.9667 1.80075L53.8495 4.79684L56.8947 5.93233ZM56.4893 3.99349H58.9648V0.743492H56.4893V3.99349ZM57.3398 2.36849V5.38998H60.5898V2.36849H57.3398ZM58.9648 7.01498H62.9385V3.76498H58.9648V7.01498ZM61.3135 5.38998V8.2972H64.5635V5.38998H61.3135ZM62.9385 6.6722H58.9648V9.9222H62.9385V6.6722ZM57.3398 8.2972V15.14H60.5898V8.2972H57.3398ZM57.3398 15.14C57.3398 15.985 57.5863 16.9013 58.3423 17.5733L60.5015 15.1442C60.527 15.1669 60.5501 15.1934 60.5688 15.2211C60.5872 15.2484 60.5968 15.27 60.6006 15.2803C60.6075 15.2987 60.5898 15.2625 60.5898 15.14H57.3398ZM58.3783 17.6043C59.0497 18.1669 59.8595 18.3773 60.6533 18.3773V15.1273C60.5382 15.1273 60.479 15.1123 60.4593 15.106C60.4437 15.101 60.4517 15.1016 60.4655 15.1131L58.3783 17.6043Z" fill="#F6F6F6"/>
</svg>
