<svg width="60" height="60" viewBox="0 0 60 60" fill="none" xmlns="http://www.w3.org/2000/svg">
<g clip-path="url(#clip0_285_22)">
<path d="M38.4085 53.0371C35.6025 49.6975 31.8389 42.3382 31.8389 42.3382C31.8389 42.3382 41.9526 34.7952 42.5777 34.7801C43.2028 34.765 53.0666 41.3508 53.0666 41.3508C53.0666 41.3508 50.2445 51.8506 47.1532 53.3805C44.0534 54.9095 38.4085 53.0371 38.4085 53.0371Z" fill="#A3A3A3"/>
<path d="M40.8512 37.98C40.8512 37.98 38.0753 40.6288 36.6546 44.1492C35.6637 46.6032 35.5586 48.9422 35.5586 48.9422L32.8338 44.381L35.5256 41.2398L40.8512 37.98Z" fill="#646464"/>
<path d="M11.2036 10.4585C8.03383 16.2601 7.18914 24.0403 7.18914 24.0403L18.7146 30.9613L27.9435 50.2486C27.9435 50.2486 33.2806 44.0038 34.6659 41.5104L11.2036 10.4585Z" fill="#A3A3A3"/>
<path d="M42.1877 41.5812L48.2221 51.8423C48.2221 51.8423 55.9132 42.6033 49.9952 37.5889C48.6626 36.4609 42.7058 34.7722 41.8856 34.9493L42.1877 41.5812Z" fill="#646464"/>
<path d="M26.0302 50.0481L25.9706 50.0504C25.9079 50.082 25.8414 50.1089 25.7787 50.1406C25.8536 50.1145 25.9554 50.0742 26.0302 50.0481ZM50.0167 34.1852C48.7509 33.2297 24.9497 16.3057 22.1635 13.8293L9.28012 13.5953L6.03193 16.7842L6.8701 17.9749L5.57086 20.2948L19.149 29.8912C19.7792 32.0145 23.4311 43.3155 25.1994 49.0703C25.1994 49.0703 29.5814 45.9916 31.695 43.6722L27.9439 50.2443L31.4395 52.3878C31.4395 52.3878 32.955 44.2369 38.426 39.7919C43.8178 35.4149 47.1221 36.6307 49.0971 39.319C52.2305 43.5837 47.8863 50.959 43.7855 50.2198C40.6045 49.649 43.2262 45.071 43.3666 41.9086C43.4994 38.9405 42.2315 37.8024 41.8598 37.6659C41.4881 37.5294 39.8397 39.3758 39.1764 41.1727C35.8675 50.1242 37.446 53.683 40.8138 54.6975C45.8927 56.2222 50.256 53.3621 52.7377 47.8532C55.3025 42.1578 54.3097 37.4218 50.0167 34.1852Z" fill="#CFCFCF"/>
<path d="M41.4959 40.4101C41.4959 40.4101 41.9784 43.4978 40.5818 47.1522C40.1679 46.0823 40.3303 44.6529 40.5543 43.5268C40.8528 42.014 41.4959 40.4101 41.4959 40.4101ZM41.8105 51.7009C42.2728 51.8639 42.7182 52.0251 43.178 52.0902C43.6327 52.1633 44.0856 52.1725 44.5279 52.1213C45.4105 51.9974 46.2412 51.6391 46.9984 51.133C47.7626 50.6404 48.4636 50.0224 49.1308 49.3627C49.7985 48.6988 50.4365 47.9936 51.078 47.2549C50.74 48.1739 50.231 49.0241 49.6321 49.8012C49.0266 50.5957 48.2952 51.2857 47.4669 51.8438C46.6205 52.3914 45.6167 52.7826 44.5693 52.7789C44.0479 52.7752 43.5376 52.6666 43.0687 52.486C42.596 52.3007 42.1801 52.0196 41.8105 51.7009Z" fill="#A3A3A3"/>
<path d="M50.1914 34.2583C50.1914 34.2583 44.6047 27.3358 36.1598 20.5677C36.1598 20.5677 29.1084 8.47366 28.2802 7.30948C26.6905 5.07294 23.0231 4.56999 19.8836 4.81801C13.4119 5.33203 9.14515 9.61896 6.33348 13.176L19.1317 28.0312L25.289 45.5417C29.6928 42.741 31.0412 38.615 37.3357 35.1768C45.1424 30.9086 50.1914 34.2583 50.1914 34.2583Z" fill="#EEEEEE"/>
<path d="M36.3603 38.7781C36.8536 38.2401 37.3716 37.709 37.9426 37.2386C38.5357 36.8002 39.1156 36.3265 39.7913 35.99C40.4275 35.5858 41.1486 35.3432 41.8573 35.0569C42.2209 34.9465 42.5978 34.8715 42.9727 34.775C43.1564 34.7222 43.3463 34.6911 43.5391 34.6732L44.115 34.602C44.498 34.5488 44.8896 34.5771 45.2791 34.584C45.6658 34.5778 46.0538 34.6397 46.4371 34.7053C47.203 34.8449 47.9533 35.0931 48.6417 35.4452C48.8151 35.5313 48.9775 35.6416 49.1454 35.7398C49.3082 35.8459 49.482 35.9277 49.6249 36.0615C49.926 36.3051 50.228 36.5404 50.4865 36.8262C51.0006 37.3848 51.464 38.023 51.6373 38.758L51.5616 38.7925C51.2472 38.1487 50.7426 37.6208 50.1965 37.1648C49.6559 36.6968 49.0216 36.3546 48.374 36.0577C47.0576 35.5041 45.6014 35.3134 44.1836 35.4448L43.6519 35.4994C43.4726 35.5103 43.2957 35.5385 43.1255 35.5843C42.778 35.6624 42.4267 35.7359 42.0787 35.8182C41.4014 36.0484 40.7136 36.2563 40.0765 36.5883C39.4115 36.8622 38.8065 37.2527 38.1839 37.6075C37.5722 37.9803 37.0038 38.4255 36.4142 38.8304L36.3603 38.7781ZM6.03271 16.7759L13.7821 24.5952L6.46849 18.7304C6.46849 18.7304 6.66749 18.3694 6.76499 18.1676L6.03271 16.7759Z" fill="#A3A3A3"/>
<path opacity="0.7" d="M24.805 6.71214L28.6132 12.6339C28.8834 12.6453 29.1361 12.6633 29.3794 12.6887L25.6221 6.84864C25.4024 6.80017 25.123 6.75394 24.805 6.71214ZM21.0111 6.688L25.5042 12.9954C25.7186 12.933 25.9321 12.8791 26.1443 12.8377L21.7179 6.62206C21.4869 6.64028 21.2513 6.66226 21.0111 6.688ZM31.0022 14.8524C30.7626 14.8315 30.5184 14.8144 30.2649 14.8049C31.4204 16.9747 33.066 19.6498 34.9863 21.5646C35.2807 21.5488 35.5737 21.5456 35.8738 21.5558C33.9339 19.7873 32.2262 17.0973 31.0022 14.8524ZM27.8765 14.928C27.6652 14.961 27.4535 14.9982 27.2409 15.0438C28.2508 17.0244 29.8908 19.9958 31.6816 22.2153C31.8885 22.1436 32.0991 22.0766 32.3093 22.0138C30.5629 19.8966 28.9123 16.9453 27.8765 14.928ZM25.1401 15.7824C24.9878 15.8597 24.8397 15.9375 24.6949 16.0242C24.6633 16.0421 24.6313 16.0642 24.6039 16.0825C25.5212 17.8541 27.2638 21.0611 28.9942 23.4523C29.1702 23.352 29.3503 23.2521 29.5346 23.1526C27.8292 20.8064 26.0616 17.5544 25.1401 15.7824ZM22.3266 17.8588C23.2702 19.5823 25.0465 22.7504 26.6157 25.0611C26.7729 24.9376 26.9384 24.815 27.104 24.6923C25.6386 22.5239 23.9017 19.466 22.7946 17.4412C22.6407 17.5736 22.4818 17.7139 22.3266 17.8588ZM20.2504 19.9828C21.3447 21.8875 23.1033 24.901 24.4473 26.9718C24.5895 26.8298 24.7404 26.6844 24.8956 26.5395C23.7617 24.7706 22.1961 22.1421 20.6863 19.5067C20.5336 19.6689 20.3897 19.8277 20.2504 19.9828ZM18.306 22.3073L22.4496 29.1974C22.5429 29.0757 22.6793 28.9076 22.8592 28.6889L18.7122 21.7899C18.5315 22.017 18.3942 22.1935 18.306 22.3073Z" fill="#A3A3A3"/>
<path d="M32.0438 24.913L30.6279 25.7955L34.7588 33.1721C34.7588 33.1721 35.9377 32.2436 36.7396 32.0391L32.0438 24.913Z" fill="#A3A3A3"/>
<path d="M23.4895 13.6837C18.5276 16.7101 16.3392 20.4724 16.3392 20.4724L10.1412 13.3119C10.1412 13.3119 14.3616 7.80698 18.7659 7.10609L23.4895 13.6837Z" fill="#C2C2C2"/>
<path d="M7.83966 14.9544L7.26847 15.5479L13.8656 21.9357L7.83966 14.9544ZM10.1411 13.3122L16.3391 20.4726C16.3391 20.4726 17.5702 18.3577 20.2792 16.0242L20.5669 13.0342L14.7299 13.6444L14.9569 11.5176L11.8767 11.4027C10.8146 12.4707 10.1411 13.3122 10.1411 13.3122Z" fill="#A3A3A3"/>
<path opacity="0.7" d="M33.9083 24.243L39.1155 31.3463C39.408 31.2667 39.6988 31.2038 39.9795 31.1569L34.7939 24.0897L33.9083 24.243ZM37.9369 24.0923C37.6034 24.0362 37.2216 23.9962 36.8078 23.9783L42.8873 30.8125C42.8873 30.8125 43.5945 30.6617 43.9991 30.8483L37.9369 24.0923ZM28.3719 27.6928L31.9981 35.4322C32.2065 35.225 32.4144 35.0219 32.626 34.8235L29.0305 27.1552C28.8131 27.3275 28.5906 27.5078 28.3719 27.6928ZM25.9179 29.8196L29.1731 38.2667C29.4041 38.0449 29.6218 37.8302 29.8158 37.6384L26.5776 29.2312C26.3534 29.4283 26.1333 29.6258 25.9179 29.8196ZM23.4075 32.1611L26.182 41.1475C26.3755 40.9599 26.602 40.7419 26.847 40.5088L24.072 31.5266C23.79 31.7897 23.5635 32.0078 23.4075 32.1611Z" fill="#A3A3A3"/>
<path d="M18.8626 31.8545L18.3388 30.8621C18.2919 30.7768 18.2782 30.6772 18.3002 30.5824C18.4862 29.6983 19.7485 25.1391 26.5502 21.5971C31.6963 18.9166 34.9926 19.5206 35.768 19.6909C35.8757 19.7149 35.9707 19.78 36.0379 19.8677L36.7311 20.8226C36.8016 20.9191 36.7279 21.0556 36.6062 21.0428C35.52 20.9248 31.7613 20.7262 27.3103 23.0468C21.2219 26.2182 19.4084 30.7748 19.055 31.8407C19.0206 31.9261 18.9055 31.9311 18.8626 31.8545Z" fill="#DEA076"/>
<path d="M36.6021 21.0425C35.6945 20.9602 34.7783 21 33.8794 21.1179C32.9814 21.2274 32.0881 21.4138 31.2213 21.6708C29.4834 22.1804 27.8194 22.9144 26.2714 23.8544C24.7056 24.7643 23.2765 25.8914 22.0267 27.2019C21.4023 27.8576 20.8323 28.5614 20.333 29.3193C19.8257 30.0721 19.3895 30.8748 19.0833 31.7335C19.5576 29.9592 20.5893 28.3706 21.7989 26.9872C23.0211 25.6051 24.4903 24.4568 26.0665 23.502C27.6526 22.5738 29.3563 21.8191 31.1429 21.3657C32.9203 20.9199 34.7948 20.7217 36.6021 21.0425Z" fill="#C17E52"/>
</g>
<defs>
<clipPath id="clip0_285_22">
<rect width="54" height="54" fill="white" transform="translate(6) rotate(5.98013)"/>
</clipPath>
</defs>
</svg>
