<svg width="54" height="54" viewBox="0 0 54 54" fill="none" xmlns="http://www.w3.org/2000/svg">
<path d="M37.7577 50.3722C34.619 47.3431 30.1091 40.4159 30.1091 40.4159C30.1091 40.4159 39.3819 31.8603 40.0021 31.7802C40.6223 31.7 51.1185 37.2223 51.1185 37.2223C51.1185 37.2223 49.4057 47.9591 46.4905 49.8027C43.5669 51.6463 37.7577 50.3722 37.7577 50.3722Z" fill="#70C3FF"/>
<path d="M38.6184 35.1426C38.6184 35.1426 36.1336 38.0662 35.0873 41.7154C34.3575 44.2593 34.4967 46.5965 34.4967 46.5965L31.3115 42.344L33.6614 38.9395L38.6184 35.1426Z" fill="#204E95"/>
<path d="M6.26491 10.8594C3.71679 16.9597 3.68726 24.7855 3.68726 24.7855L15.871 30.4681L27.0591 48.6889C27.0591 48.6889 31.7166 41.922 32.8346 39.298L6.26491 10.8594Z" fill="#70C3FF"/>
<path d="M40.3227 38.5847L47.3933 48.1613C47.3933 48.1613 54.08 38.1713 47.6718 33.8006C46.229 32.8177 40.1286 31.7588 39.3313 32.0203L40.3227 38.5847Z" fill="#204E95"/>
<path d="M25.1353 48.6887L25.0763 48.6972C25.0172 48.7351 24.9539 48.7689 24.8948 48.8069C24.9666 48.7731 25.0636 48.7225 25.1353 48.6887ZM47.3386 30.4131C45.9802 29.5947 20.5453 15.2425 17.5163 13.0698L4.67859 14.1794L1.78031 17.6894L2.73797 18.7862L1.6875 21.2289L16.1916 29.3584C17.0395 31.4045 21.8489 42.2636 24.2072 47.8028C24.2072 47.8028 28.2445 44.2844 30.105 41.7573L27.0591 48.6845L30.7589 50.4522C30.7589 50.4522 31.417 42.1876 36.3952 37.1969C41.3016 32.282 44.7145 33.1469 46.9589 35.6148C50.5195 39.5298 46.9674 47.3176 42.8119 47.0097C39.5888 46.7734 41.7192 41.9472 41.5294 38.7873C41.3522 35.8215 39.9727 34.8217 39.5888 34.7247C39.2048 34.6276 37.7578 36.6358 37.2853 38.492C34.927 47.7395 36.8677 51.1145 40.3228 51.7726C45.533 52.7598 49.5745 49.4608 51.4688 43.7233C53.4263 37.7917 51.9455 33.1848 47.3386 30.4131Z" fill="#70C3FF"/>
<path d="M39.5127 37.4922C39.5127 37.4922 40.3143 40.5128 39.306 44.2928C38.7829 43.2719 38.7955 41.8333 38.901 40.69C39.0402 39.1544 39.5127 37.4922 39.5127 37.4922ZM41.0019 48.6888C41.4787 48.8027 41.9385 48.9166 42.4026 48.9334C42.8624 48.9588 43.3138 48.9208 43.7483 48.8238C44.6132 48.6086 45.4021 48.1656 46.1024 47.5834C46.8112 47.0139 47.444 46.3263 48.0388 45.6006C48.6337 44.8708 49.1947 44.103 49.7558 43.3014C49.5154 44.2506 49.0977 45.1492 48.583 45.9845C48.0637 46.8377 47.4081 47.6002 46.6424 48.2416C45.8577 48.8744 44.9001 49.368 43.858 49.4734C43.3391 49.5241 42.8202 49.4692 42.3351 49.3384C41.8457 49.2034 41.4027 48.9672 41.0019 48.6888Z" fill="#70C3FF"/>
<path d="M47.52 30.4682C47.52 30.4682 41.2425 24.1654 32.1384 18.314C32.1384 18.314 23.8654 7.02037 22.9204 5.94881C21.1064 3.89006 17.4065 3.77193 14.31 4.34568C7.927 5.53115 4.13013 10.2393 1.70435 14.0699L15.9806 27.5108L23.9287 44.2846C28.0167 41.0404 28.9279 36.7963 34.83 32.721C42.1495 27.6627 47.52 30.4682 47.52 30.4682Z" fill="#4E83D3"/>
<path d="M34.2351 36.404C34.6696 35.8176 35.1295 35.2354 35.6484 34.708C36.1926 34.2102 36.72 33.6787 37.357 33.2737C37.9476 32.8054 38.6395 32.489 39.3145 32.1304C39.6646 31.9827 40.0317 31.8688 40.3945 31.7338C40.5717 31.6621 40.7573 31.6115 40.9471 31.5735L41.5125 31.4427C41.8879 31.3499 42.2803 31.3372 42.6684 31.3035C43.0523 31.2571 43.4446 31.2782 43.8328 31.3035C44.609 31.3626 45.3811 31.5313 46.1025 31.8097C46.2839 31.8772 46.4568 31.9701 46.634 32.0502C46.807 32.1388 46.9884 32.2021 47.1445 32.3202C47.4693 32.5312 47.7942 32.7337 48.0811 32.991C48.6506 33.493 49.1779 34.0794 49.4268 34.7924L49.3551 34.8346C48.9754 34.2271 48.4186 33.7546 47.8279 33.358C47.2415 32.9488 46.575 32.6746 45.9 32.4468C44.5331 32.0333 43.065 31.9954 41.6686 32.2738L41.1454 32.3835C40.9682 32.413 40.7953 32.4594 40.6307 32.5227C40.2932 32.6366 39.9515 32.7463 39.614 32.8644C38.9643 33.164 38.302 33.4424 37.7029 33.839C37.0701 34.1807 36.509 34.6321 35.9268 35.0497C35.3573 35.4843 34.8384 35.9863 34.2942 36.4504L34.2351 36.404ZM1.78027 17.6812L10.3021 24.6505L2.4173 19.5796C2.4173 19.5796 2.57762 19.1999 2.65355 18.989L1.78027 17.6812Z" fill="#70C3FF"/>
<path opacity="0.7" d="M19.4021 5.7168L23.8065 11.2096C24.0765 11.1927 24.3296 11.1843 24.5743 11.1843L20.229 5.76742C20.0054 5.74211 19.7228 5.72523 19.4021 5.7168ZM15.6264 6.08805L20.7521 11.893C20.9589 11.8087 21.1656 11.7327 21.3723 11.6695L16.3225 5.94883C16.0946 5.99102 15.8626 6.03742 15.6264 6.08805ZM26.4137 13.1671C26.1732 13.1713 25.9285 13.1798 25.6754 13.1966C27.0507 15.2343 28.966 17.7234 31.0754 19.4277C31.3665 19.3813 31.6576 19.3476 31.9571 19.3265C29.8435 17.7698 27.865 15.2723 26.4137 13.1671ZM23.3129 13.5679C23.1062 13.6227 22.8995 13.6818 22.6928 13.7493C23.9035 15.614 25.8442 18.3984 27.8565 20.4191C28.0548 20.3263 28.2573 20.2377 28.4598 20.1534C26.5023 18.2296 24.5532 15.4663 23.3129 13.5679ZM20.6804 14.7027C20.537 14.7955 20.3978 14.8884 20.2628 14.9896C20.2332 15.0107 20.2037 15.036 20.1784 15.0571C21.2753 16.7235 23.3425 19.7315 25.3126 21.9295C25.4771 21.8113 25.6459 21.6932 25.8189 21.5751C23.8782 19.4193 21.7815 16.3691 20.6804 14.7027ZM18.0985 17.061C19.2165 18.6768 21.3132 21.6426 23.1146 23.7773C23.2581 23.638 23.41 23.4988 23.5618 23.3596C21.8785 21.3557 19.8325 18.4954 18.5204 16.597C18.3812 16.7446 18.2378 16.9007 18.0985 17.061ZM16.255 19.3898C17.5417 21.1701 19.6046 23.984 21.1571 25.9035C21.2837 25.7474 21.4187 25.5871 21.5579 25.4268C20.2459 23.7857 18.415 21.3346 16.6389 18.8709C16.5039 19.048 16.3773 19.221 16.255 19.3898ZM14.5632 21.9041L19.4021 28.3251C19.4823 28.1943 19.6004 28.0129 19.7565 27.7766L14.9134 21.3473C14.7573 21.592 14.6392 21.7818 14.5632 21.9041Z" fill="#70C3FF"/>
<path d="M28.4976 23.064L27.1814 24.0891L32.0583 30.9952C32.0583 30.9952 33.1341 29.949 33.9103 29.6621L28.4976 23.064Z" fill="#70C3FF"/>
<path d="M18.8197 11.787C14.2002 15.3139 12.4157 19.2837 12.4157 19.2837L5.50537 12.8079C5.50537 12.8079 9.12928 6.89324 13.4366 5.7373L18.8197 11.787Z" fill="#70C3FF"/>
<path d="M3.3876 14.6812L2.88135 15.3309L10.1081 20.9966L3.3876 14.6812ZM5.50541 12.808L12.4157 19.2838C12.4157 19.2838 13.4198 17.0521 15.8709 14.4491L15.8456 11.4454L10.1038 12.6604L10.1081 10.5215L7.0326 10.7282C6.0876 11.901 5.50541 12.808 5.50541 12.808Z" fill="#70C3FF"/>
<path opacity="0.7" d="M30.2821 22.2035L36.201 28.7257C36.4836 28.616 36.7663 28.5232 37.0405 28.4473L31.1469 21.9588L30.2821 22.2035ZM34.273 21.634C33.9355 21.6129 33.5516 21.6129 33.1382 21.6382L39.8966 27.8018C39.8966 27.8018 40.5843 27.5782 41.0061 27.7216L34.273 21.634ZM25.1352 26.2113L29.548 33.5309C29.7336 33.303 29.9193 33.0794 30.1091 32.8601L25.7343 25.608C25.536 25.8021 25.3335 26.0046 25.1352 26.2113ZM22.9161 28.5823L27.0336 36.6443C27.2404 36.3996 27.4344 36.1634 27.6074 35.9524L23.511 27.9284C23.3085 28.1477 23.1102 28.3671 22.9161 28.5823ZM20.6633 31.1726L24.359 39.821C24.5319 39.6143 24.7344 39.3738 24.9538 39.1165L21.2582 30.4723C21.005 30.7634 20.8025 31.0038 20.6633 31.1726Z" fill="#70C3FF"/>
<path d="M16.1114 31.3411L15.487 30.4088C15.4315 30.3288 15.4075 30.2312 15.4195 30.1346C15.5123 29.236 16.2928 24.57 22.6884 20.3386C27.5273 17.1366 30.8686 17.3939 31.6575 17.4825C31.7672 17.4952 31.8684 17.55 31.9444 17.6302L32.7333 18.5077C32.8134 18.5963 32.7544 18.7397 32.632 18.7397C31.5394 18.7355 27.7805 18.9296 23.5955 21.7013C17.8706 25.4897 16.5417 30.2105 16.3013 31.3074C16.2759 31.396 16.162 31.4128 16.1114 31.3411Z" fill="black"/>
<path d="M32.6278 18.74C31.7166 18.7526 30.8095 18.8876 29.9278 19.0986C29.0461 19.3011 28.177 19.5795 27.3417 19.9254C25.6664 20.6133 24.0879 21.5167 22.6462 22.6128C21.1838 23.6809 19.8799 24.9507 18.7734 26.3843C18.2208 27.1015 17.7272 27.8609 17.3095 28.6667C16.8834 29.4682 16.5333 30.312 16.3181 31.1979C16.605 29.3839 17.4656 27.6964 18.5245 26.1945C19.5961 24.6926 20.9376 23.3975 22.4058 22.2837C23.8866 21.1953 25.5023 20.2671 27.232 19.6301C28.9533 19.0015 30.7969 18.6092 32.6278 18.74Z" fill="black" fill-opacity="0.35"/>
</svg>
