<svg width="119" height="159" viewBox="0 0 119 159" fill="none" xmlns="http://www.w3.org/2000/svg">
<path d="M108.322 30.0331C108.322 30.0331 108.323 25.0125 88.6275 22.1576V15.2665C88.5501 11.3233 86.9287 7.56769 84.1115 4.8066C81.2943 2.04551 77.5061 0.499242 73.5608 0.5H44.0183C40.1522 0.577314 36.4705 2.16714 33.7639 4.92807C31.0574 7.689 29.5417 11.4009 29.5425 15.2665V22.1576C22.3119 22.7791 15.4308 25.5417 9.77857 30.0922L0 30.0331V39.8775H118.17V30.0331H108.322ZM39.39 15.2665C39.4151 13.9707 39.9406 12.7347 40.8565 11.8173C41.7724 10.8999 43.0077 10.3721 44.3039 10.3444H73.8661C75.1973 10.3446 76.4781 10.8533 77.4465 11.7665C78.4148 12.6796 78.9976 13.9282 79.0754 15.2567V20.7794C74.0846 20.2111 69.0581 20.0169 64.0383 20.1986C58.5926 20.1986 43.7229 20.1986 39.39 20.8877V15.2764V15.2665ZM0 49.7218V59.5662H9.8475V148.165C21.9993 154.377 36.357 158.01 51.5615 158.01H66.6183C81.2974 158.035 95.7728 154.577 108.854 147.919L108.322 59.5662H118.17V49.7218H0ZM39.39 137.534C36.0419 137.14 32.7593 136.582 29.5425 135.86V69.4106H39.39V137.534ZM68.9325 138.321H49.2375V69.4106H68.9325V138.321ZM88.6275 135.565C85.9982 136.254 82.6599 136.904 79.2724 137.376L78.78 69.4106H88.6275V135.565Z" fill="#858585"/>
</svg>
