<svg width="38" height="35" viewBox="0 0 38 35" fill="none" xmlns="http://www.w3.org/2000/svg">
<path d="M28.5688 0C28.5338 0.000724151 27.033 1.15631 27.033 1.15631L24.6711 0.690277C24.6538 0.695105 22.7023 2.52978 22.7023 2.52978L20.6108 2.40595L19.3502 3.75963L17.0609 3.70154L15.5511 5.36025L13.4822 5.59584L12.0859 7.07391L9.86663 7.79404L8.55685 9.6123L6.6226 10.1131L5.56219 11.7607L3.83735 12.669L3.23383 14.4215L1.30382 15.5439L1.05299 17.4669C2.25268 17.0375 3.37442 17.5236 4.22925 18.1427L6.327 16.8578L9.17472 16.4112L11.6225 14.2319L15.3091 13.8062L17.9976 11.4159L20.6627 10.7579L22.3143 8.61861C23.1661 8.14871 24.3958 7.8148 25.4829 7.36679L26.282 5.36371L28.5908 4.49714C28.6034 4.48362 28.6169 4.4697 28.6294 4.4561L28.8807 2.94657L30.5513 1.69427C30.5551 1.68438 30.5589 1.67448 30.5626 1.66466L29.2641 1.18648L28.5688 0ZM19 13.5973C18.9808 13.5973 18.9618 13.5976 18.9425 13.5976C18.7087 13.7343 18.4741 13.8696 18.2388 14.0036C17.5866 14.3735 16.9283 14.733 16.2642 15.0819C17.176 15.0576 18.088 15.0456 19 15.0457C24.0087 15.0457 28.5452 15.4058 31.7871 15.977C33.4081 16.2627 34.7092 16.6059 35.5452 16.9542C35.9632 17.1283 36.2623 17.3075 36.4124 17.4368C36.4772 17.4926 36.4983 17.5207 36.5127 17.5399C36.4983 17.5592 36.4772 17.5872 36.4124 17.643C36.2624 17.7723 35.9632 17.9515 35.5452 18.1256C34.7092 18.4739 33.4081 18.8172 31.7872 19.1028C28.5452 19.6741 24.0086 20.0342 19 20.0342C14.0922 20.0342 9.64099 19.6879 6.41352 19.1366C6.32692 19.1602 6.23836 19.1857 6.15282 19.2082C4.93315 19.5292 3.82854 19.7346 2.85277 19.8067C3.71862 20.0785 4.75636 20.3174 5.95483 20.5286C9.32394 21.1222 13.9206 21.4825 19 21.4825C24.0794 21.4825 28.6761 21.1222 32.0452 20.5286C33.7297 20.2317 35.1036 19.8817 36.1161 19.4598C36.6225 19.249 37.0411 19.0239 37.3776 18.734C37.7141 18.4444 38 18.036 38 17.54C38 17.0438 37.7141 16.6354 37.3776 16.3457C37.0411 16.056 36.6225 15.8309 36.1161 15.6199C35.1036 15.1982 33.7297 14.848 32.0452 14.5513C28.6761 13.9576 24.0794 13.5973 19 13.5973ZM37.2661 20.1087C35.8076 20.8619 33.817 21.3722 31.4883 21.7998C27.8785 22.4626 23.4431 22.8001 19.0051 22.8309C14.5671 22.8616 10.133 22.5854 6.52695 22.0008C4.72399 21.7085 3.12856 21.3404 1.82759 20.8824C1.43658 20.7447 1.0715 20.6008 0.733906 20.4463V29.4978C5.19662 31.0956 12.1079 31.9425 19 31.9425C25.8921 31.9425 32.8034 31.0956 37.2661 29.4978V20.1087ZM0.028867 30.787C0.0097049 30.8759 2.98242e-05 30.9665 0 31.0574C0 31.5535 0.285897 31.9618 0.622433 32.2516C0.958888 32.5413 1.37754 32.7664 1.88385 32.9774C2.8964 33.3991 4.27027 33.7493 5.95483 34.0461C9.32394 34.6397 13.9206 35 19 35C24.0794 35 28.6761 34.6397 32.0452 34.0461C33.7297 33.7492 35.1036 33.3991 36.1161 32.9773C36.6225 32.7665 37.0411 32.5413 37.3776 32.2515C37.7141 31.9619 38 31.5535 38 31.0575C38 30.9641 37.9898 30.8739 37.9711 30.787C33.1985 32.5557 26.1104 33.3908 19 33.3908C11.8896 33.3908 4.80146 32.5556 0.028867 30.787Z" fill="black"/>
</svg>
